<?xml version="1.0" encoding="utf-8"?>
<!-- Generator: Adobe Illustrator 15.0.0, SVG Export Plug-In . SVG Version: 6.00 Build 0)  -->
<!DOCTYPE svg PUBLIC "-//W3C//DTD SVG 1.1//EN" "http://www.w3.org/Graphics/SVG/1.1/DTD/svg11.dtd">
<svg version="1.1" id="Layer_1" xmlns="http://www.w3.org/2000/svg" xmlns:xlink="http://www.w3.org/1999/xlink" x="0px" y="0px"
	 width="406.1px" height="222.8px" viewBox="0 0 406.1 222.8" enable-background="new 0 0 406.1 222.8" xml:space="preserve">
<path fill-rule="evenodd" clip-rule="evenodd" fill="#FFFFFF" d="M19.2,113.7l28.3,73.6c7.5-7,12.7-11,20.5-14.2
	c-10.6,13.3-13.6,26.6-15.4,41.8c-11.3-10.2-23-17.2-39.5-20.6c8.8-2.8,14.6-3.3,25.5-3.4l-28.4-73.7L19.2,113.7z"/>
<path fill-rule="evenodd" clip-rule="evenodd" fill="#FFFFFF" d="M217.4,7.3l-3.7,133.4c16.3-6,27-8.9,41.3-8.8
	c-25.2,13.9-38.6,32.6-51.4,55.2c-11-23.3-24.7-41.9-48.2-58c15.6,1.4,24.9,4.3,41.9,11.3L201,6.9L217.4,7.3z"/>
<path fill-rule="evenodd" clip-rule="evenodd" fill="#FFFFFF" d="M400.1,87.9l-34.5,95.7c13.3-0.4,21.6,0,32,3.5
	c-21.6,4.1-35.7,14.4-50.4,27.7c-2.4-19.5-7.9-36.2-21.1-53.5c10.9,4.7,17,9.1,27.7,18.2l34.5-95.9L400.1,87.9z"/>
</svg>
