<?xml version="1.0" encoding="utf-8"?>
<!-- Generator: Adobe Illustrator 15.0.0, SVG Export Plug-In . SVG Version: 6.00 Build 0)  -->
<!DOCTYPE svg PUBLIC "-//W3C//DTD SVG 1.1//EN" "http://www.w3.org/Graphics/SVG/1.1/DTD/svg11.dtd">
<svg version="1.1" id="Layer_1" xmlns="http://www.w3.org/2000/svg" xmlns:xlink="http://www.w3.org/1999/xlink" x="0px" y="0px"
	 width="71.5px" height="77.333px" viewBox="17 -3.833 71.5 77.333" enable-background="new 17 -3.833 71.5 77.333"
	 xml:space="preserve">
<g>
	<path fill="#333333" d="M70.23,23.498l-12.687,8.364c-0.121-0.221-0.259-0.441-0.411-0.647l12.641-8.326
		C69.91,23.102,70.062,23.308,70.23,23.498z"/>
</g>
<g>
	<path fill="#333333" d="M47.034,42.54l-3.95,8.866c-0.213-0.145-0.441-0.26-0.685-0.344l3.973-8.896l0.16,0.068
		c0.008,0,0.008,0.008,0.016,0.008c0.008,0,0.008,0.008,0.016,0.008c0,0,0.008,0,0.008,0.008
		C46.714,42.364,46.874,42.448,47.034,42.54z"/>
</g>
<g>
	<path fill="#333333" d="M39.172,51.717c-0.182,0.168-0.351,0.366-0.494,0.578l-7.04-7.329c0.221-0.144,0.418-0.304,0.587-0.494
		L39.172,51.717z"/>
</g>
<g>
	<path fill="#333333" d="M77.536,51.998l-16.315,3.6c-0.023-0.258-0.077-0.51-0.145-0.754l16.232-3.576
		C77.354,51.527,77.43,51.771,77.536,51.998z"/>
</g>
<g>
	<path fill="#333333" d="M36.562,24.023l-4.969,15.625c-0.213-0.137-0.442-0.243-0.693-0.32l4.977-15.654
		C36.09,23.811,36.318,23.924,36.562,24.023z"/>
</g>
<g>
	<path fill="#333333" d="M56.266,51.894c-0.252,0.045-0.494,0.113-0.73,0.204l-2.641-8.904c0.243-0.069,0.486-0.152,0.723-0.252
		L56.266,51.894z"/>
</g>
<g>
	<path fill="#333333" d="M43.388,38.232l-10.335,3.675c-0.03-0.258-0.092-0.502-0.19-0.738l10.312-3.667
		C43.236,37.752,43.305,37.996,43.388,38.232z"/>
</g>
<g>
	<path fill="#333333" d="M46.03,29.502c-0.199,0.16-0.396,0.32-0.579,0.495l-4.947-6.286c0.221-0.129,0.426-0.274,0.617-0.441
		L46.03,29.502z"/>
</g>
<g>
	<path fill="#333333" d="M33.921,18.68c-0.077,0.244-0.123,0.495-0.145,0.754l-9.962-1.796c0.084-0.235,0.13-0.494,0.137-0.753
		L33.921,18.68z"/>
</g>
<g>
	<path fill="#333333" d="M81.57,2.927l-3.973,11.393c-0.221-0.122-0.457-0.228-0.693-0.312L80.84,2.706
		C81.067,2.805,81.312,2.881,81.57,2.927z"/>
</g>
<g>
	<path fill="#333333" d="M69.485,16.808c-0.122,0.221-0.229,0.457-0.313,0.701L54.256,9.853c0.138-0.213,0.243-0.441,0.32-0.678
		L69.485,16.808z"/>
</g>
<g>
	<path fill="#333333" d="M51.965,11.291l-0.799,16.614c-0.137-0.007-0.267-0.007-0.404-0.007c-0.121,0-0.243,0-0.365,0.007
		l0.806-16.621c0.129,0.022,0.26,0.03,0.396,0.03C51.722,11.313,51.843,11.306,51.965,11.291z"/>
</g>
<g>
	<path fill="#333333" d="M29.165,39.281c-0.251,0.062-0.487,0.153-0.708,0.275l-6.993-19.75c0.251-0.061,0.487-0.137,0.716-0.251
		L29.165,39.281z"/>
</g>
<g>
	<path fill="#333333" d="M78.93,47.919c-0.229,0.114-0.434,0.267-0.625,0.441l-4.535-6.119c0.236-0.114,0.457-0.243,0.662-0.403
		L78.93,47.919z"/>
</g>
<g>
	<path fill="#333333" d="M74.104,25.56l-1.157,8.355c-0.242-0.068-0.486-0.113-0.745-0.129l1.156-8.364
		C73.602,25.484,73.854,25.53,74.104,25.56z"/>
</g>
<g>
	<path fill="#333333" d="M38.632,55.629l-8.318,3.41c-0.076-0.244-0.175-0.479-0.29-0.707l8.295-3.395
		C38.396,55.188,38.495,55.416,38.632,55.629z"/>
</g>
<g>
	<path fill="#333333" d="M67.347,38.232c0,0.068,0,0.137,0.007,0.205l-9.025-0.868c0.061-0.244,0.113-0.495,0.144-0.754l8.912,0.853
		C67.361,37.852,67.347,38.042,67.347,38.232z"/>
</g>
<g>
	<path fill="#333333" d="M29.56,45.438l-2.199,10.754c-0.236-0.067-0.487-0.113-0.746-0.137l2.207-10.808
		C29.058,45.348,29.301,45.408,29.56,45.438z"/>
</g>
<g>
	<path fill="#333333" d="M73.344,63.924c-0.1,0.236-0.19,0.48-0.251,0.73l-12.52-6.301c0.145-0.213,0.267-0.441,0.356-0.678
		L73.344,63.924z"/>
</g>
<g>
	<path fill="#333333" d="M80.764,53.818l-0.328,6.636c-0.243-0.061-0.494-0.114-0.752-0.151l0.318-6.493
		c0.13,0.022,0.26,0.03,0.396,0.03C80.52,53.841,80.642,53.834,80.764,53.818z"/>
</g>
<g>
	<path fill="#333333" d="M79.12,0.772v0.008L54.697,7.66c-0.038-0.259-0.107-0.502-0.205-0.73l24.483-6.902
		C78.99,0.286,79.035,0.53,79.12,0.772z"/>
</g>
<g>
	<path fill="#333333" d="M49.599,10.599l-7.815,6.59c-0.145-0.205-0.32-0.396-0.51-0.571l7.801-6.575
		C49.226,10.248,49.408,10.431,49.599,10.599z"/>
</g>
<g>
	<path fill="#333333" d="M52.895,55.074c-0.062,0.244-0.1,0.494-0.107,0.761l-8.57-0.617c0.1-0.235,0.168-0.479,0.206-0.745
		L52.895,55.074z"/>
</g>
<g>
	<path fill="#333333" d="M50.764,28.659c-3.882,0-7.038,3.156-7.038,7.037c0,3.874,3.155,7.037,7.038,7.037
		c3.881,0,7.029-3.164,7.029-7.037C57.793,31.815,54.645,28.659,50.764,28.659z M50.711,29.97c0.489,0,0.882,0.393,0.882,0.889
		c0,0.489-0.393,0.881-0.882,0.881c-0.489,0-0.889-0.393-0.889-0.881C49.822,30.363,50.222,29.97,50.711,29.97z M52.785,35.8
		c0,0.534-0.695,0.534-0.695,0v-2.652h-0.215l-0.008,7.186c0,0.274-0.223,0.496-0.496,0.496s-0.496-0.222-0.496-0.496V36.17h-0.223
		v4.163c0,0.274-0.222,0.496-0.496,0.496s-0.496-0.222-0.496-0.496v-7.186h-0.222V35.8c0,0.526-0.696,0.526-0.696,0v-2.726
		c0-0.637,0.393-1.148,1.022-1.148h1.985c0.688,0,1.036,0.578,1.036,1.163V35.8z"/>
</g>
<g>
	<path fill="#333333" d="M41.318,51.63c-1.318,0-2.385,1.06-2.385,2.378c0,1.311,1.067,2.377,2.385,2.377
		c1.312,0,2.385-1.066,2.385-2.377C43.704,52.689,42.63,51.63,41.318,51.63z M41.296,51.874c0.185,0,0.333,0.148,0.333,0.333
		c0,0.178-0.148,0.326-0.333,0.326c-0.178,0-0.326-0.148-0.326-0.326C40.97,52.022,41.119,51.874,41.296,51.874z M42.067,54.045
		c0,0.2-0.252,0.2-0.252,0v-0.986h-0.089v2.675c0,0.104-0.082,0.185-0.186,0.185c-0.096,0-0.185-0.081-0.185-0.185v-1.556h-0.082
		v1.557c0,0.104-0.082,0.186-0.185,0.186c-0.096,0-0.185-0.082-0.185-0.186l0.007-2.674h-0.089v0.984c0,0.193-0.259,0.193-0.259,0
		V53.03c0-0.237,0.148-0.43,0.385-0.43h0.733c0.259,0,0.385,0.215,0.385,0.437V54.045z"/>
</g>
<g>
	<path fill="#333333" d="M80.4,48.318c-1.318,0-2.386,1.06-2.386,2.378c0,1.312,1.065,2.386,2.386,2.386
		c1.303,0,2.377-1.074,2.377-2.386C82.777,49.378,81.703,48.318,80.4,48.318z M80.378,48.563c0.178,0,0.325,0.148,0.325,0.333
		c0,0.178-0.147,0.326-0.325,0.326c-0.186,0-0.333-0.148-0.333-0.326C80.045,48.711,80.192,48.563,80.378,48.563z M81.148,50.733
		c0,0.2-0.26,0.2-0.26,0v-0.985h-0.081v2.674c0,0.104-0.081,0.185-0.186,0.185c-0.104,0-0.185-0.081-0.185-0.185v-1.549h-0.082
		v1.549c0,0.104-0.082,0.185-0.186,0.185s-0.185-0.081-0.185-0.185v-2.674h-0.081v0.985c0,0.2-0.261,0.2-0.261,0v-1.015
		c0-0.237,0.148-0.422,0.379-0.422h0.741c0.259,0,0.385,0.215,0.385,0.43V50.733z"/>
</g>
<g>
	<path fill="#333333" d="M51.6,5.785c-1.311,0-2.385,1.074-2.385,2.385c0,1.318,1.074,2.385,2.385,2.385
		c1.318,0,2.386-1.067,2.386-2.385C53.985,6.859,52.918,5.785,51.6,5.785z M51.578,6.037c0.186,0,0.333,0.148,0.333,0.333
		c0,0.186-0.147,0.326-0.333,0.326c-0.178,0-0.326-0.141-0.326-0.326C51.252,6.185,51.4,6.037,51.578,6.037z M52.355,8.208
		c0,0.2-0.26,0.2-0.26,0V7.222h-0.081v2.674c0,0.104-0.081,0.185-0.185,0.185S51.645,10,51.645,9.896V8.348h-0.082v1.548
		c0,0.104-0.081,0.185-0.185,0.185c-0.104,0-0.186-0.082-0.186-0.185V7.222h-0.081v0.985c0,0.2-0.268,0.2-0.268,0V7.192
		c0-0.237,0.148-0.422,0.386-0.422h0.741c0.252,0,0.385,0.215,0.385,0.43V8.208z"/>
</g>
<g>
	<path fill="#333333" d="M20.815,14.341c-1.311,0-2.371,1.066-2.371,2.385c0,1.311,1.06,2.377,2.371,2.377
		c1.318,0,2.385-1.066,2.385-2.377C23.2,15.407,22.133,14.341,20.815,14.341z M20.8,14.593c0.186,0,0.333,0.141,0.333,0.326
		s-0.148,0.333-0.333,0.333c-0.185,0-0.333-0.148-0.333-0.333S20.615,14.593,20.8,14.593z M21.57,16.755c0,0.2-0.259,0.2-0.259,0
		v-0.985h-0.082v2.681c0,0.097-0.082,0.186-0.185,0.186s-0.185-0.089-0.185-0.186v-1.555h-0.082v1.555
		c0,0.097-0.082,0.186-0.185,0.186c-0.104,0-0.186-0.089-0.186-0.186v-2.681h-0.081v0.985c0,0.2-0.259,0.2-0.259,0v-1.007
		c0-0.237,0.148-0.43,0.377-0.43h0.741c0.259,0,0.385,0.215,0.385,0.437V16.755z"/>
</g>
<g>
	<path fill="#333333" d="M82.111-2.556c-1.312,0-2.385,1.074-2.385,2.385c0,1.318,1.073,2.385,2.385,2.385
		c1.318,0,2.377-1.067,2.377-2.385C84.488-1.481,83.43-2.556,82.111-2.556z M82.089-2.304c0.185,0,0.333,0.148,0.333,0.333
		c0,0.185-0.148,0.326-0.333,0.326c-0.178,0-0.325-0.141-0.325-0.326C81.764-2.156,81.911-2.304,82.089-2.304z M82.867-0.133
		c0,0.2-0.261,0.2-0.261,0v-0.985h-0.081v2.674c0,0.104-0.088,0.185-0.185,0.185c-0.104,0-0.185-0.082-0.185-0.185V0.007h-0.082
		v1.548c0,0.104-0.089,0.185-0.186,0.185c-0.104,0-0.186-0.082-0.186-0.185v-2.674h-0.081v0.985c0,0.2-0.267,0.2-0.267,0v-1.007
		c0-0.245,0.148-0.43,0.385-0.43h0.741c0.253,0,0.386,0.215,0.386,0.43V-0.133L82.867-0.133z"/>
</g>
<g>
	<path fill="#333333" d="M57.008,52.585c-1.912,0-3.475,1.562-3.475,3.474c0,1.918,1.562,3.481,3.475,3.481
		c1.918,0,3.48-1.563,3.48-3.481C60.488,54.148,58.926,52.585,57.008,52.585z M56.985,53.082c0.251,0,0.459,0.207,0.459,0.459
		c0,0.259-0.208,0.467-0.459,0.467c-0.259,0-0.467-0.208-0.467-0.467C56.519,53.289,56.727,53.082,56.985,53.082z M58.059,56.111
		c0,0.281-0.354,0.281-0.354,0v-1.378h-0.119v3.741c0,0.147-0.119,0.26-0.26,0.26s-0.26-0.111-0.26-0.26v-2.171h-0.111v2.171
		c0,0.147-0.117,0.26-0.259,0.26s-0.259-0.111-0.259-0.26v-3.741h-0.119v1.378c0,0.281-0.363,0.281-0.363,0v-1.415
		c0-0.325,0.208-0.593,0.533-0.593h1.037c0.355,0,0.533,0.297,0.533,0.6V56.111z"/>
</g>
<g>
	<path fill="#333333" d="M38.222,16.17c-2.044,0-3.711,1.659-3.711,3.704c0,2.037,1.667,3.711,3.711,3.711s3.704-1.674,3.704-3.711
		C41.926,17.83,40.267,16.17,38.222,16.17z M38.192,16.719c0.274,0,0.489,0.222,0.489,0.489c0,0.274-0.215,0.489-0.489,0.489
		c-0.267,0-0.489-0.215-0.489-0.489C37.704,16.941,37.926,16.719,38.192,16.719z M39.333,19.934c0.007,0.289-0.378,0.289-0.378,0
		v-1.459h-0.119L38.83,22.43c0,0.155-0.119,0.274-0.267,0.274c-0.156,0-0.274-0.119-0.274-0.274v-2.296h-0.126v2.296
		c0,0.155-0.119,0.274-0.274,0.274c-0.148,0-0.274-0.119-0.274-0.274v-3.956h-0.119v1.459c0,0.289-0.385,0.289-0.385,0V18.43
		c0-0.348,0.215-0.63,0.562-0.63h1.097c0.377,0,0.563,0.319,0.563,0.645V19.934L39.333,19.934z"/>
</g>
<g>
	<path fill="#333333" d="M74.785,14.37c-2.889,0-5.229,2.349-5.229,5.23c0,2.896,2.34,5.237,5.229,5.237
		c2.881,0,5.229-2.341,5.229-5.237C80.015,16.719,77.666,14.37,74.785,14.37z M74.74,15.274c0.371,0,0.674,0.296,0.674,0.667
		c0,0.37-0.303,0.674-0.674,0.674c-0.369,0-0.666-0.304-0.666-0.674C74.074,15.57,74.371,15.274,74.74,15.274z M76.311,19.682
		c0,0.407-0.525,0.407-0.525,0v-2h-0.163v5.437c0,0.208-0.169,0.377-0.378,0.377c-0.208,0-0.377-0.17-0.377-0.377v-3.156h-0.164
		v3.156c0,0.208-0.169,0.377-0.377,0.377c-0.209,0-0.378-0.17-0.378-0.377v-5.437h-0.163v2c0,0.4-0.534,0.4-0.534,0v-2.06
		c0-0.481,0.296-0.867,0.771-0.867h1.504c0.525,0,0.785,0.437,0.785,0.882V19.682L76.311,19.682z"/>
</g>
<g>
	<path fill="#333333" d="M78.867,61.008c-2.882,0-5.236,2.355-5.236,5.236c0,2.889,2.355,5.236,5.236,5.236
		c2.889,0,5.23-2.348,5.23-5.236C84.096,63.363,81.756,61.008,78.867,61.008z M78.83,61.911c0.37,0,0.666,0.304,0.666,0.674
		S79.2,63.26,78.83,63.26c-0.371,0-0.674-0.305-0.674-0.675S78.459,61.911,78.83,61.911z M80.4,66.326c0,0.4-0.526,0.4-0.526,0
		v-2.008h-0.171v5.438c0,0.215-0.169,0.377-0.377,0.377c-0.209,0-0.371-0.162-0.371-0.377v-3.148h-0.17v3.148
		c0,0.215-0.17,0.377-0.379,0.377c-0.206,0-0.37-0.162-0.37-0.377v-5.438h-0.169v2.008c0,0.4-0.526,0.4-0.526,0v-2.06
		c0-0.48,0.296-0.874,0.771-0.874h1.504c0.518,0,0.785,0.438,0.785,0.881V66.326z"/>
</g>
<g>
	<path fill="#333333" d="M29.948,39.941c-1.318,0-2.385,1.066-2.385,2.377c0,1.319,1.067,2.385,2.385,2.385
		c1.311,0,2.378-1.066,2.378-2.385C32.326,41.007,31.259,39.941,29.948,39.941z M29.926,40.185c0.186,0,0.333,0.148,0.333,0.333
		s-0.148,0.333-0.333,0.333c-0.185,0-0.333-0.148-0.333-0.333S29.741,40.185,29.926,40.185z M30.696,42.355
		c0,0.201-0.259,0.201-0.259,0V41.37h-0.082v2.674c0,0.104-0.082,0.185-0.185,0.185c-0.096,0-0.185-0.082-0.185-0.185v-1.548h-0.082
		v1.548c0,0.104-0.082,0.185-0.185,0.185c-0.097,0-0.186-0.082-0.186-0.185V41.37h-0.082v0.985c0,0.201-0.259,0.201-0.259,0v-1.007
		c0-0.237,0.148-0.43,0.378-0.43h0.741c0.259,0,0.385,0.215,0.385,0.437V42.355L30.696,42.355z"/>
</g>
<g>
	<path fill="#333333" d="M26.259,56.8c-1.918,0-3.481,1.563-3.481,3.481c0,1.919,1.563,3.475,3.481,3.475s3.474-1.557,3.474-3.475
		S28.178,56.8,26.259,56.8z M26.229,57.297c0.252,0,0.459,0.207,0.459,0.467c0,0.252-0.208,0.459-0.459,0.459
		c-0.259,0-0.466-0.207-0.466-0.459C25.763,57.504,25.97,57.297,26.229,57.297z M27.304,60.334c0,0.273-0.355,0.273-0.355,0v-1.379
		H26.83v3.734c0,0.147-0.111,0.26-0.259,0.26c-0.141,0-0.259-0.111-0.259-0.26v-2.164H26.2v2.164c0,0.147-0.119,0.26-0.259,0.26
		c-0.141,0-0.259-0.111-0.259-0.26v-3.734H25.57v1.379c0,0.273-0.37,0.273-0.37,0v-1.423c0-0.326,0.207-0.593,0.533-0.593h1.037
		c0.355,0,0.533,0.296,0.533,0.607V60.334z"/>
</g>
<g>
	<path fill="#333333" d="M71.808,34.526c-2.046,0-3.696,1.667-3.696,3.704c0,2.052,1.65,3.711,3.696,3.711
		c2.044,0,3.704-1.66,3.704-3.711C75.512,36.192,73.852,34.526,71.808,34.526z M71.777,35.082c0.273,0,0.488,0.215,0.488,0.488
		c0,0.267-0.215,0.481-0.488,0.481c-0.266,0-0.488-0.215-0.488-0.481C71.289,35.296,71.512,35.082,71.777,35.082z M72.926,38.289
		c0,0.295-0.386,0.295-0.386,0V36.83h-0.118v3.964c0,0.147-0.127,0.274-0.273,0.274c-0.156,0-0.274-0.126-0.274-0.274v-2.297h-0.126
		v2.297c0,0.147-0.119,0.274-0.273,0.274c-0.148,0-0.274-0.126-0.274-0.274l0.007-3.964h-0.125v1.46c0,0.295-0.386,0.295-0.386,0
		v-1.497c0-0.354,0.215-0.637,0.563-0.637h1.096c0.378,0,0.57,0.319,0.57,0.644V38.289L72.926,38.289z"/>
</g>
</svg>
