<?xml version="1.0" encoding="utf-8"?>
<!-- Generator: Adobe Illustrator 15.0.0, SVG Export Plug-In . SVG Version: 6.00 Build 0)  -->
<!DOCTYPE svg PUBLIC "-//W3C//DTD SVG 1.1//EN" "http://www.w3.org/Graphics/SVG/1.1/DTD/svg11.dtd">
<svg version="1.1" id="Layer_1" xmlns="http://www.w3.org/2000/svg" xmlns:xlink="http://www.w3.org/1999/xlink" x="0px" y="0px"
	 width="418.8px" height="390.6px" viewBox="0 0 418.8 390.6" enable-background="new 0 0 418.8 390.6" xml:space="preserve">
<g>
	<g>
		<path fill="none" stroke="#FFFFFF" stroke-width="3" stroke-miterlimit="10" d="M376.5,242.5l-3.4-3.4l1-2.9
			c0,0,4-196.4,4.6-212.4S364.5,7.6,364.5,7.6S60.6,8.8,44.9,9.1S29.6,24.6,29.6,24.6l4.2,215.6l1.5,2.6l-3.3,4.7l-25.4,116
			l-0.5,9.9l1,5.5l4.5,3.8l5.8,3.1l382.6-4.1l8-0.5l4.7-4l1.7-17L376.5,242.5z M359.2,25.3l-1.7,192l-303.7,3.4L52,26.3L359.2,25.3z
			 M328.9,243.1l-247.2,0.5l0.7-4.6l246-0.7L328.9,243.1z M275.9,364.6l-6.4,1l-115.1,2.4h-6.1l-2.7-1l0.4-3.8l2.1-43.2l1.9-2
			l13.3-0.4l103.3-1l5,0.3l0.5,9.3l7.1,38.2H275.9z M49.9,307.5l10.4-56.2l290.8-2.4l14.1,57.6L49.9,307.5z"/>
	</g>
</g>
</svg>
