<?xml version="1.0" encoding="utf-8"?>
<!-- Generator: Adobe Illustrator 15.0.0, SVG Export Plug-In . SVG Version: 6.00 Build 0)  -->
<!DOCTYPE svg PUBLIC "-//W3C//DTD SVG 1.1//EN" "http://www.w3.org/Graphics/SVG/1.1/DTD/svg11.dtd">
<svg version="1.1" id="Your_Icon" xmlns="http://www.w3.org/2000/svg" xmlns:xlink="http://www.w3.org/1999/xlink" x="0px" y="0px"
	 width="70.5px" height="49.25px" viewBox="15.75 6.5 70.5 49.25" enable-background="new 15.75 6.5 70.5 49.25"
	 xml:space="preserve">
<polygon points="71.297,17.771 77.963,17.771 74.63,21.938 "/>
<g>
	<polygon points="59.63,53.188 26.296,53.188 26.296,44.854 29.63,44.854 29.63,49.855 59.63,49.855 	"/>
</g>
<polygon points="31.296,44.854 24.63,44.854 27.963,40.688 "/>
<path d="M28.38,20.271c2.991,0,5.417-2.425,5.417-5.416c0-2.992-2.425-5.417-5.417-5.417c-2.992,0-5.417,2.424-5.417,5.417
	C22.963,17.845,25.388,20.271,28.38,20.271"/>
<path d="M24.63,21.938c0,0-6.667,0-6.667,6.667v8.333h20.833v-8.333c0,0,0-6.667-6.667-6.667H24.63z"/>
<polygon points="76.297,17.771 72.963,17.771 72.963,12.771 42.963,12.771 42.963,9.437 76.297,9.437 "/>
<path d="M74.213,36.521c2.992,0,5.417-2.425,5.417-5.416c0-2.992-2.425-5.417-5.417-5.417c-2.99,0-5.416,2.425-5.416,5.417
	C68.797,34.096,71.222,36.521,74.213,36.521"/>
<path d="M70.463,38.188c0,0-6.666,0-6.666,6.667v8.333H84.63v-8.333c0,0,0-6.667-6.667-6.667H70.463z"/>
<text transform="matrix(1 0 0 1 14.2593 84.4443)" font-family="'HelveticaNeue-Bold'" font-size="3.7037">Created by Baruch Moskovits</text>
<text transform="matrix(1 0 0 1 14.2593 88.1475)" font-family="'HelveticaNeue-Bold'" font-size="3.7037">from the Noun Project</text>
</svg>
