<?xml version="1.0" encoding="utf-8"?>
<!-- Generator: Adobe Illustrator 15.0.0, SVG Export Plug-In . SVG Version: 6.00 Build 0)  -->
<!DOCTYPE svg PUBLIC "-//W3C//DTD SVG 1.1//EN" "http://www.w3.org/Graphics/SVG/1.1/DTD/svg11.dtd">
<svg version="1.1" id="Layer_1" xmlns="http://www.w3.org/2000/svg" xmlns:xlink="http://www.w3.org/1999/xlink" x="0px" y="0px"
	 width="1000px" height="318px" viewBox="0 0 1000 318" enable-background="new 0 0 1000 318" xml:space="preserve">
<g>
	<path fill-rule="evenodd" clip-rule="evenodd" fill="#FFFFFF" d="M109.3,306.3c-0.2-0.6-0.3-1.5-0.3-2.1l2-67.4
		c0-0.6,0.5-1.2,1.1-1.2l5.2-0.7c0.6-0.1,1.6-0.2,2.2-0.3l34.2-4.4c0.6-0.1,1.6-0.1,2.2-0.1h5.9c0.6,0,1.2,0.5,1.4,1l1.4,4.7
		c0.2,0.6,0.8,1,1.4,1h5.6c0.6,0,1.1-0.5,1.1-1.1l-0.2-127.2c0-0.6,0.1-1.6,0.3-2.1l2.2-8.3c0.2-0.6,0.8-1.1,1.4-1.1l47.5-1.5
		c0.6,0,1.6,0.1,2.1,0.3l12.9,4c0.6,0.2,1.2,0.8,1.5,1.3l2.2,5.4c0.2,0.6,0.4,1.5,0.4,2.1v57.3c0,0.6,0.4,1.4,0.9,1.7l3,1.9
		c0.5,0.3,1.4,0.6,2,0.6h25.4c0.6,0,1.2,0.5,1.3,1.1l0.5,2.2c0.1,0.6,0.7,1.2,1.3,1.4l6.4,1.7c0.6,0.2,1,0.8,1,1.4l-0.7,73.5
		c0,0.6,0.5,1,1.1,1l28.3-2.6c0.6-0.1,1.1-0.6,1.1-1.2l3.4-79.4c0-0.6,0.5-1.1,1.1-1.1l28,0c0.6,0,1.1-0.5,1.2-1.1l0.3-2.4
		c0.1-0.6,0.6-1.1,1.2-1.1l37.2-1.9c0.6,0,1.6,0.1,2.2,0.2l9.3,2.2c0.6,0.1,1.1-0.2,1.1-0.8l0.9-30c0-0.6,0.5-1.1,1.1-1.1h1.6
		c0.6,0,1.1-0.5,1.2-1.1l1.4-23.4c0-0.6,0.6-1.2,1.1-1.2l9.1-1.2c0.6-0.1,1.1-0.6,1.1-1.2V90.5c0-0.6,0.5-1.2,1.1-1.2l19.6-2.7
		c0.6-0.1,1.5,0,2.1,0.3l19.2,7.8c0.6,0.2,1.5,0.5,2.1,0.6l7,1c0.6,0.1,1.1,0.6,1,1.2l-0.7,13.2c0,0.6,0.4,1.3,0.9,1.7l9.6,5.8
		c0.5,0.3,0.9,1.1,1,1.7l0.7,37.7c0,0.6,0.5,1,1.1,1l4-0.5c0.6-0.1,1.1-0.6,1.1-1.2v-3.1c0-0.6,0.4-1.4,0.9-1.8l1.6-1.2
		c0.5-0.4,0.9-1.2,0.9-1.8L489.9,84c0-0.6,0.5-1,1-0.8l5,1.3c0.6,0.2,1.1-0.2,1.1-0.8l1-72.3c0-0.6,0.3-1.5,0.7-2l1.6-2.1
		c0.4-0.5,1.2-0.9,1.8-0.9l5.7-0.4c0.6,0,1.6-0.2,2.2-0.3l8.2-1.6c0.6-0.1,1.6-0.1,2.2-0.1l14,2c0.6,0.1,1.5,0.4,2.1,0.6l5.7,2.8
		c0.5,0.3,1,1,1,1.6l1.5,71.6c0,0.6,0.5,1.2,1.1,1.4l2.8,0.9c0.6,0.2,1.1,0.8,1.2,1.4l3.3,23.5c0.1,0.6,0.6,1.4,1.1,1.7l1.8,1.2
		c0.5,0.3,0.9,1.1,0.9,1.7l-0.5,35.7c0,0.6,0.5,1,1,0.8l1.9-0.6c0.6-0.2,1.1,0.2,1.1,0.8l0.9,13.9c0,0.6,0.6,1.1,1.2,1.1l22.1,0.1
		c0.6,0,1.6,0.2,2.1,0.4l9.9,3.7c0.6,0.2,1,0.9,1.1,1.5l1.7,40.4c0,0.6,0.5,1.1,1.1,1.1l49.8-1c0.6,0,1.3,0.4,1.5,1l2.7,6.2
		c0.2,0.6,0.9,1,1.5,1h4.7c0.6,0,1.1-0.5,1.1-1.1l0-151.1c0-0.6,0.5-1.2,1-1.4l5.7-1.7c0.6-0.2,1.1-0.8,1.1-1.4l0.6-7.2
		c0-0.6,0.5-1.4,0.9-1.8l2-1.6c0.5-0.4,1-1.2,1.1-1.8l2.3-9.8c0.1-0.6,0.7-1.1,1.3-1.1l51.9-2.5c0.6,0,1.5,0.2,2,0.5l8.8,5.7
		c0.5,0.3,0.9,1.1,0.9,1.7l-0.5,62.8c0,0.6,0.5,1.1,1.1,1.1l20,0.3c0.6,0,1.5,0.3,2,0.6l9.6,5.6c0.5,0.3,1,1,1,1.6l2.5,126
		c0,0.6,0.5,1.1,1.1,1.1l16.9,0.7c0.6,0,1.6,0,2.2,0h4.4c0.6,0,1.1-0.5,1.1-1.1l-3.2-139.9c0-0.6,0.5-1.1,1.1-1.2l24.9-2.1
		c0.6-0.1,1.1-0.6,1.1-1.2l1.5-41.5c0-0.6,0.5-1.1,1.1-1.1l112-0.7c0.6,0,1.6,0.1,2.1,0.3l7.1,2c0.6,0.2,1.1,0.8,1.1,1.4l5.1,190.1
		c0,0.6,0.5,1.1,1.1,1.1l34.7-0.7c0.6,0,1.1,0.5,1.1,1.1l2.2,228.1c0,0.6-0.5,1.1-1.1,1.1L4.1,485.4c-0.6,0-1.1-0.5-1.1-1.1
		l6.5-222.2c0-0.6,0.5-1.2,1.1-1.2l3.5-0.5c0.6-0.1,1.1-0.6,1-1.2l-1.3-32.9c0-0.6,0.3-1.5,0.6-1.9l0.9-1.1c0.4-0.5,0.7-1.3,0.7-1.9
		l-0.4-23.3c0-0.6,0.2-1.5,0.4-2.1l2.2-5.5c0.2-0.6,0.9-1,1.5-1.1l33.6-2.1c0.6,0,1.5,0.2,2,0.5l1.2,0.8c0.5,0.3,1.4,0.7,2,0.8
		l2.7,0.4c0.6,0.1,1.1,0.7,1.1,1.3l1.6,32.9c0,0.6,0.1,1.6,0.1,2.2l1.6,19c0,0.6,0.6,1.1,1.2,1.2l17.8,1.4c0.6,0,1.2,0.6,1.3,1.1
		l0.6,2.5c0.1,0.6,0.7,1.2,1.3,1.3l11.5,2.4c0.6,0.1,1.1,0.7,1,1.3l-1.6,54.4c0,0.6,0.5,1.1,1.1,1.1h4.7c0.6,0,1.5-0.2,2.1-0.5
		l2.9-1.5c0.5-0.3,0.8-1,0.6-1.5L109.3,306.3z"/>
	<path fill="none" stroke="#333333" stroke-width="3.3607" stroke-miterlimit="10" d="M109.3,306.3c-0.2-0.6-0.3-1.5-0.3-2.1l2-67.4
		c0-0.6,0.5-1.2,1.1-1.2l5.2-0.7c0.6-0.1,1.6-0.2,2.2-0.3l34.2-4.4c0.6-0.1,1.6-0.1,2.2-0.1h5.9c0.6,0,1.2,0.5,1.4,1l1.4,4.7
		c0.2,0.6,0.8,1,1.4,1h5.6c0.6,0,1.1-0.5,1.1-1.1l-0.2-127.2c0-0.6,0.1-1.6,0.3-2.1l2.2-8.3c0.2-0.6,0.8-1.1,1.4-1.1l47.5-1.5
		c0.6,0,1.6,0.1,2.1,0.3l12.9,4c0.6,0.2,1.2,0.8,1.5,1.3l2.2,5.4c0.2,0.6,0.4,1.5,0.4,2.1v57.3c0,0.6,0.4,1.4,0.9,1.7l3,1.9
		c0.5,0.3,1.4,0.6,2,0.6h25.4c0.6,0,1.2,0.5,1.3,1.1l0.5,2.2c0.1,0.6,0.7,1.2,1.3,1.4l6.4,1.7c0.6,0.2,1,0.8,1,1.4l-0.7,73.5
		c0,0.6,0.5,1,1.1,1l28.3-2.6c0.6-0.1,1.1-0.6,1.1-1.2l3.4-79.4c0-0.6,0.5-1.1,1.1-1.1l28,0c0.6,0,1.1-0.5,1.2-1.1l0.3-2.4
		c0.1-0.6,0.6-1.1,1.2-1.1l37.2-1.9c0.6,0,1.6,0.1,2.2,0.2l9.3,2.2c0.6,0.1,1.1-0.2,1.1-0.8l0.9-30c0-0.6,0.5-1.1,1.1-1.1h1.6
		c0.6,0,1.1-0.5,1.2-1.1l1.4-23.4c0-0.6,0.6-1.2,1.1-1.2l9.1-1.2c0.6-0.1,1.1-0.6,1.1-1.2V90.5c0-0.6,0.5-1.2,1.1-1.2l19.6-2.7
		c0.6-0.1,1.5,0,2.1,0.3l19.2,7.8c0.6,0.2,1.5,0.5,2.1,0.6l7,1c0.6,0.1,1.1,0.6,1,1.2l-0.7,13.2c0,0.6,0.4,1.3,0.9,1.7l9.6,5.8
		c0.5,0.3,0.9,1.1,1,1.7l0.7,37.7c0,0.6,0.5,1,1.1,1l4-0.5c0.6-0.1,1.1-0.6,1.1-1.2v-3.1c0-0.6,0.4-1.4,0.9-1.8l1.6-1.2
		c0.5-0.4,0.9-1.2,0.9-1.8L489.9,84c0-0.6,0.5-1,1-0.8l5,1.3c0.6,0.2,1.1-0.2,1.1-0.8l1-72.3c0-0.6,0.3-1.5,0.7-2l1.6-2.1
		c0.4-0.5,1.2-0.9,1.8-0.9l5.7-0.4c0.6,0,1.6-0.2,2.2-0.3l8.2-1.6c0.6-0.1,1.6-0.1,2.2-0.1l14,2c0.6,0.1,1.5,0.4,2.1,0.6l5.7,2.8
		c0.5,0.3,1,1,1,1.6l1.5,71.6c0,0.6,0.5,1.2,1.1,1.4l2.8,0.9c0.6,0.2,1.1,0.8,1.2,1.4l3.3,23.5c0.1,0.6,0.6,1.4,1.1,1.7l1.8,1.2
		c0.5,0.3,0.9,1.1,0.9,1.7l-0.5,35.7c0,0.6,0.5,1,1,0.8l1.9-0.6c0.6-0.2,1.1,0.2,1.1,0.8l0.9,13.9c0,0.6,0.6,1.1,1.2,1.1l22.1,0.1
		c0.6,0,1.6,0.2,2.1,0.4l9.9,3.7c0.6,0.2,1,0.9,1.1,1.5l1.7,40.4c0,0.6,0.5,1.1,1.1,1.1l49.8-1c0.6,0,1.3,0.4,1.5,1l2.7,6.2
		c0.2,0.6,0.9,1,1.5,1h4.7c0.6,0,1.1-0.5,1.1-1.1l0-151.1c0-0.6,0.5-1.2,1-1.4l5.7-1.7c0.6-0.2,1.1-0.8,1.1-1.4l0.6-7.2
		c0-0.6,0.5-1.4,0.9-1.8l2-1.6c0.5-0.4,1-1.2,1.1-1.8l2.3-9.8c0.1-0.6,0.7-1.1,1.3-1.1l51.9-2.5c0.6,0,1.5,0.2,2,0.5l8.8,5.7
		c0.5,0.3,0.9,1.1,0.9,1.7l-0.5,62.8c0,0.6,0.5,1.1,1.1,1.1l20,0.3c0.6,0,1.5,0.3,2,0.6l9.6,5.6c0.5,0.3,1,1,1,1.6l2.5,126
		c0,0.6,0.5,1.1,1.1,1.1l16.9,0.7c0.6,0,1.6,0,2.2,0h4.4c0.6,0,1.1-0.5,1.1-1.1l-3.2-139.9c0-0.6,0.5-1.1,1.1-1.2l24.9-2.1
		c0.6-0.1,1.1-0.6,1.1-1.2l1.5-41.5c0-0.6,0.5-1.1,1.1-1.1l112-0.7c0.6,0,1.6,0.1,2.1,0.3l7.1,2c0.6,0.2,1.1,0.8,1.1,1.4l5.1,190.1
		c0,0.6,0.5,1.1,1.1,1.1l34.7-0.7c0.6,0,1.1,0.5,1.1,1.1l2.2,228.1c0,0.6-0.5,1.1-1.1,1.1L4.1,485.4c-0.6,0-1.1-0.5-1.1-1.1
		l6.5-222.2c0-0.6,0.5-1.2,1.1-1.2l3.5-0.5c0.6-0.1,1.1-0.6,1-1.2l-1.3-32.9c0-0.6,0.3-1.5,0.6-1.9l0.9-1.1c0.4-0.5,0.7-1.3,0.7-1.9
		l-0.4-23.3c0-0.6,0.2-1.5,0.4-2.1l2.2-5.5c0.2-0.6,0.9-1,1.5-1.1l33.6-2.1c0.6,0,1.5,0.2,2,0.5l1.2,0.8c0.5,0.3,1.4,0.7,2,0.8
		l2.7,0.4c0.6,0.1,1.1,0.7,1.1,1.3l1.6,32.9c0,0.6,0.1,1.6,0.1,2.2l1.6,19c0,0.6,0.6,1.1,1.2,1.2l17.8,1.4c0.6,0,1.2,0.6,1.3,1.1
		l0.6,2.5c0.1,0.6,0.7,1.2,1.3,1.3l11.5,2.4c0.6,0.1,1.1,0.7,1,1.3l-1.6,54.4c0,0.6,0.5,1.1,1.1,1.1h4.7c0.6,0,1.5-0.2,2.1-0.5
		l2.9-1.5c0.5-0.3,0.8-1,0.6-1.5L109.3,306.3z"/>
</g>
</svg>
