<?xml version="1.0" standalone="no"?>
<!DOCTYPE svg PUBLIC "-//W3C//DTD SVG 1.1//EN" "http://www.w3.org/Graphics/SVG/1.1/DTD/svg11.dtd" >
<svg>
<metadata>
Created by FontForge 20110222 at Thu Dec  4 05:23:46 2014
 By deploy user
Copyright The Monotype Corporation. All rights reserved.
</metadata>
<defs>
<font id="CenturyGothicProCyr-Regular" horiz-adv-x="332" >
  <font-face 
    font-family="Century Gothic Pro Cyr"
    font-weight="400"
    font-stretch="normal"
    units-per-em="1000"
    panose-1="2 11 5 2 2 2 2 2 2 4"
    ascent="736"
    descent="-264"
    x-height="531"
    cap-height="718"
    bbox="-170 -230 1153 970"
    underline-thickness="50"
    underline-position="-50"
    unicode-range="U+0020-FB04"
  />
<missing-glyph horiz-adv-x="500" 
d="M12 0v665h475v-665h-475zM88 618l162 -243l161 243h-323zM60 575v-484l40 61l80 120l41 61zM440 575l-162 -242l162 -243v485zM411 48l-161 242l-162 -242h323z" />
    <glyph glyph-name="f_f" unicode="ff" horiz-adv-x="571" 
d="M347 473h-170v-473h-69v473h-69v58h69v24q0 77 16 110q41 85 143 85q62 0 102 -35q33 35 94 35q37 0 88 -14v-67q-42 17 -73 17q-36 0 -49 -17.5t-13 -65.5v-72h111v-58h-111v-473h-69v473zM177 555v-24h170v86q-12 68 -81 68q-34 0 -53 -15q-19 -14 -28 -36
q-8 -22 -8 -79z" />
    <glyph glyph-name="fi" unicode="fi" horiz-adv-x="487" 
d="M109 531v35q0 91 42 138t118 47q65 0 105.5 -37.5t44.5 -96.5h-69q-14 68 -82 68q-48 0 -67.5 -30t-19.5 -89v-35h109v-60h-109v-471h-72v471h-68v60h68zM351 0v531h68v-531h-68z" />
    <glyph glyph-name="fl" unicode="fl" horiz-adv-x="483" 
d="M179 531h109v-60h-109v-471h-72v471h-69v60h69v35q0 38 7 70q13 53 53 83.5t96 30.5q90 0 133 -74q21 -37 21 -121v-555h-72v557q0 29 -2.5 49.5t-10.5 40.5t-25.5 30.5t-44.5 10.5q-83 0 -83 -123v-34z" />
    <glyph glyph-name="f_f_i" unicode="ffi" horiz-adv-x="727" 
d="M350 471h-170v-471h-70v471h-69v60h69v24q0 75 17 111q40 84 142 84q75 0 119 -51q44 51 120 51q66 0 107 -38.5t44 -94.5h-70q-14 68 -81 68q-29 0 -51 -14q-21 -13 -29.5 -36.5t-8.5 -79.5v-24h110v-60h-110v-471h-69v471zM180 555v-24h170v24q0 19 2 51q-12 79 -84 79
q-34 0 -53 -15q-20 -15 -27 -37q-8 -22 -8 -78zM589 0v531h70v-531h-70z" />
    <glyph glyph-name="f_f_l" unicode="ffl" horiz-adv-x="720" 
d="M347 471h-170v-471h-70v471h-69v60h69v24q0 78 16 111q41 84 143 84q74 0 118 -50q45 50 117 50q54 0 92 -29q39 -29 49 -63q12 -34 12 -117v-541h-70v544q0 60 -6 84q-5 26 -26 42.5t-51 16.5q-29 0 -51 -17q-20 -16 -27 -39q-6 -23 -6 -82v-18h109v-60h-109v-471h-70
v471zM177 555v-24h170v18q0 42 1 57q-9 79 -83 79q-33 0 -53 -15t-27 -37q-8 -22 -8 -78z" />
    <glyph glyph-name=".notdef" horiz-adv-x="500" 
d="M12 0v665h475v-665h-475zM88 618l162 -243l161 243h-323zM60 575v-484l40 61l80 120l41 61zM440 575l-162 -242l162 -243v485zM411 48l-161 242l-162 -242h323z" />
    <glyph glyph-name=".null" horiz-adv-x="0" 
 />
    <glyph glyph-name="nonmarkingreturn" horiz-adv-x="333" 
 />
    <glyph glyph-name="space" unicode=" " horiz-adv-x="277" 
 />
    <glyph glyph-name="exclam" unicode="!" horiz-adv-x="295" 
d="M112 736h69v-556h-69v556zM147 108q24 0 42 -18t18 -43t-17.5 -43t-42.5 -18t-42.5 18t-17.5 43t17.5 43t42.5 18z" />
    <glyph glyph-name="quotedbl" unicode="&#x22;" horiz-adv-x="309" 
d="M286 736l-11 -226h-50l-11 226h72zM96 736l-11 -226h-50l-11 226h72z" />
    <glyph glyph-name="numbersign" unicode="#" horiz-adv-x="720" 
d="M490 294h112v-53h-121l-35 -241h-54l35 241h-163l-37 -241h-54l37 241h-120v53h128l25 163h-123v53h131l34 229h53l-34 -229h163l33 229h54l-33 -229h109v-53h-117zM434 294l25 163h-163l-24 -163h162z" />
    <glyph glyph-name="dollar" unicode="$" horiz-adv-x="554" 
d="M259 718v50h64v-53q90 -16 147 -97l-53 -43q-38 58 -94 70v-243q53 -28 80 -45t59.5 -45t46.5 -61.5t14 -76.5q0 -72 -51 -125.5t-149 -66.5v-153h-64v153q-153 13 -224 129l52 39q67 -89 172 -100v302q-49 24 -69.5 35.5t-52 36t-44 54t-12.5 68.5q0 65 46 114t132 58z
M259 428v222q-53 -4 -80.5 -32.5t-27.5 -69.5q0 -70 108 -120zM323 326v-274q58 8 94 41.5t36 78.5q0 48 -32.5 83.5t-97.5 70.5z" />
    <glyph glyph-name="percent" unicode="%" horiz-adv-x="775" 
d="M617 750h58l-523 -800h-65l476 729q-88 -21 -213 -21q-2 0 -9.5 0.5t-9.5 0.5q30 -41 30 -92q0 -66 -48 -117.5t-123 -51.5q-72 0 -119.5 49.5t-47.5 118.5q0 74 51 122t117 48q9 0 70 -11t127 -11q100 0 229 36zM192 674q-44 0 -75.5 -31.5t-31.5 -75.5q0 -50 32 -78.5
t75 -28.5q44 0 75.5 28.5t31.5 78.5q0 41 -33.5 74t-73.5 33zM415 148q0 80 50.5 124.5t118.5 44.5q69 0 119 -44.5t50 -124.5q0 -64 -52.5 -116.5t-116.5 -52.5q-70 0 -119.5 49.5t-49.5 119.5zM691 148q0 47 -36 77t-82 30q-40 0 -68 -27t-28 -80q0 -44 31.5 -75t75.5 -31
t75.5 31t31.5 75z" />
    <glyph glyph-name="ampersand" unicode="&#x26;" horiz-adv-x="757" 
d="M539 96q-77 -58 -134.5 -85.5t-132.5 -27.5q-86 0 -134.5 48t-48.5 118q0 66 42 120t130 124q-49 59 -70.5 95t-21.5 74q0 56 46 92.5t113 36.5q69 0 113 -37t44 -93q0 -43 -30.5 -85.5t-93.5 -95.5q75 -80 184 -189q65 55 87 75l48 -52q-58 -51 -84 -72q14 -15 63 -64.5
t73 -77.5h-100q-29 31 -60 62.5t-33 33.5zM308 338q-77 -58 -113 -99.5t-36 -85.5q0 -40 34 -72t86 -32q46 0 94.5 24t117.5 73q-140 143 -183 192zM317 434q98 77 98 128q0 26 -25.5 44.5t-63.5 18.5q-34 0 -60.5 -17.5t-26.5 -46.5q0 -40 78 -127z" />
    <glyph glyph-name="quotesingle" unicode="'" horiz-adv-x="198" 
d="M135 736l-11 -226h-50l-11 226h72z" />
    <glyph glyph-name="parenleft" unicode="(" horiz-adv-x="369" 
d="M284 -208h-75q-80 189 -80 451q0 280 100 507h79q-104 -211 -104 -499q0 -269 80 -459z" />
    <glyph glyph-name="parenright" unicode=")" horiz-adv-x="369" 
d="M84 750h75q78 -187 78 -450q0 -282 -98 -508h-79q107 217 107 499q0 262 -83 459z" />
    <glyph glyph-name="asterisk" unicode="*" horiz-adv-x="425" 
d="M196 591l-16 145h64l-14 -145l120 86l32 -54l-135 -61l135 -60l-32 -56l-120 85l14 -145h-64l16 145l-121 -85l-32 56l137 60l-137 61l32 54z" />
    <glyph glyph-name="plus" unicode="+" horiz-adv-x="606" 
d="M56 393h214v212h68v-212h212v-67h-212v-212h-68v212h-214v67z" />
    <glyph glyph-name="comma" unicode="," horiz-adv-x="277" 
d="M63 -64l82 196l65 -31l-99 -185z" />
    <glyph glyph-name="hyphen" unicode="-" 
d="M32 240v60h269v-60h-269z" />
    <glyph glyph-name="period" unicode="." horiz-adv-x="277" 
d="M151 108q24 0 42 -18t18 -43t-17.5 -43t-42.5 -18t-42.5 18t-17.5 43t17.5 43t42.5 18z" />
    <glyph glyph-name="slash" unicode="/" horiz-adv-x="437" 
d="M333 736h75l-298 -834h-75z" />
    <glyph glyph-name="zero" unicode="0" horiz-adv-x="554" 
d="M31 360q0 91 12 151q21 107 82.5 166t149.5 59q68 0 124 -39.5t87 -112.5q36 -82 36 -224q0 -140 -36 -225q-31 -73 -87 -113t-124 -40q-123 0 -190 111q-54 89 -54 267zM101 359q0 -162 41 -230q23 -38 58.5 -59.5t75.5 -21.5q81 0 130 79t49 232t-48.5 232t-130.5 79
q-40 0 -75.5 -22t-58.5 -61q-41 -68 -41 -228z" />
    <glyph glyph-name="one" unicode="1" horiz-adv-x="554" 
d="M255 648h-113l43 70h142v-718h-72v648z" />
    <glyph glyph-name="two" unicode="2" horiz-adv-x="554" 
d="M30 0l275 296q74 80 103.5 125.5t29.5 98.5q0 62 -45 106t-110 44q-69 0 -114.5 -47.5t-52.5 -129.5h-69q3 105 71 174t168 69q96 0 159 -62.5t63 -153.5q0 -67 -33.5 -121.5t-109.5 -136.5l-179 -192h332v-70h-488z" />
    <glyph glyph-name="three" unicode="3" horiz-adv-x="554" 
d="M401 551q0 47 -37 81t-94 34q-51 0 -83.5 -28t-54.5 -86h-73q20 90 76 137t134 47q87 0 147 -54t60 -131q0 -93 -92 -147q62 -26 96.5 -77.5t34.5 -112.5q0 -94 -68 -163t-176 -69q-94 0 -155.5 53.5t-80.5 156.5h71q19 -70 58.5 -105t107.5 -35q76 0 124.5 46.5
t48.5 110.5q0 40 -21.5 74.5t-58.5 54.5q-43 23 -130 27v66q83 5 124.5 37t41.5 83z" />
    <glyph glyph-name="four" unicode="4" horiz-adv-x="554" 
d="M26 167l400 569h15v-499h87v-70h-87v-167h-72v167h-343zM158 237h211v298z" />
    <glyph glyph-name="five" unicode="5" horiz-adv-x="554" 
d="M181 718h311v-70h-256l-35 -194q47 13 84 13q100 0 163.5 -66.5t63.5 -166.5q0 -107 -69 -179t-183 -72q-90 0 -148.5 53.5t-70.5 137.5h74q13 -62 55 -93.5t95 -31.5q71 0 121.5 53.5t50.5 134.5q0 73 -46 118.5t-123 45.5q-59 0 -153 -39z" />
    <glyph glyph-name="six" unicode="6" horiz-adv-x="554" 
d="M149 411l219 325l58 -38l-193 -294q37 13 73 13q88 0 146 -62.5t58 -151.5q0 -98 -66 -159.5t-158 -61.5q-95 0 -156.5 64.5t-61.5 152.5q0 91 81 212zM289 354q-62 0 -106.5 -44.5t-44.5 -106.5t44.5 -106.5t106.5 -44.5t106.5 44.5t44.5 106.5t-44 106.5t-107 44.5z
" />
    <glyph glyph-name="seven" unicode="7" horiz-adv-x="554" 
d="M72 648v70h455l-384 -736l-59 30l332 636h-344z" />
    <glyph glyph-name="eight" unicode="8" horiz-adv-x="554" 
d="M67 549q0 76 62 131.5t152 55.5q87 0 146 -56t59 -133q0 -98 -101 -153q135 -68 135 -188q0 -92 -64.5 -157.5t-179.5 -65.5q-112 0 -176.5 64t-64.5 153q0 124 139 194q-107 55 -107 155zM278 666q-58 0 -97 -34.5t-39 -83.5q0 -50 42 -87t96 -37q58 0 97 39t39 87
q0 45 -37 80.5t-101 35.5zM281 358q-75 0 -125.5 -48.5t-50.5 -111.5q0 -62 47 -105.5t125 -43.5q77 0 125 46t48 110q0 59 -49 106t-120 47z" />
    <glyph glyph-name="nine" unicode="9" horiz-adv-x="554" 
d="M410 307l-218 -325l-59 38l194 294q-43 -13 -74 -13q-88 0 -145.5 62.5t-57.5 151.5q0 97 65.5 159t157.5 62q95 0 156.5 -64.5t61.5 -152.5q0 -91 -81 -212zM270 364q62 0 106.5 44.5t44.5 106.5t-44 106.5t-107 44.5q-62 0 -106 -44t-44 -107q0 -62 44 -106.5
t106 -44.5z" />
    <glyph glyph-name="colon" unicode=":" horiz-adv-x="277" 
d="M151 108q24 0 42 -18t18 -43t-17.5 -43t-42.5 -18t-42.5 18t-17.5 43t17.5 43t42.5 18zM151 545q24 0 42 -18t18 -43t-17.5 -43t-42.5 -18t-42.5 18t-17.5 43t17.5 43t42.5 18z" />
    <glyph glyph-name="semicolon" unicode=";" horiz-adv-x="277" 
d="M152 545q25 0 42.5 -18t17.5 -43t-17.5 -43t-42.5 -18t-42.5 18t-17.5 43t17.5 43t42.5 18zM63 -64l82 196l65 -31l-99 -185z" />
    <glyph glyph-name="less" unicode="&#x3c;" horiz-adv-x="606" 
d="M146 358l409 -188v-72l-504 229v64l504 230v-72z" />
    <glyph glyph-name="equal" unicode="=" horiz-adv-x="606" 
d="M56 500h494v-67h-494v67zM56 285h494v-67h-494v67z" />
    <glyph glyph-name="greater" unicode="&#x3e;" horiz-adv-x="606" 
d="M51 98v72l410 188l-410 191v72l504 -230v-64z" />
    <glyph glyph-name="question" unicode="?" horiz-adv-x="591" 
d="M405 327h72q-4 -83 -51.5 -127.5t-125.5 -44.5t-126 40.5t-48 101.5q0 88 108 131q14 6 39 16q93 37 125.5 59.5t32.5 63.5q0 45 -38 74t-95 29q-65 0 -103.5 -37.5t-40.5 -109.5h-71q1 100 59.5 156.5t154.5 56.5q95 0 149.5 -48t54.5 -120q0 -25 -6 -46t-22 -38.5
t-29.5 -29t-43.5 -26.5t-48 -22.5t-58 -23.5l-15 -6q-40 -16 -59 -34.5t-19 -44.5q0 -29 27 -50.5t72 -21.5q51 0 75.5 25t29.5 77zM297 108q24 0 42 -18t18 -43t-17.5 -43t-42.5 -18t-42.5 18t-17.5 43t17.5 43t42.5 18z" />
    <glyph glyph-name="at" unicode="@" horiz-adv-x="867" 
d="M431 560q48 0 76.5 -18t51.5 -54l13 67h52l-56 -319q-3 -12 -3 -20q0 -24 26 -24q17 0 44 15t56.5 41.5t50 74.5t20.5 104q0 121 -90.5 201.5t-225.5 80.5q-148 0 -244.5 -98.5t-96.5 -237.5q0 -147 99.5 -245t249.5 -98q81 0 137.5 30t113.5 87h52q-63 -79 -130 -119.5
t-172 -40.5q-163 0 -275.5 109.5t-112.5 267.5q0 165 109.5 276.5t272.5 111.5q143 0 247 -91.5t104 -222.5q0 -57 -18.5 -106.5t-47 -82t-63 -56t-66 -34t-57.5 -10.5q-55 0 -57 54q-39 -49 -106 -49q-69 0 -115.5 48.5t-46.5 128.5q0 92 58 160.5t150 68.5zM409 209
q58 0 92.5 55t34.5 133q0 47 -26 79t-72 32q-63 0 -104 -50.5t-41 -117.5q0 -59 32 -95t84 -36z" />
    <glyph glyph-name="A" unicode="A" horiz-adv-x="740" 
d="M364 718h17l335 -718h-77l-113 236h-310l-112 -236h-80zM494 306l-122 260l-124 -260h246z" />
    <glyph glyph-name="B" unicode="B" horiz-adv-x="574" 
d="M286 0h-197v718h152q109 0 164.5 -48t55.5 -127q0 -101 -92 -151q151 -51 151 -186q0 -85 -63 -145.5t-171 -60.5zM161 648v-231h48q85 0 126 27q51 33 51 99q0 48 -34.5 76.5t-96.5 28.5h-94zM161 347v-277h87q2 0 86 7q39 3 75 40t36 88q0 35 -18.5 66t-51.5 49
q-49 27 -165 27h-49z" />
    <glyph glyph-name="C" unicode="C" horiz-adv-x="813" 
d="M756 585l-57 -43q-94 124 -256 124q-130 0 -221.5 -87t-91.5 -222q0 -133 90.5 -220.5t226.5 -87.5q150 0 252 119l57 -43q-113 -142 -314 -142q-176 0 -281.5 108.5t-105.5 271.5q0 160 110 266.5t277 106.5q206 0 314 -151z" />
    <glyph glyph-name="D" unicode="D" horiz-adv-x="744" 
d="M87 0v718h177q142 0 223 -33q97 -39 151.5 -127.5t54.5 -206.5q0 -158 -93 -254.5t-262 -96.5h-251zM159 70h106q113 0 179 17.5t111 72.5q63 77 63 190q0 112 -60 190q-48 63 -124 85.5t-202 22.5h-73v-578z" />
    <glyph glyph-name="E" unicode="E" horiz-adv-x="536" 
d="M88 0v718h410v-70h-338v-225h338v-70h-338v-283h338v-70h-410z" />
    <glyph glyph-name="F" unicode="F" horiz-adv-x="485" 
d="M87 0v718h360v-70h-288v-225h288v-70h-288v-353h-72z" />
    <glyph glyph-name="G" unicode="G" horiz-adv-x="872" 
d="M513 345h310q-1 -169 -99.5 -265.5t-261.5 -96.5q-181 0 -293 111t-112 265q0 156 110.5 266.5t283.5 110.5q182 0 329 -139l-55 -52q-124 121 -272 121q-131 0 -226 -88.5t-95 -216.5q0 -127 95 -219.5t237 -92.5q106 0 184.5 60.5t93.5 165.5h-229v70z" />
    <glyph glyph-name="H" unicode="H" horiz-adv-x="683" 
d="M87 0v718h72v-301h366v301h72v-718h-72v347h-366v-347h-72z" />
    <glyph glyph-name="I" unicode="I" horiz-adv-x="226" 
d="M77 0v718h72v-718h-72z" />
    <glyph glyph-name="J" unicode="J" horiz-adv-x="482" 
d="M42 58l38 57q92 -66 141 -66q47 0 75 38q26 35 26 123v508h72v-510q0 -125 -45 -175t-128 -50q-89 0 -179 75z" />
    <glyph glyph-name="K" unicode="K" horiz-adv-x="591" 
d="M88 0v718h72v-269l287 269h97l-345 -322l372 -396h-95l-316 335v-335h-72z" />
    <glyph glyph-name="L" unicode="L" horiz-adv-x="463" 
d="M88 0v718h72v-648h276v-70h-348z" />
    <glyph glyph-name="M" unicode="M" horiz-adv-x="919" 
d="M125 0h-70l102 718h12l292 -589l289 589h12l102 -718h-70l-70 514l-254 -514h-18l-258 518z" />
    <glyph glyph-name="N" unicode="N" horiz-adv-x="740" 
d="M161 0h-72v718h15l476 -550v550h72v-718h-16l-475 543v-543z" />
    <glyph glyph-name="O" unicode="O" horiz-adv-x="869" 
d="M429 736q163 0 273.5 -108t110.5 -269q0 -159 -109.5 -268t-268.5 -109q-163 0 -271 110t-108 264q0 160 108.5 270t264.5 110zM433 666q-122 0 -212 -88t-90 -222q0 -130 89 -217t213 -87q128 0 216.5 87.5t88.5 220.5t-91 219.5t-214 86.5z" />
    <glyph glyph-name="P" unicode="P" horiz-adv-x="592" 
d="M87 0v718h166q118 0 166 -18q55 -21 86.5 -67t31.5 -106q0 -50 -22 -91.5t-61 -65.5q-35 -22 -87 -29t-137 -7h-71v-334h-72zM286 648h-127v-244h119q105 0 142 30q42 34 42 93t-45 94q-36 27 -131 27z" />
    <glyph glyph-name="Q" unicode="Q" horiz-adv-x="871" 
d="M708 -57l-73 93q-88 -54 -199 -54q-163 0 -271 110t-108 264q0 159 108 269.5t269 110.5q159 0 269.5 -108t110.5 -269q0 -164 -124 -281l106 -135h-88zM517 297l128 -163q94 91 94 226q0 133 -90.5 219.5t-213.5 86.5t-213 -88.5t-90 -221.5q0 -131 89.5 -217.5
t212.5 -86.5q88 0 156 41l-161 204h88z" />
    <glyph glyph-name="R" unicode="R" horiz-adv-x="607" 
d="M91 0v718h165q119 0 167 -18q56 -21 87 -66.5t31 -106.5q0 -47 -21 -89q-27 -55 -82 -79.5t-146 -24.5l259 -334h-89l-258 334h-41v-334h-72zM310 648h-147v-244q20 0 60 -0.5t59 -0.5q103 0 141 31q43 35 43 93q0 55 -39 88t-117 33z" />
    <glyph glyph-name="S" unicode="S" horiz-adv-x="498" 
d="M421 619l-58 -45q-34 45 -63 66.5t-69 21.5q-44 0 -70.5 -27t-26.5 -64q0 -63 64 -111q124 -92 162 -130q72 -74 72 -155q0 -78 -58 -135.5t-144 -57.5q-72 0 -124 38t-93 114l61 37q65 -119 150 -119q56 0 94.5 35.5t38.5 86.5q0 17 -3.5 31.5t-15.5 31.5t-22 28.5
t-35.5 33.5t-41.5 35.5t-55.5 44.5t-63.5 51q-26 21 -43.5 59.5t-17.5 78.5q0 73 50 120.5t124 47.5q60 0 103.5 -30.5t84.5 -86.5z" />
    <glyph glyph-name="T" unicode="T" horiz-adv-x="426" 
d="M178 648h-162v70h394v-70h-160v-648h-72v648z" />
    <glyph glyph-name="U" unicode="U" horiz-adv-x="655" 
d="M494 262v456h72v-467q0 -126 -63.5 -197.5t-174.5 -71.5t-174.5 71.5t-63.5 197.5v467h72v-456q0 -37 1.5 -56t10 -47t26.5 -50q45 -57 128 -57t128 57q18 22 26.5 50t10 47t1.5 56z" />
    <glyph glyph-name="V" unicode="V" horiz-adv-x="702" 
d="M341 0l-308 718h78l238 -555l242 555h78l-312 -718h-16z" />
    <glyph glyph-name="W" unicode="W" horiz-adv-x="960" 
d="M250 0l-203 718h74l146 -517l206 517h15l203 -517l149 517h73l-206 -718h-14l-212 543l-218 -543h-13z" />
    <glyph glyph-name="X" unicode="X" horiz-adv-x="609" 
d="M263 370l-213 348h84l172 -280l173 280h83l-214 -348l228 -370h-84l-186 301l-188 -301h-84z" />
    <glyph glyph-name="Y" unicode="Y" horiz-adv-x="592" 
d="M262 0v343l-231 375h83l184 -296l181 296h83l-228 -375v-343h-72z" />
    <glyph glyph-name="Z" unicode="Z" horiz-adv-x="480" 
d="M329 648h-270v70h379l-300 -648h285v-70h-396z" />
    <glyph glyph-name="bracketleft" unicode="[" horiz-adv-x="351" 
d="M143 -194v930h163v-70h-95v-794h95v-66h-163z" />
    <glyph glyph-name="backslash" unicode="\" horiz-adv-x="605" 
d="M32 736h75l465 -834h-74z" />
    <glyph glyph-name="bracketright" unicode="]" horiz-adv-x="351" 
d="M209 736v-930h-164v70h96v794h-96v66h164z" />
    <glyph glyph-name="asciicircum" unicode="^" horiz-adv-x="672" 
d="M59 178l249 540h57l249 -540h-64l-215 465l-213 -465h-63z" />
    <glyph glyph-name="underscore" unicode="_" horiz-adv-x="500" 
d="M-6 -124v48h512v-48h-512z" />
    <glyph glyph-name="grave" unicode="`" horiz-adv-x="378" 
d="M54 781h105l107 -151h-68z" />
    <glyph glyph-name="a" unicode="a" horiz-adv-x="683" 
d="M538 434v97h67v-531h-67v91q-86 -104 -214 -104q-115 0 -193.5 82.5t-78.5 197.5q0 114 79.5 196t194.5 82q132 0 212 -111zM332 479q-90 0 -150 -63.5t-60 -150.5q0 -88 60.5 -152t148.5 -64q86 0 149 59.5t63 154.5q0 92 -61 154t-150 62z" />
    <glyph glyph-name="b" unicode="b" horiz-adv-x="682" 
d="M149 98v-98h-68v736h68v-296q87 105 213 105q115 0 194 -82.5t79 -197.5q0 -114 -80 -196.5t-195 -82.5q-129 0 -211 112zM355 52q90 0 150 63.5t60 151.5t-61 152t-149 64q-86 0 -148.5 -59t-62.5 -155q0 -92 60.5 -154.5t150.5 -62.5z" />
    <glyph glyph-name="c" unicode="c" horiz-adv-x="647" 
d="M537 142l55 -35q-79 -120 -249 -120q-128 0 -210 80t-82 194q0 119 84 201.5t213 82.5q78 0 143 -32t101 -92l-55 -34q-70 92 -192 92q-99 0 -161.5 -62.5t-62.5 -150.5q0 -90 62.5 -153.5t162.5 -63.5q116 0 191 93z" />
    <glyph glyph-name="d" unicode="d" horiz-adv-x="685" 
d="M539 0v91q-86 -104 -214 -104q-115 0 -193.5 82.5t-78.5 197.5q0 114 79.5 196t194.5 82q133 0 212 -111v302h68v-736h-68zM333 479q-90 0 -150 -63.5t-60 -150.5q0 -88 60.5 -152t148.5 -64q86 0 148.5 59.5t62.5 154.5q0 92 -60.5 154t-149.5 62z" />
    <glyph glyph-name="e" unicode="e" horiz-adv-x="650" 
d="M599 260h-478q2 -92 58.5 -151.5t141.5 -59.5q75 0 121 34t82 93l57 -30q-81 -159 -253 -159q-126 0 -201.5 82t-75.5 195t76.5 197t196.5 84q116 0 195 -78t80 -207zM128 320h396q-20 79 -73.5 119t-125.5 40q-151 0 -197 -159z" />
    <glyph glyph-name="f" unicode="f" horiz-adv-x="314" 
d="M108 531v83q0 70 23 103.5t85 33.5q31 0 78 -15v-67q-37 16 -64 16q-16 0 -27 -4.5t-16.5 -9.5t-8 -19t-2.5 -21v-28v-72h112v-60h-112v-471h-68v471h-70v60h70z" />
    <glyph glyph-name="g" unicode="g" horiz-adv-x="673" 
d="M603 531v-423q0 -76 -9 -126.5t-39 -91.5q-72 -97 -225 -97q-109 0 -173 41.5t-101 123.5h74q59 -103 196 -103q135 0 185 90q23 43 23 116v40q-80 -101 -213 -101q-112 0 -192 76.5t-80 192.5t82 196t190 80q123 0 213 -106v92h69zM332 479q-90 0 -151.5 -61t-61.5 -153
q0 -84 57 -141.5t158 -57.5q88 0 145.5 56t57.5 148q0 93 -60 151t-145 58z" />
    <glyph glyph-name="h" unicode="h" horiz-adv-x="610" 
d="M76 0v736h68v-300q83 109 199 109q89 0 142.5 -62t53.5 -178v-305h-68v289q0 97 -33 145.5t-108 48.5q-85 0 -140 -72q-28 -36 -37 -77.5t-9 -110.5v-223h-68z" />
    <glyph glyph-name="i" unicode="i" horiz-adv-x="200" 
d="M67 0v531h68v-531h-68zM100 750q23 0 40 -16.5t17 -39.5t-17 -40t-40 -17t-39.5 17t-16.5 40q0 24 16.5 40t39.5 16z" />
    <glyph glyph-name="j" unicode="j" horiz-adv-x="203" 
d="M69 -80v611h68v-611q0 -129 -91 -129q-32 0 -77 17v62q26 -13 49 -13q51 0 51 63zM102 750q23 0 40 -16.5t17 -39.5t-17 -40t-40 -17t-39.5 17t-16.5 40t16.5 39.5t39.5 16.5z" />
    <glyph glyph-name="k" unicode="k" horiz-adv-x="502" 
d="M77 0v736h68v-419l245 214h101l-291 -253l308 -278h-97l-266 239v-239h-68z" />
    <glyph glyph-name="l" unicode="l" horiz-adv-x="200" 
d="M66 0v736h68v-736h-68z" />
    <glyph glyph-name="m" unicode="m" horiz-adv-x="938" 
d="M505 232v-232h-68v272q0 24 -2.5 60.5t-2.5 38.5q-2 45 -35.5 76.5t-84.5 31.5q-76 0 -124 -62q-45 -58 -45 -192v-225h-68v531h68v-91q73 105 182 105q125 0 168 -128q71 128 195 128q84 0 132.5 -59.5t48.5 -170.5v-315h-68v290q0 23 -3 55.5t-3 34.5q-2 38 -35.5 68.5
t-84.5 30.5q-50 0 -90.5 -28.5t-60.5 -79.5q-19 -48 -19 -139z" />
    <glyph glyph-name="n" unicode="n" horiz-adv-x="610" 
d="M144 531v-95q83 109 199 109q90 0 143.5 -63t53.5 -184v-298h-68v289q0 97 -33.5 145.5t-108.5 48.5q-85 0 -140 -72q-28 -37 -37 -78t-9 -110v-223h-68v531h68z" />
    <glyph glyph-name="o" unicode="o" horiz-adv-x="655" 
d="M328 545q118 0 197.5 -82.5t79.5 -198.5q0 -115 -79.5 -196.5t-197.5 -81.5t-197.5 81.5t-79.5 196.5q0 116 79.5 198.5t197.5 82.5zM328 479q-85 0 -146 -63.5t-61 -152.5q0 -88 59 -149.5t148 -61.5q88 0 147.5 61.5t59.5 149.5t-61 152t-146 64z" />
    <glyph glyph-name="p" unicode="p" horiz-adv-x="682" 
d="M145 531v-97q79 111 211 111q115 0 195 -82t80 -196q0 -115 -79 -197.5t-194 -82.5q-127 0 -213 104v-285h-68v725h68zM351 479q-89 0 -150 -62t-61 -154q0 -95 62.5 -154.5t148.5 -59.5q88 0 149 64t61 152q0 87 -60 150.5t-150 63.5z" />
    <glyph glyph-name="q" unicode="q" horiz-adv-x="682" 
d="M538 434v97h68v-725h-68v285q-86 -104 -214 -104q-115 0 -193.5 82.5t-78.5 197.5q0 114 79.5 196t194.5 82q132 0 212 -111zM332 479q-90 0 -150 -63.5t-60 -150.5q0 -88 60.5 -152t148.5 -64q86 0 148.5 59.5t62.5 154.5q0 92 -60.5 154t-149.5 62z" />
    <glyph glyph-name="r" unicode="r" horiz-adv-x="301" 
d="M121 531v-77q63 91 137 91q30 0 61 -18l-36 -58q-20 10 -36 10q-38 0 -69 -31t-46 -85q-11 -42 -11 -161v-202h-72v531h72z" />
    <glyph glyph-name="s" unicode="s" horiz-adv-x="388" 
d="M26 62l43 49q53 -59 111 -59q40 0 69 25.5t29 62.5q0 50 -44 74q-108 60 -134 82q-50 43 -50 108q0 62 42 101.5t104 39.5q73 0 147 -72l-44 -45q-53 51 -107 51q-33 0 -56.5 -20.5t-23.5 -50.5q0 -20 11.5 -40.5t29.5 -30.5q13 -7 42.5 -24t39 -23t31.5 -20t28.5 -21
t19.5 -20.5t17 -25t8 -27t4 -33.5q0 -64 -45 -110.5t-115 -46.5q-45 0 -87 20t-70 56z" />
    <glyph glyph-name="t" unicode="t" horiz-adv-x="339" 
d="M137 531v198h68v-198h109v-60h-109v-471h-68v471h-94v60h94z" />
    <glyph glyph-name="u" unicode="u" horiz-adv-x="608" 
d="M462 272v259h72v-275q0 -134 -59 -201.5t-174 -67.5t-174.5 68t-59.5 201v275h72v-259q0 -102 15 -134q19 -40 57.5 -62.5t89.5 -22.5q75 0 120 47q20 21 29.5 50t10.5 50.5t1 71.5z" />
    <glyph glyph-name="v" unicode="v" horiz-adv-x="554" 
d="M271 0l-245 531h73l178 -386l176 386h73l-243 -531h-12z" />
    <glyph glyph-name="w" unicode="w" horiz-adv-x="831" 
d="M230 0l-226 531h71l162 -385l170 385h12l171 -385l165 385h71l-230 -531h-13l-169 380l-170 -380h-14z" />
    <glyph glyph-name="x" unicode="x" horiz-adv-x="480" 
d="M197 279l-182 252h82l141 -196l141 196h81l-181 -252l204 -279h-83l-162 223l-160 -223h-82z" />
    <glyph glyph-name="y" unicode="y" horiz-adv-x="536" 
d="M237 40l-218 491h72l183 -409l177 409h73l-317 -725h-72z" />
    <glyph glyph-name="z" unicode="z" horiz-adv-x="425" 
d="M32 471v60h391l-301 -471h291v-60h-409l301 471h-273z" />
    <glyph glyph-name="braceleft" unicode="{" horiz-adv-x="351" 
d="M37 209v80q25 1 43 7.5t29 24t17.5 31.5t9 47t3 53t0.5 65v23q0 132 73 166q26 12 81 12h27v-76h-15q-51 0 -67.5 -18.5t-16.5 -82.5v-72q0 -100 -22 -146t-81 -74q60 -25 81.5 -76t21.5 -145v-71q0 -64 16.5 -82.5t67.5 -18.5h15v-76h-27q-56 0 -81 12q-73 34 -73 165
q0 135 -8 173q-16 68 -75 77q-9 2 -19 2z" />
    <glyph glyph-name="bar" unicode="|" horiz-adv-x="672" 
d="M302 -194v930h69v-930h-69z" />
    <glyph glyph-name="braceright" unicode="}" horiz-adv-x="351" 
d="M32 718h27q70 0 103 -26q51 -40 51 -152q0 -135 8 -173q16 -67 75 -76q9 -2 19 -2v-80q-25 -1 -43 -7.5t-29 -24t-17.5 -31.5t-9 -47.5t-3 -53t-0.5 -65.5v-23q0 -131 -73 -165q-26 -12 -81 -12h-27v76h15q51 0 67.5 19t16.5 82v71q0 94 21 145t81 76q-59 28 -80.5 74
t-21.5 146v72q0 63 -16.5 82t-67.5 19h-15v76z" />
    <glyph glyph-name="asciitilde" unicode="~" horiz-adv-x="606" 
d="M55 310v78q81 47 124 47q45 0 131.5 -40.5t116.5 -40.5q17 0 39.5 9t34 15.5t50.5 30.5v-79q-81 -46 -123 -46q-46 0 -131.5 38.5t-113.5 38.5q-42 0 -128 -51z" />
    <glyph glyph-name="uni00A0" unicode="&#xa0;" horiz-adv-x="277" 
 />
    <glyph glyph-name="exclamdown" unicode="&#xa1;" horiz-adv-x="295" 
d="M183 -208h-69v557h69v-557zM147 543q25 0 42.5 -18t17.5 -44q0 -25 -18 -42.5t-42 -17.5q-25 0 -42.5 17.5t-17.5 42.5t17.5 43.5t42.5 18.5z" />
    <glyph glyph-name="cent" unicode="&#xa2;" horiz-adv-x="554" 
d="M404 529l65 125l59 -29l-64 -125q33 -22 56 -46l-41 -52q-19 19 -47 37l-192 -373q38 -15 70 -15q73 0 150 61l44 -51q-84 -76 -193 -76q-42 0 -102 20l-74 -144l-57 30l74 148q-102 91 -102 222q0 121 75 202.5t190 81.5q46 0 89 -16zM184 102l189 367q-30 10 -59 10
q-82 0 -138 -58.5t-56 -155.5q0 -103 64 -163z" />
    <glyph glyph-name="sterling" unicode="&#xa3;" horiz-adv-x="554" 
d="M130 -18q-43 0 -72.5 23.5t-29.5 68.5q0 48 32.5 80.5t76.5 32.5q32 0 70 -19q3 45 3 53q0 65 -22 128h-139v63h124q-3 10 -12.5 42t-12.5 45.5t-7 35.5t-4 40q0 67 51.5 114t125.5 47q73 0 117.5 -47.5t51.5 -139.5h-66q-2 56 -28 88.5t-73 32.5t-78 -26t-31 -72
q0 -38 17 -89l22 -71h156v-63h-140q18 -62 18 -129q0 -54 -10 -91q38 -32 77 -53t57 -21q46 0 52 113h69v-9q0 -75 -30.5 -126t-82.5 -51q-34 0 -79 21t-87 57q-40 -78 -116 -78zM188 101q-32 20 -55 20q-16 0 -27 -10.5t-11 -26.5t9.5 -26t23.5 -10q37 0 60 53z" />
    <glyph glyph-name="currency" unicode="&#xa4;" horiz-adv-x="614" 
d="M527 174q-7 -7 -18.5 -19t-17.5 -18q-23 22 -67 66q-51 -40 -117 -40q-69 0 -118 40l-66 -66q-12 12 -36 37q11 10 33.5 32t33.5 32q-39 54 -39 116q0 69 39 116q-11 11 -33.5 32.5t-33.5 32.5q24 25 36 37l66 -66q55 40 118 40q69 0 116 -40q22 22 68 66q6 -6 17.5 -18
t18.5 -19q-8 -7 -22 -20.5t-25 -24t-21 -20.5q40 -50 40 -116q0 -62 -40 -116q46 -44 68 -64zM448 355q0 60 -43 100t-97 40q-60 0 -101 -41.5t-41 -98.5t41.5 -99.5t99.5 -42.5t99.5 42t41.5 100z" />
    <glyph glyph-name="yen" unicode="&#xa5;" horiz-adv-x="554" 
d="M276 424l166 294h81l-204 -359h174v-57h-181v-75h181v-57h-181v-170h-72v170h-180v57h180v75h-180v57h172l-202 359h82z" />
    <glyph glyph-name="brokenbar" unicode="&#xa6;" horiz-adv-x="672" 
d="M371 116v-310h-69v310h69zM371 736v-310h-69v310h69z" />
    <glyph glyph-name="section" unicode="&#xa7;" horiz-adv-x="615" 
d="M104 595q0 70 50 113t131 43q80 0 128.5 -44t56.5 -124h-71q-5 47 -35 72.5t-78 25.5q-50 0 -81 -24.5t-31 -63.5q0 -38 32 -71t78 -60t92.5 -55t78.5 -67.5t32 -85.5q0 -49 -36.5 -90t-102.5 -54q51 -32 78 -75.5t27 -89.5q0 -67 -50.5 -110.5t-128.5 -43.5t-131 40.5
t-64 101.5h72q27 -76 118 -76q50 0 82 24.5t32 62.5t-33 73t-79.5 63.5t-93.5 59t-80 72t-33 89.5q0 47 32.5 87.5t93.5 58.5q-42 31 -64 65t-22 83zM247 410q-51 -8 -82 -36t-31 -70q0 -39 35 -74t121 -81q59 7 93 36.5t34 69.5q0 38 -34 66.5t-127 83.5q-6 3 -9 5z" />
    <glyph glyph-name="dieresis" unicode="&#xa8;" horiz-adv-x="369" 
d="M85 741q23 0 39.5 -17t16.5 -40t-16.5 -39.5t-39.5 -16.5t-40 16.5t-17 39.5t17 40t40 17zM284 741q23 0 39.5 -17t16.5 -40t-16.5 -39.5t-39.5 -16.5t-40 16.5t-17 39.5t17 40t40 17z" />
    <glyph glyph-name="copyright" unicode="&#xa9;" horiz-adv-x="747" 
d="M489 325h63q-9 -76 -57 -121t-124 -45q-84 0 -136 56.5t-52 162.5q0 97 54.5 156.5t138.5 59.5q75 0 122 -38t54 -106h-63q-20 82 -111 82q-60 0 -94.5 -42.5t-34.5 -116.5q0 -78 33.5 -120t93.5 -42q44 0 74.5 29t38.5 85zM738 373q0 -151 -106.5 -256.5t-257.5 -105.5
q-150 0 -257.5 106t-107.5 256q0 151 107 257t258 106t257.5 -105.5t106.5 -257.5zM687 373q0 131 -91.5 223t-221.5 92t-222.5 -92t-92.5 -223q0 -130 92.5 -222t222.5 -92q129 0 221 92t92 222z" />
    <glyph glyph-name="ordfeminine" unicode="&#xaa;" horiz-adv-x="369" 
d="M269 728h56v-332h-56v46q-41 -54 -101 -54q-58 0 -99 51t-41 124q0 72 41 122.5t100 50.5t100 -56v48zM178 684q-39 0 -66 -36t-27 -87q0 -50 27 -85.5t66 -35.5q38 0 66 32.5t28 87.5q0 53 -27.5 88.5t-66.5 35.5z" />
    <glyph glyph-name="guillemotleft" unicode="&#xab;" horiz-adv-x="425" 
d="M119 531h72l-109 -266l109 -265h-72l-109 265zM342 531h72l-109 -266l109 -265h-72l-109 265z" />
    <glyph glyph-name="logicalnot" unicode="&#xac;" horiz-adv-x="606" 
d="M56 500h495v-282h-68v215h-427v67z" />
    <glyph glyph-name="uni00AD" unicode="&#xad;" 
d="M32 240v60h269v-60h-269z" />
    <glyph glyph-name="registered" unicode="&#xae;" horiz-adv-x="747" 
d="M221 165v419h176q56 0 76 -7q34 -11 53.5 -40t19.5 -67q0 -39 -13 -58.5t-40 -37.5q28 -14 38 -33.5t10 -61.5v-47q0 -11 1.5 -20.5t4.5 -17t5 -12t6 -10t5 -7.5h-74q-8 30 -10 62l-3 51q-2 35 -15.5 48.5t-50.5 13.5h-121v-175h-68zM395 524h-106v-124h118q72 0 72 62
q0 39 -21.5 50.5t-62.5 11.5zM738 372q0 -152 -107.5 -257.5t-256.5 -105.5q-151 0 -258 105.5t-107 257.5q0 149 106 256.5t259 107.5q151 0 257.5 -107.5t106.5 -256.5zM687 372q0 129 -91.5 222.5t-221.5 93.5q-131 0 -223 -93t-92 -223q0 -132 93 -223.5t222 -91.5
q128 0 220.5 92t92.5 223z" />
    <glyph glyph-name="macron" unicode="&#xaf;" horiz-adv-x="485" 
d="M74 663v60h337v-60h-337z" />
    <glyph glyph-name="degree" unicode="&#xb0;" horiz-adv-x="400" 
d="M369 569q0 -73 -50.5 -121t-117.5 -48q-71 0 -120 49.5t-49 114.5q0 78 51 125t118 47q68 0 118 -47.5t50 -119.5zM311 567q0 49 -31.5 83t-79.5 34q-44 0 -77 -33.5t-33 -85.5q0 -44 33 -78.5t75 -34.5q50 0 81.5 34.5t31.5 80.5z" />
    <glyph glyph-name="plusminus" unicode="&#xb1;" horiz-adv-x="606" 
d="M57 79h494v-67h-494v67zM57 446h214v212h68v-212h212v-67h-212v-212h-68v212h-214v67z" />
    <glyph glyph-name="two.superior" unicode="&#xb2;" 
d="M3 358l175 158q43 38 60 59.5t17 46.5q0 27 -25 46.5t-61 19.5q-40 0 -64.5 -22t-28.5 -64h-52q1 61 43 97.5t104 36.5q60 0 98.5 -32.5t38.5 -80.5q0 -35 -20.5 -63.5t-65.5 -69.5l-93 -84h185v-48h-311z" />
    <glyph glyph-name="three.superior" unicode="&#xb3;" 
d="M234 638q0 20 -20.5 35t-51.5 15q-52 0 -77 -57h-55q27 105 132 105q55 0 91.5 -29t36.5 -69q0 -42 -44 -72q67 -32 67 -95q0 -49 -41.5 -85.5t-108.5 -36.5q-125 0 -147 118h53q19 -70 94 -70q43 0 69.5 21t26.5 50q0 66 -124 71v46q99 5 99 53z" />
    <glyph glyph-name="acute" unicode="&#xb4;" horiz-adv-x="375" 
d="M114 630l107 151h105l-145 -151h-67z" />
    <glyph glyph-name="mu" unicode="&#xb5;" horiz-adv-x="608" 
d="M453 0v58q-56 -70 -148 -70t-148 68v-250h-68v725h68v-293q0 -65 13 -93q18 -38 55.5 -60.5t81.5 -22.5q51 0 89.5 31.5t50.5 82.5q6 26 6 69v286h68v-531h-68z" />
    <glyph glyph-name="paragraph" unicode="&#xb6;" horiz-adv-x="564" 
d="M294 -113h-58v458h-25q-64 0 -114.5 53t-50.5 142t51 144t152 55h250v-37h-41v-815h-58v815h-106v-815z" />
    <glyph glyph-name="periodcentered" unicode="&#xb7;" horiz-adv-x="277" 
d="M138 421q24 0 42 -18.5t18 -43.5t-17.5 -42.5t-42.5 -17.5t-42.5 17.5t-17.5 42.5t17.5 43.5t42.5 18.5z" />
    <glyph glyph-name="cedilla" unicode="&#xb8;" horiz-adv-x="324" 
d="M139 -99l13 99h43l-8 -58q14 2 17 2q24 0 40.5 -14t16.5 -38q0 -34 -30.5 -56t-81.5 -22q-42 0 -81 15l11 34q30 -10 58 -10q66 0 66 32q0 21 -30 21q-11 0 -34 -5z" />
    <glyph glyph-name="one.superior" unicode="&#xb9;" 
d="M74 679l35 48h92v-369h-54v321h-73z" />
    <glyph glyph-name="ordmasculine" unicode="&#xba;" horiz-adv-x="369" 
d="M184 736q67 0 112.5 -51t45.5 -124q0 -72 -45.5 -122.5t-112.5 -50.5t-112 50.5t-45 122.5q0 73 45 124t112 51zM185 684q-40 0 -70.5 -36.5t-30.5 -87.5q0 -50 29 -85t72 -35t71.5 35t28.5 85q0 51 -30 87.5t-70 36.5z" />
    <glyph glyph-name="guillemotright" unicode="&#xbb;" horiz-adv-x="425" 
d="M306 0h-73l109 266l-109 265h73l108 -265zM82 0h-72l109 266l-109 265h72l109 -265z" />
    <glyph glyph-name="onequarter" unicode="&#xbc;" horiz-adv-x="831" 
d="M56 679l35 48h92v-369h-54v321h-73zM199 -18h-54l451 754h54zM478 83l265 305v-257h51v-48h-51v-83h-54v83h-211zM584 131h105v120z" />
    <glyph glyph-name="onehalf" unicode="&#xbd;" horiz-adv-x="831" 
d="M51 679l35 48h92v-369h-54v321h-73zM173 -18h-54l451 754h54zM478 0l175 158q30 28 42.5 40.5t23.5 30.5t11 35q0 28 -25 47.5t-61 19.5q-40 0 -64.5 -22t-28.5 -65h-51q1 61 43 98t104 37q59 0 97.5 -33.5t38.5 -81.5q0 -35 -20 -63t-66 -69l-92 -84h184v-48h-311z" />
    <glyph glyph-name="threequarters" unicode="&#xbe;" horiz-adv-x="831" 
d="M252 638q0 20 -20.5 35t-51.5 15q-52 0 -77 -57h-55q27 105 132 105q55 0 91.5 -29t36.5 -69q0 -42 -44 -72q67 -32 67 -95q0 -49 -41.5 -85.5t-108.5 -36.5q-125 0 -147 118h53q19 -70 94 -70q43 0 69.5 21t26.5 50q0 66 -124 71v46q99 5 99 53zM252 -18h-53l450 754h55
zM508 83l265 305v-257h52v-48h-52v-83h-54v83h-211zM614 131h105v120z" />
    <glyph glyph-name="questiondown" unicode="&#xbf;" horiz-adv-x="591" 
d="M186 201h-72q4 83 52 127t126 44q77 0 125.5 -40t48.5 -101q0 -87 -109 -131q-15 -6 -38 -15.5t-34.5 -14t-29 -12t-26 -12t-21 -11.5t-18 -12t-13 -12.5t-10.5 -14.5t-5 -15.5t-2 -18.5q0 -44 37.5 -72t95.5 -28q65 0 103.5 36t40.5 107h71q-1 -100 -59.5 -156.5
t-154.5 -56.5q-95 0 -149.5 48t-54.5 120q0 38 13 65.5t49.5 51t61 35t86.5 36.5q8 3 12 5q79 32 79 79q0 29 -27 51.5t-72 22.5q-50 0 -75.5 -26t-30.5 -79zM295 543q25 0 42.5 -18t17.5 -44q0 -25 -18 -42.5t-42 -17.5t-42 17.5t-18 42.5q0 26 17.5 44t42.5 18z" />
    <glyph glyph-name="Agrave" unicode="&#xc0;" horiz-adv-x="740" 
d="M364 718h17l335 -718h-77l-113 236h-310l-112 -236h-80zM494 306l-122 260l-124 -260h246zM235 931h105l107 -151h-68z" />
    <glyph glyph-name="Aacute" unicode="&#xc1;" horiz-adv-x="740" 
d="M364 718h17l335 -718h-77l-113 236h-310l-112 -236h-80zM494 306l-122 260l-124 -260h246zM296 780l107 151h105l-145 -151h-67z" />
    <glyph glyph-name="Acircumflex" unicode="&#xc2;" horiz-adv-x="740" 
d="M364 718h17l335 -718h-77l-113 236h-310l-112 -236h-80zM494 306l-122 260l-124 -260h246zM193 778l145 125h68l142 -125h-89l-86 74l-89 -74h-91z" />
    <glyph glyph-name="Atilde" unicode="&#xc3;" horiz-adv-x="740" 
d="M364 718h17l335 -718h-77l-113 236h-310l-112 -236h-80zM494 306l-122 260l-124 -260h246zM441 854q32 0 74 24l34 -47q-59 -43 -110 -43q-34 0 -76 20.5t-63 20.5q-7 0 -13 -1t-12.5 -3.5t-10.5 -4t-11 -6t-9.5 -6t-10.5 -7.5t-10 -7l-32 50q44 47 110 47q29 0 74 -18.5
t66 -18.5z" />
    <glyph glyph-name="Adieresis" unicode="&#xc4;" horiz-adv-x="740" 
d="M364 718h17l335 -718h-77l-113 236h-310l-112 -236h-80zM494 306l-122 260l-124 -260h246zM270 891q23 0 39.5 -17t16.5 -40t-16.5 -39.5t-39.5 -16.5t-40 16.5t-17 39.5t17 40t40 17zM469 891q23 0 39.5 -17t16.5 -40t-16.5 -39.5t-39.5 -16.5t-40 16.5t-17 39.5t17 40
t40 17z" />
    <glyph glyph-name="Aring" unicode="&#xc5;" horiz-adv-x="740" 
d="M364 718h17l335 -718h-77l-113 236h-310l-112 -236h-80zM494 306l-122 260l-124 -260h246zM371 970q42 0 71.5 -29t29.5 -72q0 -42 -29.5 -72t-71.5 -30t-72 30t-30 72t29.5 71.5t72.5 29.5zM371 928q-25 1 -42 -16.5t-17 -42.5t17.5 -42t41.5 -17q25 0 42 17.5t17 41.5
q1 24 -17 41.5t-42 17.5z" />
    <glyph glyph-name="AE" unicode="&#xc6;" horiz-adv-x="992" 
d="M237 236l-152 -236h-84l464 718h444v-70h-338v-224h338v-70h-338v-284h338v-70h-410v236h-262zM499 303v332l-216 -332h216z" />
    <glyph glyph-name="Ccedilla" unicode="&#xc7;" horiz-adv-x="813" 
d="M383 -99l11 85q-156 15 -247.5 120.5t-91.5 256.5q0 160 110 266.5t277 106.5q206 0 314 -151l-57 -43q-94 124 -256 124q-130 0 -221.5 -87t-91.5 -222q0 -133 90.5 -220.5t226.5 -87.5q150 0 252 119l57 -43q-113 -142 -314 -142h-6l-5 -41q14 2 17 2q24 0 40.5 -14
t16.5 -38q0 -34 -30.5 -56t-81.5 -22q-42 0 -81 15l11 34q30 -10 58 -10q66 0 66 32q0 21 -30 21q-11 0 -34 -5z" />
    <glyph glyph-name="Egrave" unicode="&#xc8;" horiz-adv-x="536" 
d="M88 0v718h410v-70h-338v-225h338v-70h-338v-283h338v-70h-410zM153 931h105l107 -151h-68z" />
    <glyph glyph-name="Eacute" unicode="&#xc9;" horiz-adv-x="536" 
d="M88 0v718h410v-70h-338v-225h338v-70h-338v-283h338v-70h-410zM225 780l107 151h105l-145 -151h-67z" />
    <glyph glyph-name="Ecircumflex" unicode="&#xca;" horiz-adv-x="536" 
d="M88 0v718h410v-70h-338v-225h338v-70h-338v-283h338v-70h-410zM121 778l145 125h68l142 -125h-89l-86 74l-89 -74h-91z" />
    <glyph glyph-name="Edieresis" unicode="&#xcb;" horiz-adv-x="536" 
d="M88 0v718h410v-70h-338v-225h338v-70h-338v-283h338v-70h-410zM199 891q23 0 39.5 -17t16.5 -40t-16.5 -39.5t-39.5 -16.5t-40 16.5t-17 39.5t17 40t40 17zM398 891q23 0 39.5 -17t16.5 -40t-16.5 -39.5t-39.5 -16.5t-40 16.5t-17 39.5t17 40t40 17z" />
    <glyph glyph-name="Igrave" unicode="&#xcc;" horiz-adv-x="226" 
d="M77 0v718h72v-718h-72zM-21 931h105l107 -151h-68z" />
    <glyph glyph-name="Iacute" unicode="&#xcd;" horiz-adv-x="226" 
d="M77 0v718h72v-718h-72zM41 780l107 151h105l-145 -151h-67z" />
    <glyph glyph-name="Icircumflex" unicode="&#xce;" horiz-adv-x="226" 
d="M77 0v718h72v-718h-72zM-63 778l145 125h68l142 -125h-89l-86 74l-89 -74h-91z" />
    <glyph glyph-name="Idieresis" unicode="&#xcf;" horiz-adv-x="226" 
d="M77 0v718h72v-718h-72zM15 891q23 0 39.5 -17t16.5 -40t-16.5 -39.5t-39.5 -16.5t-40 16.5t-17 39.5t17 40t40 17zM214 891q23 0 39.5 -17t16.5 -40t-16.5 -39.5t-39.5 -16.5t-40 16.5t-17 39.5t17 40t40 17z" />
    <glyph glyph-name="Eth" unicode="&#xd0;" horiz-adv-x="790" 
d="M105 0v326h-88v67h88v325h206q142 0 223 -33q97 -39 151.5 -127.5t54.5 -206.5q0 -158 -93 -254.5t-262 -96.5h-280zM362 326h-189v-256h139q114 0 179.5 17.5t111.5 72.5q62 74 62 190q0 113 -59 190q-49 63 -125.5 85.5t-202.5 22.5h-105v-255h189v-67z" />
    <glyph glyph-name="Ntilde" unicode="&#xd1;" horiz-adv-x="740" 
d="M161 0h-72v718h15l476 -550v550h72v-718h-16l-475 543v-543zM441 854q32 0 74 24l34 -47q-59 -43 -110 -43q-34 0 -76 20.5t-63 20.5q-7 0 -13 -1t-12.5 -3.5t-10.5 -4t-11 -6t-9.5 -6t-10.5 -7.5t-10 -7l-32 50q44 47 110 47q29 0 74 -18.5t66 -18.5z" />
    <glyph glyph-name="Ograve" unicode="&#xd2;" horiz-adv-x="869" 
d="M429 736q163 0 273.5 -108t110.5 -269q0 -159 -109.5 -268t-268.5 -109q-163 0 -271 110t-108 264q0 160 108.5 270t264.5 110zM433 666q-122 0 -212 -88t-90 -222q0 -130 89 -217t213 -87q128 0 216.5 87.5t88.5 220.5t-91 219.5t-214 86.5zM299 931h105l107 -151h-68z
" />
    <glyph glyph-name="Oacute" unicode="&#xd3;" horiz-adv-x="869" 
d="M429 736q163 0 273.5 -108t110.5 -269q0 -159 -109.5 -268t-268.5 -109q-163 0 -271 110t-108 264q0 160 108.5 270t264.5 110zM433 666q-122 0 -212 -88t-90 -222q0 -130 89 -217t213 -87q128 0 216.5 87.5t88.5 220.5t-91 219.5t-214 86.5zM361 780l107 151h105
l-145 -151h-67z" />
    <glyph glyph-name="Ocircumflex" unicode="&#xd4;" horiz-adv-x="869" 
d="M429 736q163 0 273.5 -108t110.5 -269q0 -159 -109.5 -268t-268.5 -109q-163 0 -271 110t-108 264q0 160 108.5 270t264.5 110zM433 666q-122 0 -212 -88t-90 -222q0 -130 89 -217t213 -87q128 0 216.5 87.5t88.5 220.5t-91 219.5t-214 86.5zM257 778l145 125h68
l142 -125h-89l-86 74l-89 -74h-91z" />
    <glyph glyph-name="Otilde" unicode="&#xd5;" horiz-adv-x="869" 
d="M429 736q163 0 273.5 -108t110.5 -269q0 -159 -109.5 -268t-268.5 -109q-163 0 -271 110t-108 264q0 160 108.5 270t264.5 110zM433 666q-122 0 -212 -88t-90 -222q0 -130 89 -217t213 -87q128 0 216.5 87.5t88.5 220.5t-91 219.5t-214 86.5zM505 854q32 0 74 24l34 -47
q-59 -43 -110 -43q-34 0 -76 20.5t-63 20.5q-7 0 -13 -1t-12.5 -3.5t-10.5 -4t-11 -6t-9.5 -6t-10.5 -7.5t-10 -7l-32 50q44 47 110 47q29 0 74 -18.5t66 -18.5z" />
    <glyph glyph-name="Odieresis" unicode="&#xd6;" horiz-adv-x="869" 
d="M429 736q163 0 273.5 -108t110.5 -269q0 -159 -109.5 -268t-268.5 -109q-163 0 -271 110t-108 264q0 160 108.5 270t264.5 110zM433 666q-122 0 -212 -88t-90 -222q0 -130 89 -217t213 -87q128 0 216.5 87.5t88.5 220.5t-91 219.5t-214 86.5zM335 891q23 0 39.5 -17
t16.5 -40t-16.5 -39.5t-39.5 -16.5t-40 16.5t-17 39.5t17 40t40 17zM534 891q23 0 39.5 -17t16.5 -40t-16.5 -39.5t-39.5 -16.5t-40 16.5t-17 39.5t17 40t40 17z" />
    <glyph glyph-name="multiply" unicode="&#xd7;" horiz-adv-x="606" 
d="M510 521l-162 -162l162 -162l-45 -45l-162 162l-162 -162l-45 45l162 162l-162 162l45 45l162 -162l162 162z" />
    <glyph glyph-name="Oslash" unicode="&#xd8;" horiz-adv-x="868" 
d="M784 707l-74 -87q103 -105 103 -260q0 -159 -109 -268.5t-269 -109.5q-121 0 -213 62l-80 -94l-52 42l80 95q-114 109 -114 269q0 159 108.5 269.5t269.5 110.5q127 0 228 -72l71 85zM662 563l-393 -463q75 -48 164 -48q127 0 216 87.5t89 220.5q0 118 -76 203zM217 142
l396 466q-81 58 -180 58q-122 0 -212 -88t-90 -222q0 -125 86 -214z" />
    <glyph glyph-name="Ugrave" unicode="&#xd9;" horiz-adv-x="655" 
d="M494 262v456h72v-467q0 -126 -63.5 -197.5t-174.5 -71.5t-174.5 71.5t-63.5 197.5v467h72v-456q0 -37 1.5 -56t10 -47t26.5 -50q45 -57 128 -57t128 57q18 22 26.5 50t10 47t1.5 56zM193 931h105l107 -151h-68z" />
    <glyph glyph-name="Uacute" unicode="&#xda;" horiz-adv-x="655" 
d="M494 262v456h72v-467q0 -126 -63.5 -197.5t-174.5 -71.5t-174.5 71.5t-63.5 197.5v467h72v-456q0 -37 1.5 -56t10 -47t26.5 -50q45 -57 128 -57t128 57q18 22 26.5 50t10 47t1.5 56zM254 780l107 151h105l-145 -151h-67z" />
    <glyph glyph-name="Ucircumflex" unicode="&#xdb;" horiz-adv-x="655" 
d="M494 262v456h72v-467q0 -126 -63.5 -197.5t-174.5 -71.5t-174.5 71.5t-63.5 197.5v467h72v-456q0 -37 1.5 -56t10 -47t26.5 -50q45 -57 128 -57t128 57q18 22 26.5 50t10 47t1.5 56zM151 778l145 125h68l142 -125h-89l-86 74l-89 -74h-91z" />
    <glyph glyph-name="Udieresis" unicode="&#xdc;" horiz-adv-x="655" 
d="M494 262v456h72v-467q0 -126 -63.5 -197.5t-174.5 -71.5t-174.5 71.5t-63.5 197.5v467h72v-456q0 -37 1.5 -56t10 -47t26.5 -50q45 -57 128 -57t128 57q18 22 26.5 50t10 47t1.5 56zM228 891q23 0 39.5 -17t16.5 -40t-16.5 -39.5t-39.5 -16.5t-40 16.5t-17 39.5t17 40
t40 17zM427 891q23 0 39.5 -17t16.5 -40t-16.5 -39.5t-39.5 -16.5t-40 16.5t-17 39.5t17 40t40 17z" />
    <glyph glyph-name="Yacute" unicode="&#xdd;" horiz-adv-x="592" 
d="M262 0v343l-231 375h83l184 -296l181 296h83l-228 -375v-343h-72zM222 780l107 151h105l-145 -151h-67z" />
    <glyph glyph-name="Thorn" unicode="&#xde;" horiz-adv-x="592" 
d="M87 0v718h72v-167h71q142 0 189 -18q55 -22 86.5 -68t31.5 -106q0 -50 -22 -91.5t-61 -65.5q-35 -22 -87 -29t-137 -7h-71v-166h-72zM286 481h-127v-244q41 -1 119 -1q105 0 142 30q42 35 42 93q0 59 -45 94q-37 28 -131 28z" />
    <glyph glyph-name="germandbls" unicode="&#xdf;" horiz-adv-x="554" 
d="M242 447h15q67 0 108.5 35.5t41.5 87.5q0 50 -35 82t-85 32q-53 0 -92 -34.5t-44 -84.5q-3 -35 -3 -74v-491h-68v499q0 109 25 153q57 98 180 98q86 0 139 -49.5t53 -126.5q0 -63 -41 -108.5t-118 -56.5q58 -9 94 -33q92 -62 92 -177q0 -91 -56.5 -152t-148.5 -61
q-60 0 -101 24v65q50 -23 91 -23q62 0 103.5 41t41.5 108q0 74 -49 120.5t-143 49.5v76z" />
    <glyph glyph-name="agrave" unicode="&#xe0;" horiz-adv-x="683" 
d="M538 434v97h67v-531h-67v91q-86 -104 -214 -104q-115 0 -193.5 82.5t-78.5 197.5q0 114 79.5 196t194.5 82q132 0 212 -111zM332 479q-90 0 -150 -63.5t-60 -150.5q0 -88 60.5 -152t148.5 -64q86 0 149 59.5t63 154.5q0 92 -61 154t-150 62zM207 781h105l107 -151h-68z
" />
    <glyph glyph-name="aacute" unicode="&#xe1;" horiz-adv-x="683" 
d="M538 434v97h67v-531h-67v91q-86 -104 -214 -104q-115 0 -193.5 82.5t-78.5 197.5q0 114 79.5 196t194.5 82q132 0 212 -111zM332 479q-90 0 -150 -63.5t-60 -150.5q0 -88 60.5 -152t148.5 -64q86 0 149 59.5t63 154.5q0 92 -61 154t-150 62zM268 630l107 151h105
l-145 -151h-67z" />
    <glyph glyph-name="acircumflex" unicode="&#xe2;" horiz-adv-x="683" 
d="M538 434v97h67v-531h-67v91q-86 -104 -214 -104q-115 0 -193.5 82.5t-78.5 197.5q0 114 79.5 196t194.5 82q132 0 212 -111zM332 479q-90 0 -150 -63.5t-60 -150.5q0 -88 60.5 -152t148.5 -64q86 0 149 59.5t63 154.5q0 92 -61 154t-150 62zM165 628l145 125h68l142 -125
h-89l-86 74l-89 -74h-91z" />
    <glyph glyph-name="atilde" unicode="&#xe3;" horiz-adv-x="683" 
d="M538 434v97h67v-531h-67v91q-86 -104 -214 -104q-115 0 -193.5 82.5t-78.5 197.5q0 114 79.5 196t194.5 82q132 0 212 -111zM332 479q-90 0 -150 -63.5t-60 -150.5q0 -88 60.5 -152t148.5 -64q86 0 149 59.5t63 154.5q0 92 -61 154t-150 62zM412 704q32 0 74 24l34 -47
q-59 -43 -110 -43q-34 0 -76 20.5t-63 20.5q-7 0 -13 -1t-12.5 -3.5t-10.5 -4t-11 -6t-9.5 -6t-10.5 -7.5t-10 -7l-32 50q44 47 110 47q29 0 74 -18.5t66 -18.5z" />
    <glyph glyph-name="adieresis" unicode="&#xe4;" horiz-adv-x="683" 
d="M538 434v97h67v-531h-67v91q-86 -104 -214 -104q-115 0 -193.5 82.5t-78.5 197.5q0 114 79.5 196t194.5 82q132 0 212 -111zM332 479q-90 0 -150 -63.5t-60 -150.5q0 -88 60.5 -152t148.5 -64q86 0 149 59.5t63 154.5q0 92 -61 154t-150 62zM242 741q23 0 39.5 -17
t16.5 -40t-16.5 -39.5t-39.5 -16.5t-40 16.5t-17 39.5t17 40t40 17zM441 741q23 0 39.5 -17t16.5 -40t-16.5 -39.5t-39.5 -16.5t-40 16.5t-17 39.5t17 40t40 17z" />
    <glyph glyph-name="aring" unicode="&#xe5;" horiz-adv-x="683" 
d="M538 434v97h67v-531h-67v91q-86 -104 -214 -104q-115 0 -193.5 82.5t-78.5 197.5q0 114 79.5 196t194.5 82q132 0 212 -111zM332 479q-90 0 -150 -63.5t-60 -150.5q0 -88 60.5 -152t148.5 -64q86 0 149 59.5t63 154.5q0 92 -61 154t-150 62zM343 820q42 0 71.5 -29
t29.5 -72q0 -42 -29.5 -72t-71.5 -30t-72 30t-30 72t29.5 71.5t72.5 29.5zM343 778q-25 1 -42 -16.5t-17 -42.5t17.5 -42t41.5 -17q25 0 42 17.5t17 41.5q1 24 -17 41.5t-42 17.5z" />
    <glyph glyph-name="ae" unicode="&#xe6;" horiz-adv-x="1157" 
d="M545 434v97h62v-96q48 57 95 83.5t119 26.5q118 0 197 -79t79 -195v-12h-478q2 -87 60.5 -148.5t148.5 -61.5q126 0 194 125l58 -29q-36 -76 -104 -117t-153 -41q-134 0 -216 108v-95h-62v98q-46 -57 -95.5 -84.5t-117.5 -27.5q-113 0 -193.5 82t-80.5 200t81 197.5
t191 79.5q123 0 215 -111zM335 479q-86 0 -146.5 -60.5t-60.5 -153.5q0 -92 60.5 -152.5t148.5 -60.5q87 0 148.5 60t61.5 153q0 98 -61.5 156t-150.5 58zM623 319h399q-20 80 -73.5 120t-124.5 40q-68 0 -125 -40.5t-76 -119.5z" />
    <glyph glyph-name="ccedilla" unicode="&#xe7;" horiz-adv-x="647" 
d="M300 -99l11 88q-116 10 -188 88t-72 184q0 119 84 201.5t213 82.5q78 0 143 -32t101 -92l-55 -34q-70 92 -192 92q-99 0 -161.5 -62.5t-62.5 -150.5q0 -90 62.5 -153.5t162.5 -63.5q116 0 191 93l55 -35q-75 -115 -238 -120l-6 -45q14 2 17 2q24 0 40.5 -14t16.5 -38
q0 -34 -30.5 -56t-81.5 -22q-42 0 -81 15l11 34q30 -10 58 -10q66 0 66 32q0 21 -30 21q-12 0 -34 -5z" />
    <glyph glyph-name="egrave" unicode="&#xe8;" horiz-adv-x="650" 
d="M599 260h-478q2 -92 58.5 -151.5t141.5 -59.5q75 0 121 34t82 93l57 -30q-81 -159 -253 -159q-126 0 -201.5 82t-75.5 195t76.5 197t196.5 84q116 0 195 -78t80 -207zM128 320h396q-20 79 -73.5 119t-125.5 40q-151 0 -197 -159zM190 781h105l107 -151h-68z" />
    <glyph glyph-name="eacute" unicode="&#xe9;" horiz-adv-x="650" 
d="M599 260h-478q2 -92 58.5 -151.5t141.5 -59.5q75 0 121 34t82 93l57 -30q-81 -159 -253 -159q-126 0 -201.5 82t-75.5 195t76.5 197t196.5 84q116 0 195 -78t80 -207zM128 320h396q-20 79 -73.5 119t-125.5 40q-151 0 -197 -159zM251 630l107 151h105l-145 -151h-67z" />
    <glyph glyph-name="ecircumflex" unicode="&#xea;" horiz-adv-x="650" 
d="M599 260h-478q2 -92 58.5 -151.5t141.5 -59.5q75 0 121 34t82 93l57 -30q-81 -159 -253 -159q-126 0 -201.5 82t-75.5 195t76.5 197t196.5 84q116 0 195 -78t80 -207zM128 320h396q-20 79 -73.5 119t-125.5 40q-151 0 -197 -159zM148 628l145 125h68l142 -125h-89l-86 74
l-89 -74h-91z" />
    <glyph glyph-name="edieresis" unicode="&#xeb;" horiz-adv-x="650" 
d="M599 260h-478q2 -92 58.5 -151.5t141.5 -59.5q75 0 121 34t82 93l57 -30q-81 -159 -253 -159q-126 0 -201.5 82t-75.5 195t76.5 197t196.5 84q116 0 195 -78t80 -207zM128 320h396q-20 79 -73.5 119t-125.5 40q-151 0 -197 -159zM226 741q23 0 39.5 -17t16.5 -40
t-16.5 -39.5t-39.5 -16.5t-40 16.5t-17 39.5t17 40t40 17zM425 741q23 0 39.5 -17t16.5 -40t-16.5 -39.5t-39.5 -16.5t-40 16.5t-17 39.5t17 40t40 17z" />
    <glyph glyph-name="igrave" unicode="&#xec;" horiz-adv-x="200" 
d="M67 0v531h68v-531h-68zM-34 781h105l107 -151h-68z" />
    <glyph glyph-name="iacute" unicode="&#xed;" horiz-adv-x="200" 
d="M67 0v531h68v-531h-68zM28 630l107 151h105l-145 -151h-67z" />
    <glyph glyph-name="icircumflex" unicode="&#xee;" horiz-adv-x="200" 
d="M67 0v531h68v-531h-68zM-76 628l145 125h68l142 -125h-89l-86 74l-89 -74h-91z" />
    <glyph glyph-name="idieresis" unicode="&#xef;" horiz-adv-x="200" 
d="M67 0v531h68v-531h-68zM2 741q23 0 39.5 -17t16.5 -40t-16.5 -39.5t-39.5 -16.5t-40 16.5t-17 39.5t17 40t40 17zM201 741q23 0 39.5 -17t16.5 -40t-16.5 -39.5t-39.5 -16.5t-40 16.5t-17 39.5t17 40t40 17z" />
    <glyph glyph-name="eth" unicode="&#xf0;" horiz-adv-x="655" 
d="M206 636l85 35q-38 33 -81 65h96q42 -32 50 -38l80 33l25 -52l-57 -23q201 -195 201 -379q0 -124 -79 -207.5t-201 -83.5q-114 0 -194 81t-80 200q0 120 81 198.5t187 78.5q58 0 122 -31q-45 62 -104 115l-106 -44zM332 481q-85 0 -148 -58.5t-63 -153.5t60.5 -156
t145.5 -61q87 0 147.5 60.5t60.5 154.5t-58 154t-145 60z" />
    <glyph glyph-name="ntilde" unicode="&#xf1;" horiz-adv-x="610" 
d="M144 531v-95q83 109 199 109q90 0 143.5 -63t53.5 -184v-298h-68v289q0 97 -33.5 145.5t-108.5 48.5q-85 0 -140 -72q-28 -37 -37 -78t-9 -110v-223h-68v531h68zM376 704q32 0 74 24l34 -47q-59 -43 -110 -43q-34 0 -76 20.5t-63 20.5q-7 0 -13 -1t-12.5 -3.5t-10.5 -4
t-11 -6t-9.5 -6t-10.5 -7.5t-10 -7l-32 50q44 47 110 47q29 0 74 -18.5t66 -18.5z" />
    <glyph glyph-name="ograve" unicode="&#xf2;" horiz-adv-x="655" 
d="M328 545q118 0 197.5 -82.5t79.5 -198.5q0 -115 -79.5 -196.5t-197.5 -81.5t-197.5 81.5t-79.5 196.5q0 116 79.5 198.5t197.5 82.5zM328 479q-85 0 -146 -63.5t-61 -152.5q0 -88 59 -149.5t148 -61.5q88 0 147.5 61.5t59.5 149.5t-61 152t-146 64zM193 781h105l107 -151
h-68z" />
    <glyph glyph-name="oacute" unicode="&#xf3;" horiz-adv-x="655" 
d="M328 545q118 0 197.5 -82.5t79.5 -198.5q0 -115 -79.5 -196.5t-197.5 -81.5t-197.5 81.5t-79.5 196.5q0 116 79.5 198.5t197.5 82.5zM328 479q-85 0 -146 -63.5t-61 -152.5q0 -88 59 -149.5t148 -61.5q88 0 147.5 61.5t59.5 149.5t-61 152t-146 64zM254 630l107 151h105
l-145 -151h-67z" />
    <glyph glyph-name="ocircumflex" unicode="&#xf4;" horiz-adv-x="655" 
d="M328 545q118 0 197.5 -82.5t79.5 -198.5q0 -115 -79.5 -196.5t-197.5 -81.5t-197.5 81.5t-79.5 196.5q0 116 79.5 198.5t197.5 82.5zM328 479q-85 0 -146 -63.5t-61 -152.5q0 -88 59 -149.5t148 -61.5q88 0 147.5 61.5t59.5 149.5t-61 152t-146 64zM151 628l145 125h68
l142 -125h-89l-86 74l-89 -74h-91z" />
    <glyph glyph-name="otilde" unicode="&#xf5;" horiz-adv-x="655" 
d="M328 545q118 0 197.5 -82.5t79.5 -198.5q0 -115 -79.5 -196.5t-197.5 -81.5t-197.5 81.5t-79.5 196.5q0 116 79.5 198.5t197.5 82.5zM328 479q-85 0 -146 -63.5t-61 -152.5q0 -88 59 -149.5t148 -61.5q88 0 147.5 61.5t59.5 149.5t-61 152t-146 64zM398 704q32 0 74 24
l34 -47q-59 -43 -110 -43q-34 0 -76 20.5t-63 20.5q-7 0 -13 -1t-12.5 -3.5t-10.5 -4t-11 -6t-9.5 -6t-10.5 -7.5t-10 -7l-32 50q44 47 110 47q29 0 74 -18.5t66 -18.5z" />
    <glyph glyph-name="odieresis" unicode="&#xf6;" horiz-adv-x="655" 
d="M328 545q118 0 197.5 -82.5t79.5 -198.5q0 -115 -79.5 -196.5t-197.5 -81.5t-197.5 81.5t-79.5 196.5q0 116 79.5 198.5t197.5 82.5zM328 479q-85 0 -146 -63.5t-61 -152.5q0 -88 59 -149.5t148 -61.5q88 0 147.5 61.5t59.5 149.5t-61 152t-146 64zM228 741
q23 0 39.5 -17t16.5 -40t-16.5 -39.5t-39.5 -16.5t-40 16.5t-17 39.5t17 40t40 17zM427 741q23 0 39.5 -17t16.5 -40t-16.5 -39.5t-39.5 -16.5t-40 16.5t-17 39.5t17 40t40 17z" />
    <glyph glyph-name="divide" unicode="&#xf7;" horiz-adv-x="606" 
d="M255 491v99h98v-99h-98zM255 128v100h98v-100h-98zM57 326v67h494v-67h-494z" />
    <glyph glyph-name="oslash" unicode="&#xf8;" horiz-adv-x="653" 
d="M599 517l-60 -71q65 -79 65 -182q0 -116 -79 -197t-198 -81q-81 0 -146 40l-57 -66l-43 35l55 66q-86 84 -86 203q0 116 79.5 198.5t196.5 82.5q99 0 172 -58l57 66zM492 392l-267 -315q47 -25 102 -25q89 0 148 61t59 149q0 69 -42 130zM180 112l273 321q-59 46 -126 46
q-85 0 -146 -64t-61 -152q0 -89 60 -151z" />
    <glyph glyph-name="ugrave" unicode="&#xf9;" horiz-adv-x="608" 
d="M462 272v259h72v-275q0 -134 -59 -201.5t-174 -67.5t-174.5 68t-59.5 201v275h72v-259q0 -102 15 -134q19 -40 57.5 -62.5t89.5 -22.5q75 0 120 47q20 21 29.5 50t10.5 50.5t1 71.5zM169 781h105l107 -151h-68z" />
    <glyph glyph-name="uacute" unicode="&#xfa;" horiz-adv-x="608" 
d="M462 272v259h72v-275q0 -134 -59 -201.5t-174 -67.5t-174.5 68t-59.5 201v275h72v-259q0 -102 15 -134q19 -40 57.5 -62.5t89.5 -22.5q75 0 120 47q20 21 29.5 50t10.5 50.5t1 71.5zM231 630l107 151h105l-145 -151h-67z" />
    <glyph glyph-name="ucircumflex" unicode="&#xfb;" horiz-adv-x="608" 
d="M462 272v259h72v-275q0 -134 -59 -201.5t-174 -67.5t-174.5 68t-59.5 201v275h72v-259q0 -102 15 -134q19 -40 57.5 -62.5t89.5 -22.5q75 0 120 47q20 21 29.5 50t10.5 50.5t1 71.5zM127 628l145 125h68l142 -125h-89l-86 74l-89 -74h-91z" />
    <glyph glyph-name="udieresis" unicode="&#xfc;" horiz-adv-x="608" 
d="M462 272v259h72v-275q0 -134 -59 -201.5t-174 -67.5t-174.5 68t-59.5 201v275h72v-259q0 -102 15 -134q19 -40 57.5 -62.5t89.5 -22.5q75 0 120 47q20 21 29.5 50t10.5 50.5t1 71.5zM205 741q23 0 39.5 -17t16.5 -40t-16.5 -39.5t-39.5 -16.5t-40 16.5t-17 39.5t17 40
t40 17zM404 741q23 0 39.5 -17t16.5 -40t-16.5 -39.5t-39.5 -16.5t-40 16.5t-17 39.5t17 40t40 17z" />
    <glyph glyph-name="yacute" unicode="&#xfd;" horiz-adv-x="536" 
d="M237 40l-218 491h72l183 -409l177 409h73l-317 -725h-72zM195 630l107 151h105l-145 -151h-67z" />
    <glyph glyph-name="thorn" unicode="&#xfe;" horiz-adv-x="682" 
d="M77 -194v930h69v-302q80 111 210 111q115 0 195 -82t80 -196q0 -115 -79 -198t-194 -83q-125 0 -212 105v-285h-69zM351 479q-89 0 -150 -62t-61 -154q0 -95 62.5 -154.5t148.5 -59.5q88 0 149 64t61 152q0 87 -60 150.5t-150 63.5z" />
    <glyph glyph-name="ydieresis" unicode="&#xff;" horiz-adv-x="536" 
d="M237 40l-218 491h72l183 -409l177 409h73l-317 -725h-72zM169 741q23 0 39.5 -17t16.5 -40t-16.5 -39.5t-39.5 -16.5t-40 16.5t-17 39.5t17 40t40 17zM368 741q23 0 39.5 -17t16.5 -40t-16.5 -39.5t-39.5 -16.5t-40 16.5t-17 39.5t17 40t40 17z" />
    <glyph glyph-name="Amacron" unicode="&#x100;" horiz-adv-x="740" 
d="M364 718h17l335 -718h-77l-113 236h-310l-112 -236h-80zM494 306l-122 260l-124 -260h246zM196 813v60h337v-60h-337z" />
    <glyph glyph-name="amacron" unicode="&#x101;" horiz-adv-x="683" 
d="M538 434v97h67v-531h-67v91q-86 -104 -214 -104q-115 0 -193.5 82.5t-78.5 197.5q0 114 79.5 196t194.5 82q132 0 212 -111zM332 479q-90 0 -150 -63.5t-60 -150.5q0 -88 60.5 -152t148.5 -64q86 0 149 59.5t63 154.5q0 92 -61 154t-150 62zM179 663v60h337v-60h-337z
" />
    <glyph glyph-name="Abreve" unicode="&#x102;" horiz-adv-x="740" 
d="M364 718h17l335 -718h-77l-113 236h-310l-112 -236h-80zM494 306l-122 260l-124 -260h246zM483 895h62q-11 -45 -55 -74t-116 -29q-70 0 -116 27.5t-59 75.5h64q34 -51 111 -51q39 0 63.5 11t45.5 40z" />
    <glyph glyph-name="abreve" unicode="&#x103;" horiz-adv-x="683" 
d="M538 434v97h67v-531h-67v91q-86 -104 -214 -104q-115 0 -193.5 82.5t-78.5 197.5q0 114 79.5 196t194.5 82q132 0 212 -111zM332 479q-90 0 -150 -63.5t-60 -150.5q0 -88 60.5 -152t148.5 -64q86 0 149 59.5t63 154.5q0 92 -61 154t-150 62zM452 745h62q-11 -45 -55 -74
t-116 -29q-70 0 -116 27.5t-59 75.5h64q34 -51 111 -51q39 0 63.5 11t45.5 40z" />
    <glyph glyph-name="Aogonek" unicode="&#x104;" horiz-adv-x="740" 
d="M751 -145l-5 -42q-19 -4 -42 -4q-57 0 -84 26.5t-27 60.5q0 63 58 104h-12l-113 236h-310l-112 -236h-80l340 718h17l335 -718h-12q-59 -51 -59 -93q0 -23 18 -39t54 -16q7 0 34 3zM494 306l-122 260l-124 -260h246z" />
    <glyph glyph-name="aogonek" unicode="&#x105;" horiz-adv-x="683" 
d="M643 -145l-5 -42q-19 -4 -42 -4q-57 0 -84 26.5t-27 60.5q0 63 58 104h-5v91q-86 -104 -214 -104q-115 0 -193.5 82.5t-78.5 197.5q0 114 79.5 196t194.5 82q132 0 212 -111v97h67v-531h-9q-59 -51 -59 -93q0 -23 18 -39t54 -16q7 0 34 3zM332 479q-90 0 -150 -63.5
t-60 -150.5q0 -88 60.5 -152t148.5 -64q86 0 149 59.5t63 154.5q0 92 -61 154t-150 62z" />
    <glyph glyph-name="Cacute" unicode="&#x106;" horiz-adv-x="813" 
d="M756 585l-57 -43q-94 124 -256 124q-130 0 -221.5 -87t-91.5 -222q0 -133 90.5 -220.5t226.5 -87.5q150 0 252 119l57 -43q-113 -142 -314 -142q-176 0 -281.5 108.5t-105.5 271.5q0 160 110 266.5t277 106.5q206 0 314 -151zM364 780l107 151h105l-145 -151h-67z" />
    <glyph glyph-name="cacute" unicode="&#x107;" horiz-adv-x="647" 
d="M537 142l55 -35q-79 -120 -249 -120q-128 0 -210 80t-82 194q0 119 84 201.5t213 82.5q78 0 143 -32t101 -92l-55 -34q-70 92 -192 92q-99 0 -161.5 -62.5t-62.5 -150.5q0 -90 62.5 -153.5t162.5 -63.5q116 0 191 93zM280 630l107 151h105l-145 -151h-67z" />
    <glyph glyph-name="Ccircumflex" unicode="&#x108;" horiz-adv-x="813" 
d="M756 585l-57 -43q-94 124 -256 124q-130 0 -221.5 -87t-91.5 -222q0 -133 90.5 -220.5t226.5 -87.5q150 0 252 119l57 -43q-113 -142 -314 -142q-176 0 -281.5 108.5t-105.5 271.5q0 160 110 266.5t277 106.5q206 0 314 -151zM266 778l145 125h68l142 -125h-89l-86 74
l-89 -74h-91z" />
    <glyph glyph-name="ccircumflex" unicode="&#x109;" horiz-adv-x="647" 
d="M537 142l55 -35q-79 -120 -249 -120q-128 0 -210 80t-82 194q0 119 84 201.5t213 82.5q78 0 143 -32t101 -92l-55 -34q-70 92 -192 92q-99 0 -161.5 -62.5t-62.5 -150.5q0 -90 62.5 -153.5t162.5 -63.5q116 0 191 93zM174 628l145 125h68l142 -125h-89l-86 74l-89 -74
h-91z" />
    <glyph glyph-name="Cdotaccent" unicode="&#x10a;" horiz-adv-x="813" 
d="M756 585l-57 -43q-94 124 -256 124q-130 0 -221.5 -87t-91.5 -222q0 -133 90.5 -220.5t226.5 -87.5q150 0 252 119l57 -43q-113 -142 -314 -142q-176 0 -281.5 108.5t-105.5 271.5q0 160 110 266.5t277 106.5q206 0 314 -151zM441 891q23 0 39.5 -17t16.5 -40
t-16.5 -39.5t-39.5 -16.5t-40 16.5t-17 39.5t17 40t40 17z" />
    <glyph glyph-name="cdotaccent" unicode="&#x10b;" horiz-adv-x="647" 
d="M537 142l55 -35q-79 -120 -249 -120q-128 0 -210 80t-82 194q0 119 84 201.5t213 82.5q78 0 143 -32t101 -92l-55 -34q-70 92 -192 92q-99 0 -161.5 -62.5t-62.5 -150.5q0 -90 62.5 -153.5t162.5 -63.5q116 0 191 93zM344 741q23 0 39.5 -17t16.5 -40t-16.5 -39.5
t-39.5 -16.5t-40 16.5t-17 39.5t17 40t40 17z" />
    <glyph glyph-name="Ccaron" unicode="&#x10c;" horiz-adv-x="813" 
d="M756 585l-57 -43q-94 124 -256 124q-130 0 -221.5 -87t-91.5 -222q0 -133 90.5 -220.5t226.5 -87.5q150 0 252 119l57 -43q-113 -142 -314 -142q-176 0 -281.5 108.5t-105.5 271.5q0 160 110 266.5t277 106.5q206 0 314 -151zM623 903l-145 -125h-68l-142 125h88l86 -74
l90 74h91z" />
    <glyph glyph-name="ccaron" unicode="&#x10d;" horiz-adv-x="647" 
d="M537 142l55 -35q-79 -120 -249 -120q-128 0 -210 80t-82 194q0 119 84 201.5t213 82.5q78 0 143 -32t101 -92l-55 -34q-70 92 -192 92q-99 0 -161.5 -62.5t-62.5 -150.5q0 -90 62.5 -153.5t162.5 -63.5q116 0 191 93zM523 753l-145 -125h-68l-142 125h88l86 -74l90 74h91
z" />
    <glyph glyph-name="Dcaron" unicode="&#x10e;" horiz-adv-x="744" 
d="M87 0v718h177q142 0 223 -33q97 -39 151.5 -127.5t54.5 -206.5q0 -158 -93 -254.5t-262 -96.5h-251zM159 70h106q113 0 179 17.5t111 72.5q63 77 63 190q0 112 -60 190q-48 63 -124 85.5t-202 22.5h-73v-578zM496 903l-145 -125h-68l-142 125h88l86 -74l90 74h91z" />
    <glyph glyph-name="dcaron" unicode="&#x10f;" horiz-adv-x="685" 
d="M539 0v91q-86 -104 -214 -104q-115 0 -193.5 82.5t-78.5 197.5q0 114 79.5 196t194.5 82q133 0 212 -111v302h68v-736h-68zM333 479q-90 0 -150 -63.5t-60 -150.5q0 -88 60.5 -152t148.5 -64q86 0 148.5 59.5t62.5 154.5q0 92 -60.5 154t-149.5 62zM683 508q22 42 28 74
q7 29 7 83v71h-75v-114h37q-3 -43 -29 -95z" />
    <glyph glyph-name="Dcroat" unicode="&#x110;" horiz-adv-x="790" 
d="M105 0v326h-88v67h88v325h206q142 0 223 -33q97 -39 151.5 -127.5t54.5 -206.5q0 -158 -93 -254.5t-262 -96.5h-280zM362 326h-189v-256h139q114 0 179.5 17.5t111.5 72.5q62 74 62 190q0 113 -59 190q-49 63 -125.5 85.5t-202.5 22.5h-105v-255h189v-67z" />
    <glyph glyph-name="dcroat" unicode="&#x111;" horiz-adv-x="685" 
d="M606 736v-86h79v-56h-79v-594h-67v91q-87 -105 -213 -105q-114 0 -193 82q-80 83 -80 199q0 114 80 196q81 82 195 82q130 0 211 -111v160h-149v56h149v86h67zM333 479q-84 4 -148.5 -62t-62.5 -152q-2 -86 63 -152.5t148 -63.5q86 -1 150 62t60 152q0 93 -61 154
q-60 62 -149 62z" />
    <glyph glyph-name="Emacron" unicode="&#x112;" horiz-adv-x="536" 
d="M88 0v718h410v-70h-338v-225h338v-70h-338v-283h338v-70h-410zM114 813v60h337v-60h-337z" />
    <glyph glyph-name="emacron" unicode="&#x113;" horiz-adv-x="650" 
d="M599 260h-478q2 -92 58.5 -151.5t141.5 -59.5q75 0 121 34t82 93l57 -30q-81 -159 -253 -159q-126 0 -201.5 82t-75.5 195t76.5 197t196.5 84q116 0 195 -78t80 -207zM128 320h396q-20 79 -73.5 119t-125.5 40q-151 0 -197 -159zM152 663v60h337v-60h-337z" />
    <glyph glyph-name="Ebreve" unicode="&#x114;" horiz-adv-x="536" 
d="M88 0v718h410v-70h-338v-225h338v-70h-338v-283h338v-70h-410zM402 895h62q-11 -45 -55 -74t-116 -29q-70 0 -116 27.5t-59 75.5h64q34 -51 111 -51q39 0 63.5 11t45.5 40z" />
    <glyph glyph-name="ebreve" unicode="&#x115;" horiz-adv-x="650" 
d="M599 260h-478q2 -92 58.5 -151.5t141.5 -59.5q75 0 121 34t82 93l57 -30q-81 -159 -253 -159q-126 0 -201.5 82t-75.5 195t76.5 197t196.5 84q116 0 195 -78t80 -207zM128 320h396q-20 79 -73.5 119t-125.5 40q-151 0 -197 -159zM431 745h62q-11 -45 -55 -74t-116 -29
q-70 0 -116 27.5t-59 75.5h64q34 -51 111 -51q39 0 63.5 11t45.5 40z" />
    <glyph glyph-name="Edotaccent" unicode="&#x116;" horiz-adv-x="536" 
d="M88 0v718h410v-70h-338v-225h338v-70h-338v-283h338v-70h-410zM295 891q23 0 39.5 -17t16.5 -40t-16.5 -39.5t-39.5 -16.5t-40 16.5t-17 39.5t17 40t40 17z" />
    <glyph glyph-name="edotaccent" unicode="&#x117;" horiz-adv-x="650" 
d="M599 260h-478q2 -92 58.5 -151.5t141.5 -59.5q75 0 121 34t82 93l57 -30q-81 -159 -253 -159q-126 0 -201.5 82t-75.5 195t76.5 197t196.5 84q116 0 195 -78t80 -207zM128 320h396q-20 79 -73.5 119t-125.5 40q-151 0 -197 -159zM315 741q23 0 39.5 -17t16.5 -40
t-16.5 -39.5t-39.5 -16.5t-40 16.5t-17 39.5t17 40t40 17z" />
    <glyph glyph-name="Eogonek" unicode="&#x118;" horiz-adv-x="536" 
d="M88 0v718h410v-70h-338v-225h338v-70h-338v-283h338v-70h-44q-59 -51 -59 -93q0 -23 18 -39t54 -16q7 0 34 3l-5 -42q-19 -4 -42 -4q-57 0 -84 26.5t-27 60.5q0 63 58 104h-313z" />
    <glyph glyph-name="eogonek" unicode="&#x119;" horiz-adv-x="650" 
d="M458 -145l-5 -42q-19 -4 -42 -4q-57 0 -84 26.5t-27 60.5q0 53 42 92q-2 0 -7 -0.5t-7 -0.5q-126 0 -201.5 82t-75.5 195t76.5 197t196.5 84q116 0 195 -78t80 -207h-478q2 -92 58.5 -151.5t141.5 -59.5q75 0 121 34t82 93l57 -30q-61 -120 -175 -149q-54 -49 -54 -90
q0 -23 18 -39t54 -16q7 0 34 3zM128 320h396q-20 79 -73.5 119t-125.5 40q-151 0 -197 -159z" />
    <glyph glyph-name="Ecaron" unicode="&#x11a;" horiz-adv-x="536" 
d="M88 0v718h410v-70h-338v-225h338v-70h-338v-283h338v-70h-410zM473 903l-145 -125h-68l-142 125h88l86 -74l90 74h91z" />
    <glyph glyph-name="ecaron" unicode="&#x11b;" horiz-adv-x="650" 
d="M599 260h-478q2 -92 58.5 -151.5t141.5 -59.5q75 0 121 34t82 93l57 -30q-81 -159 -253 -159q-126 0 -201.5 82t-75.5 195t76.5 197t196.5 84q116 0 195 -78t80 -207zM128 320h396q-20 79 -73.5 119t-125.5 40q-151 0 -197 -159zM508 753l-145 -125h-68l-142 125h88
l86 -74l90 74h91z" />
    <glyph glyph-name="Gcircumflex" unicode="&#x11c;" horiz-adv-x="872" 
d="M513 345h310q-1 -169 -99.5 -265.5t-261.5 -96.5q-181 0 -293 111t-112 265q0 156 110.5 266.5t283.5 110.5q182 0 329 -139l-55 -52q-124 121 -272 121q-131 0 -226 -88.5t-95 -216.5q0 -127 95 -219.5t237 -92.5q106 0 184.5 60.5t93.5 165.5h-229v70zM272 778l145 125
h68l142 -125h-89l-86 74l-89 -74h-91z" />
    <glyph glyph-name="gcircumflex" unicode="&#x11d;" horiz-adv-x="673" 
d="M603 531v-423q0 -76 -9 -126.5t-39 -91.5q-72 -97 -225 -97q-109 0 -173 41.5t-101 123.5h74q59 -103 196 -103q135 0 185 90q23 43 23 116v40q-80 -101 -213 -101q-112 0 -192 76.5t-80 192.5t82 196t190 80q123 0 213 -106v92h69zM332 479q-90 0 -151.5 -61t-61.5 -153
q0 -84 57 -141.5t158 -57.5q88 0 145.5 56t57.5 148q0 93 -60 151t-145 58zM172 628l145 125h68l142 -125h-89l-86 74l-89 -74h-91z" />
    <glyph glyph-name="Gbreve" unicode="&#x11e;" horiz-adv-x="872" 
d="M513 345h310q-1 -169 -99.5 -265.5t-261.5 -96.5q-181 0 -293 111t-112 265q0 156 110.5 266.5t283.5 110.5q182 0 329 -139l-55 -52q-124 121 -272 121q-131 0 -226 -88.5t-95 -216.5q0 -127 95 -219.5t237 -92.5q106 0 184.5 60.5t93.5 165.5h-229v70zM563 895h62
q-11 -45 -55 -74t-116 -29q-70 0 -116 27.5t-59 75.5h64q34 -51 111 -51q39 0 63.5 11t45.5 40z" />
    <glyph glyph-name="gbreve" unicode="&#x11f;" horiz-adv-x="673" 
d="M603 531v-423q0 -76 -9 -126.5t-39 -91.5q-72 -97 -225 -97q-109 0 -173 41.5t-101 123.5h74q59 -103 196 -103q135 0 185 90q23 43 23 116v40q-80 -101 -213 -101q-112 0 -192 76.5t-80 192.5t82 196t190 80q123 0 213 -106v92h69zM332 479q-90 0 -151.5 -61t-61.5 -153
q0 -84 57 -141.5t158 -57.5q88 0 145.5 56t57.5 148q0 93 -60 151t-145 58zM463 745h62q-11 -45 -55 -74t-116 -29q-70 0 -116 27.5t-59 75.5h64q34 -51 111 -51q39 0 63.5 11t45.5 40z" />
    <glyph glyph-name="Gdotaccent" unicode="&#x120;" horiz-adv-x="872" 
d="M513 345h310q-1 -169 -99.5 -265.5t-261.5 -96.5q-181 0 -293 111t-112 265q0 156 110.5 266.5t283.5 110.5q182 0 329 -139l-55 -52q-124 121 -272 121q-131 0 -226 -88.5t-95 -216.5q0 -127 95 -219.5t237 -92.5q106 0 184.5 60.5t93.5 165.5h-229v70zM452 891
q23 0 39.5 -17t16.5 -40t-16.5 -39.5t-39.5 -16.5t-40 16.5t-17 39.5t17 40t40 17z" />
    <glyph glyph-name="gdotaccent" unicode="&#x121;" horiz-adv-x="673" 
d="M603 531v-423q0 -76 -9 -126.5t-39 -91.5q-72 -97 -225 -97q-109 0 -173 41.5t-101 123.5h74q59 -103 196 -103q135 0 185 90q23 43 23 116v40q-80 -101 -213 -101q-112 0 -192 76.5t-80 192.5t82 196t190 80q123 0 213 -106v92h69zM332 479q-90 0 -151.5 -61t-61.5 -153
q0 -84 57 -141.5t158 -57.5q88 0 145.5 56t57.5 148q0 93 -60 151t-145 58zM327 741q23 0 39.5 -17t16.5 -40t-16.5 -39.5t-39.5 -16.5t-40 16.5t-17 39.5t17 40t40 17z" />
    <glyph glyph-name="Gcommaaccent" unicode="&#x122;" horiz-adv-x="872" 
d="M513 345h310q-1 -169 -99.5 -265.5t-261.5 -96.5q-181 0 -293 111t-112 265q0 156 110.5 266.5t283.5 110.5q182 0 329 -139l-55 -52q-124 121 -272 121q-131 0 -226 -88.5t-95 -216.5q0 -127 95 -219.5t237 -92.5q106 0 184.5 60.5t93.5 165.5h-229v70zM409 -101l6 39
q21 7 46 7q77 0 77 -53q0 -34 -31 -56t-81 -22q-29 0 -71 11l11 35q31 -7 50 -7q64 0 64 32q0 21 -36 21q-14 0 -35 -7z" />
    <glyph glyph-name="gcommaaccent" unicode="&#x123;" horiz-adv-x="673" 
d="M603 531v-423q0 -76 -9 -126.5t-39 -91.5q-72 -97 -225 -97q-109 0 -173 41.5t-101 123.5h74q59 -103 196 -103q135 0 185 90q23 43 23 116v40q-80 -101 -213 -101q-112 0 -192 76.5t-80 192.5t82 196t190 80q123 0 213 -106v92h69zM332 479q-90 0 -151.5 -61t-61.5 -153
q0 -84 57 -141.5t158 -57.5q88 0 145.5 56t57.5 148q0 93 -60 151t-145 58zM396 768l-69 -147l-55 23l84 139z" />
    <glyph glyph-name="Hcircumflex" unicode="&#x124;" horiz-adv-x="683" 
d="M87 0v718h72v-301h366v301h72v-718h-72v347h-366v-347h-72zM164 778l145 125h68l142 -125h-89l-86 74l-89 -74h-91z" />
    <glyph glyph-name="hcircumflex" unicode="&#x125;" horiz-adv-x="610" 
d="M76 0v736h68v-300q83 109 199 109q89 0 142.5 -62t53.5 -178v-305h-68v289q0 97 -33 145.5t-108 48.5q-85 0 -140 -72q-28 -36 -37 -77.5t-9 -110.5v-223h-68zM-60 783l145 125h68l142 -125h-89l-86 74l-89 -74h-91z" />
    <glyph glyph-name="Hbar" unicode="&#x126;" horiz-adv-x="683" 
d="M159 718v-113h365v113h72v-113h65v-67h-65v-538h-72v347h-365v-347h-72v538h-65v67h65v113h72zM524 538h-365v-121h365v121z" />
    <glyph glyph-name="hbar" unicode="&#x127;" horiz-adv-x="610" 
d="M145 736v-74h182v-57h-182v-169q82 109 198 109q70 0 118 -39q48 -38 63 -90q16 -49 16 -143v-273h-69v253q0 95 -10 134q-10 43 -44 69t-87 26q-92 0 -146 -79q-25 -37 -32 -75q-7 -35 -7 -133v-195h-69v605h-74v57h74v74h69z" />
    <glyph glyph-name="Itilde" unicode="&#x128;" horiz-adv-x="226" 
d="M77 0v718h72v-718h-72zM194 854q32 0 74 24l34 -47q-59 -43 -110 -43q-34 0 -76 20.5t-63 20.5q-7 0 -13 -1t-12.5 -3.5t-10.5 -4t-11 -6t-9.5 -6t-10.5 -7.5t-10 -7l-32 50q44 47 110 47q29 0 74 -18.5t66 -18.5z" />
    <glyph glyph-name="itilde" unicode="&#x129;" horiz-adv-x="200" 
d="M67 0v531h68v-531h-68zM164 704q32 0 74 24l34 -47q-59 -43 -110 -43q-34 0 -76 20.5t-63 20.5q-7 0 -13 -1t-12.5 -3.5t-10.5 -4t-11 -6t-9.5 -6t-10.5 -7.5t-10 -7l-32 50q44 47 110 47q29 0 74 -18.5t66 -18.5z" />
    <glyph glyph-name="Imacron" unicode="&#x12a;" horiz-adv-x="226" 
d="M77 0v718h72v-718h-72zM-56 813v60h337v-60h-337z" />
    <glyph glyph-name="imacron" unicode="&#x12b;" horiz-adv-x="200" 
d="M67 0v531h68v-531h-68zM-74 663v60h337v-60h-337z" />
    <glyph glyph-name="Ibreve" unicode="&#x12c;" horiz-adv-x="226" 
d="M77 0v718h72v-718h-72zM229 895h62q-11 -45 -55 -74t-116 -29q-70 0 -116 27.5t-59 75.5h64q34 -51 111 -51q39 0 63.5 11t45.5 40z" />
    <glyph glyph-name="ibreve" unicode="&#x12d;" horiz-adv-x="200" 
d="M67 0v531h68v-531h-68zM209 745h62q-11 -45 -55 -74t-116 -29q-70 0 -116 27.5t-59 75.5h64q34 -51 111 -51q39 0 63.5 11t45.5 40z" />
    <glyph glyph-name="Iogonek" unicode="&#x12e;" horiz-adv-x="226" 
d="M77 0v718h72v-718h-5q-59 -51 -59 -93q0 -23 18 -39t54 -16q7 0 34 3l-5 -42q-19 -4 -42 -4q-57 0 -84 26.5t-27 60.5q0 63 58 104h-14z" />
    <glyph glyph-name="iogonek" unicode="&#x12f;" horiz-adv-x="200" 
d="M67 0v531h68v-531h-6q-59 -51 -59 -93q0 -23 18 -39t54 -16q7 0 34 3l-5 -42q-19 -4 -42 -4q-57 0 -84 26.5t-27 60.5q0 63 58 104h-9zM100 750q23 0 40 -16.5t17 -39.5t-17 -40t-40 -17t-39.5 17t-16.5 40q0 24 16.5 40t39.5 16z" />
    <glyph glyph-name="Idotaccent" unicode="&#x130;" horiz-adv-x="226" 
d="M77 0v718h72v-718h-72zM112 891q23 0 39.5 -17t16.5 -40t-16.5 -39.5t-39.5 -16.5t-40 16.5t-17 39.5t17 40t40 17z" />
    <glyph glyph-name="dotlessi" unicode="&#x131;" horiz-adv-x="200" 
d="M67 0v531h68v-531h-68z" />
    <glyph glyph-name="IJ" unicode="&#x132;" horiz-adv-x="708" 
d="M77 0v718h72v-718h-72zM258 58l38 57q92 -66 141 -66q47 0 75 38q26 35 26 123v508h72v-510q0 -125 -45 -175t-128 -50q-89 0 -179 75z" />
    <glyph glyph-name="ij" unicode="&#x133;" horiz-adv-x="403" 
d="M67 0v531h68v-531h-68zM100 750q23 0 40 -16.5t17 -39.5t-17 -40t-40 -17t-39.5 17t-16.5 40q0 24 16.5 40t39.5 16zM269 -80v611h68v-611q0 -129 -91 -129q-32 0 -77 17v62q26 -13 49 -13q51 0 51 63zM302 750q23 0 40 -16.5t17 -39.5t-17 -40t-40 -17t-39.5 17
t-16.5 40t16.5 39.5t39.5 16.5z" />
    <glyph glyph-name="Jcircumflex" unicode="&#x134;" horiz-adv-x="482" 
d="M42 58l38 57q92 -66 141 -66q47 0 75 38q26 35 26 123v508h72v-510q0 -125 -45 -175t-128 -50q-89 0 -179 75zM184 778l145 125h68l142 -125h-89l-86 74l-89 -74h-91z" />
    <glyph glyph-name="jcircumflex" unicode="&#x135;" horiz-adv-x="203" 
d="M69 -80v611h68v-611q0 -129 -91 -129q-32 0 -77 17v62q26 -13 49 -13q51 0 51 63zM-73 628l145 125h68l142 -125h-89l-86 74l-89 -74h-91z" />
    <glyph glyph-name="Kcommaaccent" unicode="&#x136;" horiz-adv-x="591" 
d="M88 0v718h72v-269l287 269h97l-345 -322l372 -396h-95l-316 335v-335h-72zM259 -101l6 39q21 7 46 7q77 0 77 -53q0 -34 -31 -56t-81 -22q-29 0 -71 11l11 35q31 -7 50 -7q64 0 64 32q0 21 -36 21q-14 0 -35 -7z" />
    <glyph glyph-name="kcommaaccent" unicode="&#x137;" horiz-adv-x="502" 
d="M77 0v736h68v-419l245 214h101l-291 -253l308 -278h-97l-266 239v-239h-68zM215 -101l6 39q21 7 46 7q77 0 77 -53q0 -34 -31 -56t-81 -22q-29 0 -71 11l11 35q31 -7 50 -7q64 0 64 32q0 21 -36 21q-14 0 -35 -7z" />
    <glyph glyph-name="kgreenlandic" unicode="&#x138;" horiz-adv-x="502" 
d="M77 0v531h68v-214l245 214h101l-291 -253l308 -278h-97l-266 239v-239h-68z" />
    <glyph glyph-name="Lacute" unicode="&#x139;" horiz-adv-x="463" 
d="M88 0v718h72v-648h276v-70h-348zM163 780l107 151h105l-145 -151h-67z" />
    <glyph glyph-name="lacute" unicode="&#x13a;" horiz-adv-x="200" 
d="M66 0v736h68v-736h-68zM49 798l107 151h105l-145 -151h-67z" />
    <glyph glyph-name="Lcommaaccent" unicode="&#x13b;" horiz-adv-x="463" 
d="M88 0v718h72v-648h276v-70h-348zM209 -101l6 39q21 7 46 7q77 0 77 -53q0 -34 -31 -56t-81 -22q-29 0 -71 11l11 35q31 -7 50 -7q64 0 64 32q0 21 -36 21q-14 0 -35 -7z" />
    <glyph glyph-name="lcommaaccent" unicode="&#x13c;" horiz-adv-x="200" 
d="M66 0v736h68v-736h-68zM55 -101l6 39q21 7 46 7q77 0 77 -53q0 -34 -31 -56t-81 -22q-29 0 -71 11l11 35q31 -7 50 -7q64 0 64 32q0 21 -36 21q-14 0 -35 -7z" />
    <glyph glyph-name="Lcaron" unicode="&#x13d;" horiz-adv-x="463" 
d="M88 0v718h72v-648h276v-70h-348zM276 490q22 42 28 74q7 29 7 83v71h-75v-114h37q-3 -43 -29 -95z" />
    <glyph glyph-name="lcaron" unicode="&#x13e;" horiz-adv-x="200" 
d="M66 0v736h68v-736h-68zM210 508q22 42 28 74q7 29 7 83v71h-75v-114h37q-3 -43 -29 -95z" />
    <glyph glyph-name="Ldot" unicode="&#x13f;" horiz-adv-x="463" 
d="M88 0v718h72v-648h276v-70h-348zM290 449q24 0 42 -18.5t18 -43.5t-17.5 -42.5t-42.5 -17.5t-42.5 17.5t-17.5 42.5t17.5 43.5t42.5 18.5z" />
    <glyph glyph-name="ldot" unicode="&#x140;" horiz-adv-x="298" 
d="M66 0v736h68v-736h-68zM254 458q24 0 42 -18.5t18 -43.5t-17.5 -42.5t-42.5 -17.5t-42.5 17.5t-17.5 42.5t17.5 43.5t42.5 18.5z" />
    <glyph glyph-name="Lslash" unicode="&#x141;" horiz-adv-x="517" 
d="M215 718v-299l129 108v-86l-129 -108v-263h276v-70h-348v273l-99 -82v85l99 82v360h72z" />
    <glyph glyph-name="lslash" unicode="&#x142;" horiz-adv-x="300" 
d="M184 736v-262l98 63v-68l-98 -63v-406h-68v362l-90 -58v68l90 58v306h68z" />
    <glyph glyph-name="Nacute" unicode="&#x143;" horiz-adv-x="740" 
d="M161 0h-72v718h15l476 -550v550h72v-718h-16l-475 543v-543zM341 780l107 151h105l-145 -151h-67z" />
    <glyph glyph-name="nacute" unicode="&#x144;" horiz-adv-x="610" 
d="M144 531v-95q83 109 199 109q90 0 143.5 -63t53.5 -184v-298h-68v289q0 97 -33.5 145.5t-108.5 48.5q-85 0 -140 -72q-28 -37 -37 -78t-9 -110v-223h-68v531h68zM249 630l107 151h105l-145 -151h-67z" />
    <glyph glyph-name="Ncommaaccent" unicode="&#x145;" horiz-adv-x="740" 
d="M161 0h-72v718h15l476 -550v550h72v-718h-16l-475 543v-543zM334 -101l6 39q21 7 46 7q77 0 77 -53q0 -34 -31 -56t-81 -22q-29 0 -71 11l11 35q31 -7 50 -7q64 0 64 32q0 21 -36 21q-14 0 -35 -7z" />
    <glyph glyph-name="ncommaaccent" unicode="&#x146;" horiz-adv-x="610" 
d="M144 531v-95q83 109 199 109q90 0 143.5 -63t53.5 -184v-298h-68v289q0 97 -33.5 145.5t-108.5 48.5q-85 0 -140 -72q-28 -37 -37 -78t-9 -110v-223h-68v531h68zM250 -101l6 39q21 7 46 7q77 0 77 -53q0 -34 -31 -56t-81 -22q-29 0 -71 11l11 35q31 -7 50 -7q64 0 64 32
q0 21 -36 21q-14 0 -35 -7z" />
    <glyph glyph-name="Ncaron" unicode="&#x147;" horiz-adv-x="740" 
d="M161 0h-72v718h15l476 -550v550h72v-718h-16l-475 543v-543zM548 903l-145 -125h-68l-142 125h88l86 -74l90 74h91z" />
    <glyph glyph-name="ncaron" unicode="&#x148;" horiz-adv-x="610" 
d="M144 531v-95q83 109 199 109q90 0 143.5 -63t53.5 -184v-298h-68v289q0 97 -33.5 145.5t-108.5 48.5q-85 0 -140 -72q-28 -37 -37 -78t-9 -110v-223h-68v531h68zM499 753l-145 -125h-68l-142 125h88l86 -74l90 74h91z" />
    <glyph glyph-name="napostrophe" unicode="&#x149;" horiz-adv-x="612" 
d="M79 0v531h68v-95q82 109 199 109q60 0 106 -31q45 -29 68 -81q22 -50 22 -160v-273h-68v253q0 89 -8 123q-24 106 -133 106q-62 0 -112 -41q-49 -40 -64 -102q-10 -37 -10 -144v-195h-68zM13 468l-38 22q19 36 25 58q6 21 9 54h-43v134h89v-84q0 -63 -9 -99
q-8 -36 -33 -85z" />
    <glyph glyph-name="Eng" unicode="&#x14a;" horiz-adv-x="777" 
d="M258 74l52 44q50 -68 127 -68q91 0 150 89q59 91 59 222q0 135 -76 220q-76 87 -187 87q-65 0 -124.5 -33.5t-99.5 -88.5v-546h-72v718h72v-87q96 105 234 105q144 0 236 -110t92 -271q0 -165 -82 -269q-81 -104 -204 -104q-106 0 -177 92z" />
    <glyph glyph-name="eng" unicode="&#x14b;" horiz-adv-x="610" 
d="M540 273v-353q0 -128 -92 -128q-34 0 -76 17v61q26 -14 49 -14q20 0 31 10q12 10 16 24t4 50v313q0 92 -11 134q-10 43 -44 69t-87 26q-92 0 -146 -79q-25 -37 -32 -75q-7 -35 -7 -133v-195h-69v531h69v-95q82 109 198 109q68 0 117 -38q47 -37 64 -90q16 -49 16 -144z
" />
    <glyph glyph-name="Omacron" unicode="&#x14c;" horiz-adv-x="869" 
d="M429 736q163 0 273.5 -108t110.5 -269q0 -159 -109.5 -268t-268.5 -109q-163 0 -271 110t-108 264q0 160 108.5 270t264.5 110zM433 666q-122 0 -212 -88t-90 -222q0 -130 89 -217t213 -87q128 0 216.5 87.5t88.5 220.5t-91 219.5t-214 86.5zM263 813v60h337v-60h-337z
" />
    <glyph glyph-name="omacron" unicode="&#x14d;" horiz-adv-x="655" 
d="M328 545q118 0 197.5 -82.5t79.5 -198.5q0 -115 -79.5 -196.5t-197.5 -81.5t-197.5 81.5t-79.5 196.5q0 116 79.5 198.5t197.5 82.5zM328 479q-85 0 -146 -63.5t-61 -152.5q0 -88 59 -149.5t148 -61.5q88 0 147.5 61.5t59.5 149.5t-61 152t-146 64zM156 663v60h337v-60
h-337z" />
    <glyph glyph-name="Obreve" unicode="&#x14e;" horiz-adv-x="869" 
d="M429 736q163 0 273.5 -108t110.5 -269q0 -159 -109.5 -268t-268.5 -109q-163 0 -271 110t-108 264q0 160 108.5 270t264.5 110zM433 666q-122 0 -212 -88t-90 -222q0 -130 89 -217t213 -87q128 0 216.5 87.5t88.5 220.5t-91 219.5t-214 86.5zM539 895h62q-11 -45 -55 -74
t-116 -29q-70 0 -116 27.5t-59 75.5h64q34 -51 111 -51q39 0 63.5 11t45.5 40z" />
    <glyph glyph-name="obreve" unicode="&#x14f;" horiz-adv-x="655" 
d="M328 545q118 0 197.5 -82.5t79.5 -198.5q0 -115 -79.5 -196.5t-197.5 -81.5t-197.5 81.5t-79.5 196.5q0 116 79.5 198.5t197.5 82.5zM328 479q-85 0 -146 -63.5t-61 -152.5q0 -88 59 -149.5t148 -61.5q88 0 147.5 61.5t59.5 149.5t-61 152t-146 64zM434 745h62
q-11 -45 -55 -74t-116 -29q-70 0 -116 27.5t-59 75.5h64q34 -51 111 -51q39 0 63.5 11t45.5 40z" />
    <glyph glyph-name="Ohungarumlaut" unicode="&#x150;" horiz-adv-x="869" 
d="M429 736q163 0 273.5 -108t110.5 -269q0 -159 -109.5 -268t-268.5 -109q-163 0 -271 110t-108 264q0 160 108.5 270t264.5 110zM433 666q-122 0 -212 -88t-90 -222q0 -130 89 -217t213 -87q128 0 216.5 87.5t88.5 220.5t-91 219.5t-214 86.5zM306 780l107 151h105
l-145 -151h-67zM460 780l107 151h105l-144 -151h-68z" />
    <glyph glyph-name="ohungarumlaut" unicode="&#x151;" horiz-adv-x="655" 
d="M328 545q118 0 197.5 -82.5t79.5 -198.5q0 -115 -79.5 -196.5t-197.5 -81.5t-197.5 81.5t-79.5 196.5q0 116 79.5 198.5t197.5 82.5zM328 479q-85 0 -146 -63.5t-61 -152.5q0 -88 59 -149.5t148 -61.5q88 0 147.5 61.5t59.5 149.5t-61 152t-146 64zM204 630l107 151h105
l-145 -151h-67zM358 630l107 151h105l-144 -151h-68z" />
    <glyph glyph-name="OE" unicode="&#x152;" horiz-adv-x="1194" 
d="M743 0v139q-62 -78 -132.5 -117.5t-173.5 -39.5q-111 0 -199 53.5t-134.5 138.5t-46.5 182q0 160 111 270t270 110q87 0 167 -40.5t138 -116.5v139h410v-70h-339v-224h339v-70h-339v-284h339v-70h-410zM435 666q-121 0 -212 -90.5t-91 -214.5q0 -128 89 -218.5t220 -90.5
q127 0 215 90.5t88 217.5q0 131 -93.5 218.5t-215.5 87.5z" />
    <glyph glyph-name="oe" unicode="&#x153;" horiz-adv-x="1138" 
d="M810 545q117 0 195 -80.5t78 -188.5q0 -2 -0.5 -9t-0.5 -8h-476q6 -101 64 -154.5t143 -53.5q136 0 195 125l58 -30q-45 -83 -106 -122t-149 -39q-48 0 -87 11t-67.5 33.5t-46.5 42t-39 49.5q-90 -136 -239 -136q-116 0 -196.5 82.5t-80.5 200.5q0 120 83 198.5t194 78.5
q147 0 239 -141q45 70 102 105.5t137 35.5zM329 479q-85 0 -144.5 -62.5t-59.5 -151.5q0 -91 62 -152.5t147 -61.5q84 0 144 59.5t60 152.5q0 90 -60 153t-149 63zM612 319h396q-20 78 -73 119t-124 41q-70 0 -123.5 -40t-75.5 -120z" />
    <glyph glyph-name="Racute" unicode="&#x154;" horiz-adv-x="607" 
d="M91 0v718h165q119 0 167 -18q56 -21 87 -66.5t31 -106.5q0 -47 -21 -89q-27 -55 -82 -79.5t-146 -24.5l259 -334h-89l-258 334h-41v-334h-72zM310 648h-147v-244q20 0 60 -0.5t59 -0.5q103 0 141 31q43 35 43 93q0 55 -39 88t-117 33zM197 780l107 151h105l-145 -151h-67
z" />
    <glyph glyph-name="racute" unicode="&#x155;" horiz-adv-x="301" 
d="M121 531v-77q63 91 137 91q30 0 61 -18l-36 -58q-20 10 -36 10q-38 0 -69 -31t-46 -85q-11 -42 -11 -161v-202h-72v531h72zM84 630l107 151h105l-145 -151h-67z" />
    <glyph glyph-name="Rcommaaccent" unicode="&#x156;" horiz-adv-x="607" 
d="M91 0v718h165q119 0 167 -18q56 -21 87 -66.5t31 -106.5q0 -47 -21 -89q-27 -55 -82 -79.5t-146 -24.5l259 -334h-89l-258 334h-41v-334h-72zM310 648h-147v-244q20 0 60 -0.5t59 -0.5q103 0 141 31q43 35 43 93q0 55 -39 88t-117 33zM251 -101l6 39q21 7 46 7
q77 0 77 -53q0 -34 -31 -56t-81 -22q-29 0 -71 11l11 35q31 -7 50 -7q64 0 64 32q0 21 -36 21q-14 0 -35 -7z" />
    <glyph glyph-name="rcommaaccent" unicode="&#x157;" horiz-adv-x="301" 
d="M121 531v-77q63 91 137 91q30 0 61 -18l-36 -58q-20 10 -36 10q-38 0 -69 -31t-46 -85q-11 -42 -11 -161v-202h-72v531h72zM60 -101l6 39q21 7 46 7q77 0 77 -53q0 -34 -31 -56t-81 -22q-29 0 -71 11l11 35q31 -7 50 -7q64 0 64 32q0 21 -36 21q-14 0 -35 -7z" />
    <glyph glyph-name="Rcaron" unicode="&#x158;" horiz-adv-x="607" 
d="M91 0v718h165q119 0 167 -18q56 -21 87 -66.5t31 -106.5q0 -47 -21 -89q-27 -55 -82 -79.5t-146 -24.5l259 -334h-89l-258 334h-41v-334h-72zM310 648h-147v-244q20 0 60 -0.5t59 -0.5q103 0 141 31q43 35 43 93q0 55 -39 88t-117 33zM445 903l-145 -125h-68l-142 125h88
l86 -74l90 74h91z" />
    <glyph glyph-name="rcaron" unicode="&#x159;" horiz-adv-x="301" 
d="M121 531v-77q63 91 137 91q30 0 61 -18l-36 -58q-20 10 -36 10q-38 0 -69 -31t-46 -85q-11 -42 -11 -161v-202h-72v531h72zM336 753l-145 -125h-68l-142 125h88l86 -74l90 74h91z" />
    <glyph glyph-name="Sacute" unicode="&#x15a;" horiz-adv-x="498" 
d="M421 619l-58 -45q-34 45 -63 66.5t-69 21.5q-44 0 -70.5 -27t-26.5 -64q0 -63 64 -111q124 -92 162 -130q72 -74 72 -155q0 -78 -58 -135.5t-144 -57.5q-72 0 -124 38t-93 114l61 37q65 -119 150 -119q56 0 94.5 35.5t38.5 86.5q0 17 -3.5 31.5t-15.5 31.5t-22 28.5
t-35.5 33.5t-41.5 35.5t-55.5 44.5t-63.5 51q-26 21 -43.5 59.5t-17.5 78.5q0 73 50 120.5t124 47.5q60 0 103.5 -30.5t84.5 -86.5zM161 780l107 151h105l-145 -151h-67z" />
    <glyph glyph-name="sacute" unicode="&#x15b;" horiz-adv-x="388" 
d="M26 62l43 49q53 -59 111 -59q40 0 69 25.5t29 62.5q0 50 -44 74q-108 60 -134 82q-50 43 -50 108q0 62 42 101.5t104 39.5q73 0 147 -72l-44 -45q-53 51 -107 51q-33 0 -56.5 -20.5t-23.5 -50.5q0 -20 11.5 -40.5t29.5 -30.5q13 -7 42.5 -24t39 -23t31.5 -20t28.5 -21
t19.5 -20.5t17 -25t8 -27t4 -33.5q0 -64 -45 -110.5t-115 -46.5q-45 0 -87 20t-70 56zM120 630l107 151h105l-145 -151h-67z" />
    <glyph glyph-name="Scircumflex" unicode="&#x15c;" horiz-adv-x="498" 
d="M421 619l-58 -45q-34 45 -63 66.5t-69 21.5q-44 0 -70.5 -27t-26.5 -64q0 -63 64 -111q124 -92 162 -130q72 -74 72 -155q0 -78 -58 -135.5t-144 -57.5q-72 0 -124 38t-93 114l61 37q65 -119 150 -119q56 0 94.5 35.5t38.5 86.5q0 17 -3.5 31.5t-15.5 31.5t-22 28.5
t-35.5 33.5t-41.5 35.5t-55.5 44.5t-63.5 51q-26 21 -43.5 59.5t-17.5 78.5q0 73 50 120.5t124 47.5q60 0 103.5 -30.5t84.5 -86.5zM53 778l145 125h68l142 -125h-89l-86 74l-89 -74h-91z" />
    <glyph glyph-name="scircumflex" unicode="&#x15d;" horiz-adv-x="388" 
d="M26 62l43 49q53 -59 111 -59q40 0 69 25.5t29 62.5q0 50 -44 74q-108 60 -134 82q-50 43 -50 108q0 62 42 101.5t104 39.5q73 0 147 -72l-44 -45q-53 51 -107 51q-33 0 -56.5 -20.5t-23.5 -50.5q0 -20 11.5 -40.5t29.5 -30.5q13 -7 42.5 -24t39 -23t31.5 -20t28.5 -21
t19.5 -20.5t17 -25t8 -27t4 -33.5q0 -64 -45 -110.5t-115 -46.5q-45 0 -87 20t-70 56zM23 628l145 125h68l142 -125h-89l-86 74l-89 -74h-91z" />
    <glyph glyph-name="uni015E" unicode="&#x15e;" horiz-adv-x="498" 
d="M196 -99l11 82q-119 11 -194 151l61 37q65 -119 150 -119q56 0 94.5 35.5t38.5 86.5q0 17 -3.5 31.5t-15.5 31.5t-22 28.5t-35.5 33.5t-41.5 35.5t-55.5 44.5t-63.5 51q-26 21 -43.5 59.5t-17.5 78.5q0 73 50 120.5t124 47.5q60 0 103.5 -30.5t84.5 -86.5l-58 -45
q-34 45 -63 66.5t-69 21.5q-44 0 -70.5 -27t-26.5 -64q0 -63 64 -111q124 -92 162 -130q72 -74 72 -155q0 -73 -52 -129t-131 -63l-5 -41q14 2 17 2q24 0 40.5 -14t16.5 -38q0 -34 -30.5 -56t-81.5 -22q-42 0 -81 15l11 34q30 -10 58 -10q66 0 66 32q0 21 -30 21
q-12 0 -34 -5z" />
    <glyph glyph-name="uni015F" unicode="&#x15f;" horiz-adv-x="388" 
d="M147 -99l11 87q-84 12 -132 74l43 49q53 -59 111 -59q40 0 69 25.5t29 62.5q0 50 -44 74q-108 60 -134 82q-50 43 -50 108q0 62 42 101.5t104 39.5q73 0 147 -72l-44 -45q-53 51 -107 51q-33 0 -56.5 -20.5t-23.5 -50.5q0 -20 11.5 -40.5t29.5 -30.5q13 -7 42.5 -24
t39 -23t31.5 -20t28.5 -21t19.5 -20.5t17 -25t8 -27t4 -33.5q0 -60 -39.5 -104.5t-102.5 -51.5l-6 -45q14 2 17 2q24 0 40.5 -14t16.5 -38q0 -34 -30.5 -56t-81.5 -22q-42 0 -81 15l11 34q30 -10 58 -10q66 0 66 32q0 21 -30 21q-11 0 -34 -5z" />
    <glyph glyph-name="Scaron" unicode="&#x160;" horiz-adv-x="498" 
d="M421 619l-58 -45q-34 45 -63 66.5t-69 21.5q-44 0 -70.5 -27t-26.5 -64q0 -63 64 -111q124 -92 162 -130q72 -74 72 -155q0 -78 -58 -135.5t-144 -57.5q-72 0 -124 38t-93 114l61 37q65 -119 150 -119q56 0 94.5 35.5t38.5 86.5q0 17 -3.5 31.5t-15.5 31.5t-22 28.5
t-35.5 33.5t-41.5 35.5t-55.5 44.5t-63.5 51q-26 21 -43.5 59.5t-17.5 78.5q0 73 50 120.5t124 47.5q60 0 103.5 -30.5t84.5 -86.5zM428 903l-145 -125h-68l-142 125h88l86 -74l90 74h91z" />
    <glyph glyph-name="scaron" unicode="&#x161;" horiz-adv-x="388" 
d="M26 62l43 49q53 -59 111 -59q40 0 69 25.5t29 62.5q0 50 -44 74q-108 60 -134 82q-50 43 -50 108q0 62 42 101.5t104 39.5q73 0 147 -72l-44 -45q-53 51 -107 51q-33 0 -56.5 -20.5t-23.5 -50.5q0 -20 11.5 -40.5t29.5 -30.5q13 -7 42.5 -24t39 -23t31.5 -20t28.5 -21
t19.5 -20.5t17 -25t8 -27t4 -33.5q0 -64 -45 -110.5t-115 -46.5q-45 0 -87 20t-70 56zM373 753l-145 -125h-68l-142 125h88l86 -74l90 74h91z" />
    <glyph glyph-name="Tcommaaccent" unicode="&#x162;" horiz-adv-x="426" 
d="M178 648h-162v70h394v-70h-160v-648h-72v648zM173 -101l6 39q21 7 46 7q77 0 77 -53q0 -34 -31 -56t-81 -22q-29 0 -71 11l11 35q31 -7 50 -7q64 0 64 32q0 21 -36 21q-14 0 -35 -7z" />
    <glyph glyph-name="tcommaaccent" unicode="&#x163;" horiz-adv-x="339" 
d="M137 531v198h68v-198h109v-60h-109v-471h-68v471h-94v60h94zM127 -101l6 39q21 7 46 7q77 0 77 -53q0 -34 -31 -56t-81 -22q-29 0 -71 11l11 35q31 -7 50 -7q64 0 64 32q0 21 -36 21q-14 0 -35 -7z" />
    <glyph glyph-name="Tcaron" unicode="&#x164;" horiz-adv-x="426" 
d="M178 648h-162v70h394v-70h-160v-648h-72v648zM396 903l-145 -125h-68l-142 125h88l86 -74l90 74h91z" />
    <glyph glyph-name="tcaron" unicode="&#x165;" horiz-adv-x="339" 
d="M289 568l-29 13q27 42 28 75h-34v80h68v-50q0 -40 -6 -63q-4 -22 -27 -55zM136 531v198h69v-198h108v-58h-108v-473h-69v473h-94v58h94z" />
    <glyph glyph-name="Tbar" unicode="&#x166;" horiz-adv-x="426" 
d="M250 648v-269h137v-67h-137v-312h-73v312h-137v67h137v269h-161v70h394v-70h-160z" />
    <glyph glyph-name="tbar" unicode="&#x167;" horiz-adv-x="339" 
d="M205 473v-177h120v-56h-120v-240h-69v240h-105v56h105v177h-94v58h94v198h69v-198h108v-58h-108z" />
    <glyph glyph-name="Utilde" unicode="&#x168;" horiz-adv-x="655" 
d="M494 262v456h72v-467q0 -126 -63.5 -197.5t-174.5 -71.5t-174.5 71.5t-63.5 197.5v467h72v-456q0 -37 1.5 -56t10 -47t26.5 -50q45 -57 128 -57t128 57q18 22 26.5 50t10 47t1.5 56zM394 854q32 0 74 24l34 -47q-59 -43 -110 -43q-34 0 -76 20.5t-63 20.5q-7 0 -13 -1
t-12.5 -3.5t-10.5 -4t-11 -6t-9.5 -6t-10.5 -7.5t-10 -7l-32 50q44 47 110 47q29 0 74 -18.5t66 -18.5z" />
    <glyph glyph-name="utilde" unicode="&#x169;" horiz-adv-x="608" 
d="M462 272v259h72v-275q0 -134 -59 -201.5t-174 -67.5t-174.5 68t-59.5 201v275h72v-259q0 -102 15 -134q19 -40 57.5 -62.5t89.5 -22.5q75 0 120 47q20 21 29.5 50t10.5 50.5t1 71.5zM369 704q32 0 74 24l34 -47q-59 -43 -110 -43q-34 0 -76 20.5t-63 20.5q-7 0 -13 -1
t-12.5 -3.5t-10.5 -4t-11 -6t-9.5 -6t-10.5 -7.5t-10 -7l-32 50q44 47 110 47q29 0 74 -18.5t66 -18.5z" />
    <glyph glyph-name="Umacron" unicode="&#x16a;" horiz-adv-x="655" 
d="M494 262v456h72v-467q0 -126 -63.5 -197.5t-174.5 -71.5t-174.5 71.5t-63.5 197.5v467h72v-456q0 -37 1.5 -56t10 -47t26.5 -50q45 -57 128 -57t128 57q18 22 26.5 50t10 47t1.5 56zM164 813v60h337v-60h-337z" />
    <glyph glyph-name="umacron" unicode="&#x16b;" horiz-adv-x="608" 
d="M462 272v259h72v-275q0 -134 -59 -201.5t-174 -67.5t-174.5 68t-59.5 201v275h72v-259q0 -102 15 -134q19 -40 57.5 -62.5t89.5 -22.5q75 0 120 47q20 21 29.5 50t10.5 50.5t1 71.5zM138 663v60h337v-60h-337z" />
    <glyph glyph-name="Ubreve" unicode="&#x16c;" horiz-adv-x="655" 
d="M494 262v456h72v-467q0 -126 -63.5 -197.5t-174.5 -71.5t-174.5 71.5t-63.5 197.5v467h72v-456q0 -37 1.5 -56t10 -47t26.5 -50q45 -57 128 -57t128 57q18 22 26.5 50t10 47t1.5 56zM441 895h62q-11 -45 -55 -74t-116 -29q-70 0 -116 27.5t-59 75.5h64q34 -51 111 -51
q39 0 63.5 11t45.5 40z" />
    <glyph glyph-name="ubreve" unicode="&#x16d;" horiz-adv-x="608" 
d="M462 272v259h72v-275q0 -134 -59 -201.5t-174 -67.5t-174.5 68t-59.5 201v275h72v-259q0 -102 15 -134q19 -40 57.5 -62.5t89.5 -22.5q75 0 120 47q20 21 29.5 50t10.5 50.5t1 71.5zM408 745h62q-11 -45 -55 -74t-116 -29q-70 0 -116 27.5t-59 75.5h64q34 -51 111 -51
q39 0 63.5 11t45.5 40z" />
    <glyph glyph-name="Uring" unicode="&#x16e;" horiz-adv-x="655" 
d="M494 262v456h72v-467q0 -126 -63.5 -197.5t-174.5 -71.5t-174.5 71.5t-63.5 197.5v467h72v-456q0 -37 1.5 -56t10 -47t26.5 -50q45 -57 128 -57t128 57q18 22 26.5 50t10 47t1.5 56zM330 970q42 0 71.5 -29t29.5 -72q0 -42 -29.5 -72t-71.5 -30t-72 30t-30 72t29.5 71.5
t72.5 29.5zM330 928q-25 1 -42 -16.5t-17 -42.5t17.5 -42t41.5 -17q25 0 42 17.5t17 41.5q1 24 -17 41.5t-42 17.5z" />
    <glyph glyph-name="uring" unicode="&#x16f;" horiz-adv-x="608" 
d="M462 272v259h72v-275q0 -134 -59 -201.5t-174 -67.5t-174.5 68t-59.5 201v275h72v-259q0 -102 15 -134q19 -40 57.5 -62.5t89.5 -22.5q75 0 120 47q20 21 29.5 50t10.5 50.5t1 71.5zM300 820q42 0 71.5 -29t29.5 -72q0 -42 -29.5 -72t-71.5 -30t-72 30t-30 72t29.5 71.5
t72.5 29.5zM300 778q-25 1 -42 -16.5t-17 -42.5t17.5 -42t41.5 -17q25 0 42 17.5t17 41.5q1 24 -17 41.5t-42 17.5z" />
    <glyph glyph-name="Uhungarumlaut" unicode="&#x170;" horiz-adv-x="655" 
d="M494 262v456h72v-467q0 -126 -63.5 -197.5t-174.5 -71.5t-174.5 71.5t-63.5 197.5v467h72v-456q0 -37 1.5 -56t10 -47t26.5 -50q45 -57 128 -57t128 57q18 22 26.5 50t10 47t1.5 56zM188 780l107 151h105l-145 -151h-67zM342 780l107 151h105l-144 -151h-68z" />
    <glyph glyph-name="uhungarumlaut" unicode="&#x171;" horiz-adv-x="608" 
d="M462 272v259h72v-275q0 -134 -59 -201.5t-174 -67.5t-174.5 68t-59.5 201v275h72v-259q0 -102 15 -134q19 -40 57.5 -62.5t89.5 -22.5q75 0 120 47q20 21 29.5 50t10.5 50.5t1 71.5zM166 630l107 151h105l-145 -151h-67zM320 630l107 151h105l-144 -151h-68z" />
    <glyph glyph-name="Uogonek" unicode="&#x172;" horiz-adv-x="655" 
d="M426 -145l-5 -42q-19 -4 -42 -4q-57 0 -84 26.5t-27 60.5q0 48 37 87q-100 8 -157.5 78.5t-57.5 189.5v467h72v-456q0 -37 1.5 -56t10 -47t26.5 -50q45 -57 128 -57t128 57q18 22 26.5 50t10 47t1.5 56v456h72v-467q0 -116 -54.5 -186t-150.5 -81q-41 -39 -41 -77
q0 -23 18 -39t54 -16q7 0 34 3z" />
    <glyph glyph-name="uogonek" unicode="&#x173;" horiz-adv-x="608" 
d="M389 -145l-5 -42q-19 -4 -42 -4q-57 0 -84 26.5t-27 60.5q0 55 43 92q-207 17 -207 268v275h72v-259q0 -102 15 -134q19 -40 57.5 -62.5t89.5 -22.5q75 0 120 47q20 21 29.5 50t10.5 50.5t1 71.5v259h72v-275q0 -251 -206 -268q-45 -42 -45 -81q0 -23 18 -39t54 -16
q7 0 34 3z" />
    <glyph glyph-name="Wcircumflex" unicode="&#x174;" horiz-adv-x="960" 
d="M250 0l-203 718h74l146 -517l206 517h15l203 -517l149 517h73l-206 -718h-14l-212 543l-218 -543h-13zM302 778l145 125h68l142 -125h-89l-86 74l-89 -74h-91z" />
    <glyph glyph-name="wcircumflex" unicode="&#x175;" horiz-adv-x="831" 
d="M230 0l-226 531h71l162 -385l170 385h12l171 -385l165 385h71l-230 -531h-13l-169 380l-170 -380h-14zM228 628l145 125h68l142 -125h-89l-86 74l-89 -74h-91z" />
    <glyph glyph-name="Ycircumflex" unicode="&#x176;" horiz-adv-x="592" 
d="M262 0v343l-231 375h83l184 -296l181 296h83l-228 -375v-343h-72zM114 778l145 125h68l142 -125h-89l-86 74l-89 -74h-91z" />
    <glyph glyph-name="ycircumflex" unicode="&#x177;" horiz-adv-x="536" 
d="M237 40l-218 491h72l183 -409l177 409h73l-317 -725h-72zM95 628l145 125h68l142 -125h-89l-86 74l-89 -74h-91z" />
    <glyph glyph-name="Ydieresis" unicode="&#x178;" horiz-adv-x="592" 
d="M262 0v343l-231 375h83l184 -296l181 296h83l-228 -375v-343h-72zM196 891q23 0 39.5 -17t16.5 -40t-16.5 -39.5t-39.5 -16.5t-40 16.5t-17 39.5t17 40t40 17zM395 891q23 0 39.5 -17t16.5 -40t-16.5 -39.5t-39.5 -16.5t-40 16.5t-17 39.5t17 40t40 17z" />
    <glyph glyph-name="Zacute" unicode="&#x179;" horiz-adv-x="480" 
d="M329 648h-270v70h379l-300 -648h285v-70h-396zM179 780l107 151h105l-145 -151h-67z" />
    <glyph glyph-name="zacute" unicode="&#x17a;" horiz-adv-x="425" 
d="M32 471v60h391l-301 -471h291v-60h-409l301 471h-273zM168 630l107 151h105l-145 -151h-67z" />
    <glyph glyph-name="Zdotaccent" unicode="&#x17b;" horiz-adv-x="480" 
d="M329 648h-270v70h379l-300 -648h285v-70h-396zM246 891q23 0 39.5 -17t16.5 -40t-16.5 -39.5t-39.5 -16.5t-40 16.5t-17 39.5t17 40t40 17z" />
    <glyph glyph-name="zdotaccent" unicode="&#x17c;" horiz-adv-x="425" 
d="M32 471v60h391l-301 -471h291v-60h-409l301 471h-273zM217 741q23 0 39.5 -17t16.5 -40t-16.5 -39.5t-39.5 -16.5t-40 16.5t-17 39.5t17 40t40 17z" />
    <glyph glyph-name="Zcaron" unicode="&#x17d;" horiz-adv-x="480" 
d="M329 648h-270v70h379l-300 -648h285v-70h-396zM419 903l-145 -125h-68l-142 125h88l86 -74l90 74h91z" />
    <glyph glyph-name="zcaron" unicode="&#x17e;" horiz-adv-x="425" 
d="M32 471v60h391l-301 -471h291v-60h-409l301 471h-273zM391 753l-145 -125h-68l-142 125h88l86 -74l90 74h91z" />
    <glyph glyph-name="florin" unicode="&#x192;" horiz-adv-x="554" 
d="M324 574l-20 -143h112l-8 -60h-113l-53 -347q-18 -115 -55 -173t-101 -58q-36 0 -70 23l9 60q27 -21 54 -21q40 0 63.5 42.5t37.5 137.5l49 336h-69l8 60h69l24 156q5 33 19 91q5 25 32.5 49t61.5 24q39 0 86 -33l-9 -65q-38 36 -67 36q-16 0 -26.5 -8.5t-17 -28.5
t-9.5 -34.5t-7 -43.5z" />
    <glyph glyph-name="AEacute" unicode="&#x1fc;" horiz-adv-x="992" 
d="M237 236l-152 -236h-84l464 718h444v-70h-338v-224h338v-70h-338v-284h338v-70h-410v236h-262zM499 303v332l-216 -332h216zM520 780l107 151h105l-145 -151h-67z" />
    <glyph glyph-name="aeacute" unicode="&#x1fd;" horiz-adv-x="1157" 
d="M545 434v97h62v-96q48 57 95 83.5t119 26.5q118 0 197 -79t79 -195v-12h-478q2 -87 60.5 -148.5t148.5 -61.5q126 0 194 125l58 -29q-36 -76 -104 -117t-153 -41q-134 0 -216 108v-95h-62v98q-46 -57 -95.5 -84.5t-117.5 -27.5q-113 0 -193.5 82t-80.5 200t81 197.5
t191 79.5q123 0 215 -111zM335 479q-86 0 -146.5 -60.5t-60.5 -153.5q0 -92 60.5 -152.5t148.5 -60.5q87 0 148.5 60t61.5 153q0 98 -61.5 156t-150.5 58zM623 319h399q-20 80 -73.5 120t-124.5 40q-68 0 -125 -40.5t-76 -119.5zM534 630l107 151h105l-145 -151h-67z" />
    <glyph glyph-name="Oslashacute" unicode="&#x1fe;" horiz-adv-x="868" 
d="M784 707l-74 -87q103 -105 103 -260q0 -159 -109 -268.5t-269 -109.5q-121 0 -213 62l-80 -94l-52 42l80 95q-114 109 -114 269q0 159 108.5 269.5t269.5 110.5q127 0 228 -72l71 85zM662 563l-393 -463q75 -48 164 -48q127 0 216 87.5t89 220.5q0 118 -76 203zM217 142
l396 466q-81 58 -180 58q-122 0 -212 -88t-90 -222q0 -125 86 -214zM353 780l107 151h105l-145 -151h-67z" />
    <glyph glyph-name="oslashacute" unicode="&#x1ff;" horiz-adv-x="653" 
d="M599 517l-60 -71q65 -79 65 -182q0 -116 -79 -197t-198 -81q-81 0 -146 40l-57 -66l-43 35l55 66q-86 84 -86 203q0 116 79.5 198.5t196.5 82.5q99 0 172 -58l57 66zM492 392l-267 -315q47 -25 102 -25q89 0 148 61t59 149q0 69 -42 130zM180 112l273 321q-59 46 -126 46
q-85 0 -146 -64t-61 -152q0 -89 60 -151zM252 630l107 151h105l-145 -151h-67z" />
    <glyph glyph-name="uni0218" unicode="&#x218;" horiz-adv-x="498" 
d="M421 619l-58 -45q-34 45 -63 66.5t-69 21.5q-44 0 -70.5 -27t-26.5 -64q0 -63 64 -111q124 -92 162 -130q72 -74 72 -155q0 -78 -58 -135.5t-144 -57.5q-72 0 -124 38t-93 114l61 37q65 -119 150 -119q56 0 94.5 35.5t38.5 86.5q0 17 -3.5 31.5t-15.5 31.5t-22 28.5
t-35.5 33.5t-41.5 35.5t-55.5 44.5t-63.5 51q-26 21 -43.5 59.5t-17.5 78.5q0 73 50 120.5t124 47.5q60 0 103.5 -30.5t84.5 -86.5zM177 -101l6 39q21 7 46 7q77 0 77 -53q0 -34 -31 -56t-81 -22q-29 0 -71 11l11 35q31 -7 50 -7q64 0 64 32q0 21 -36 21q-14 0 -35 -7z" />
    <glyph glyph-name="uni0219" unicode="&#x219;" horiz-adv-x="388" 
d="M26 62l43 49q53 -59 111 -59q40 0 69 25.5t29 62.5q0 50 -44 74q-108 60 -134 82q-50 43 -50 108q0 62 42 101.5t104 39.5q73 0 147 -72l-44 -45q-53 51 -107 51q-33 0 -56.5 -20.5t-23.5 -50.5q0 -20 11.5 -40.5t29.5 -30.5q13 -7 42.5 -24t39 -23t31.5 -20t28.5 -21
t19.5 -20.5t17 -25t8 -27t4 -33.5q0 -64 -45 -110.5t-115 -46.5q-45 0 -87 20t-70 56zM124 -101l6 39q21 7 46 7q77 0 77 -53q0 -34 -31 -56t-81 -22q-29 0 -71 11l11 35q31 -7 50 -7q64 0 64 32q0 21 -36 21q-14 0 -35 -7z" />
    <glyph glyph-name="uni021A" unicode="&#x21a;" horiz-adv-x="426" 
d="M178 648h-162v70h394v-70h-160v-648h-72v648zM173 -101l6 39q21 7 46 7q77 0 77 -53q0 -34 -31 -56t-81 -22q-29 0 -71 11l11 35q31 -7 50 -7q64 0 64 32q0 21 -36 21q-14 0 -35 -7z" />
    <glyph glyph-name="uni021B" unicode="&#x21b;" horiz-adv-x="339" 
d="M137 531v198h68v-198h109v-60h-109v-471h-68v471h-94v60h94zM127 -101l6 39q21 7 46 7q77 0 77 -53q0 -34 -31 -56t-81 -22q-29 0 -71 11l11 35q31 -7 50 -7q64 0 64 32q0 21 -36 21q-14 0 -35 -7z" />
    <glyph glyph-name="circumflex" unicode="&#x2c6;" horiz-adv-x="502" 
d="M74 628l145 125h68l142 -125h-89l-86 74l-89 -74h-91z" />
    <glyph glyph-name="caron" unicode="&#x2c7;" horiz-adv-x="502" 
d="M429 753l-145 -125h-68l-142 125h88l86 -74l90 74h91z" />
    <glyph glyph-name="uni02C9" unicode="&#x2c9;" horiz-adv-x="485" 
d="M74 663v60h337v-60h-337z" />
    <glyph glyph-name="breve" unicode="&#x2d8;" horiz-adv-x="453" 
d="M337 745h62q-11 -45 -55 -74t-116 -29q-70 0 -116 27.5t-59 75.5h64q34 -51 111 -51q39 0 63.5 11t45.5 40z" />
    <glyph glyph-name="dotaccent" unicode="&#x2d9;" horiz-adv-x="222" 
d="M111 741q23 0 39.5 -17t16.5 -40t-16.5 -39.5t-39.5 -16.5t-40 16.5t-17 39.5t17 40t40 17z" />
    <glyph glyph-name="ring" unicode="&#x2da;" 
d="M167 820q42 0 71.5 -29t29.5 -72q0 -42 -29.5 -72t-71.5 -30t-72 30t-30 72t29.5 71.5t72.5 29.5zM167 778q-25 1 -42 -16.5t-17 -42.5t17.5 -42t41.5 -17q25 0 42 17.5t17 41.5q1 24 -17 41.5t-42 17.5z" />
    <glyph glyph-name="ogonek" unicode="&#x2db;" horiz-adv-x="302" 
d="M251 -145l-5 -42q-19 -4 -42 -4q-57 0 -84 26.5t-27 60.5q0 63 58 104h53q-59 -51 -59 -93q0 -23 18 -39t54 -16q7 0 34 3z" />
    <glyph glyph-name="tilde" unicode="&#x2dc;" horiz-adv-x="439" 
d="M290 704q32 0 74 24l34 -47q-59 -43 -110 -43q-34 0 -76 20.5t-63 20.5q-7 0 -13 -1t-12.5 -3.5t-10.5 -4t-11 -6t-9.5 -6t-10.5 -7.5t-10 -7l-32 50q44 47 110 47q29 0 74 -18.5t66 -18.5z" />
    <glyph glyph-name="hungarumlaut" unicode="&#x2dd;" horiz-adv-x="552" 
d="M126 630l107 151h105l-145 -151h-67zM280 630l107 151h105l-144 -151h-68z" />
    <glyph glyph-name="uni03A9" unicode="&#x3a9;" horiz-adv-x="712" 
d="M661 0h-225v57q29 25 51.5 49.5t48.5 64t40.5 92.5t14.5 114q0 121 -61 198.5t-171 77.5q-106 0 -172 -77.5t-66 -198.5q0 -189 156 -320v-57h-225v57h156q-157 123 -157 328q0 141 86.5 234t221.5 93q141 0 221.5 -89.5t80.5 -235.5q0 -109 -46.5 -193.5t-111.5 -136.5
h158v-57z" />
    <glyph glyph-name="uni03BC" unicode="&#x3bc;" horiz-adv-x="608" 
d="M453 0v58q-56 -70 -148 -70t-148 68v-250h-68v725h68v-293q0 -65 13 -93q18 -38 55.5 -60.5t81.5 -22.5q51 0 89.5 31.5t50.5 82.5q6 26 6 69v286h68v-531h-68z" />
    <glyph glyph-name="pi" unicode="&#x3c0;" horiz-adv-x="655" 
d="M597 54l14 -48q-23 -13 -61 -13q-59 0 -87.5 35.5t-28.5 93.5v324h-199v-314q0 -82 -14 -132h-68q15 57 15 135v311q-54 0 -104 -23l-20 50q56 27 140 27h426v-54h-108v-318q0 -81 64 -81q14 0 31 7z" />
    <glyph glyph-name="uni0400" unicode="&#x400;" horiz-adv-x="536" 
d="M88 0v718h410v-70h-338v-225h338v-70h-338v-283h338v-70h-410zM153 931h105l107 -151h-68z" />
    <glyph glyph-name="afii10023" unicode="&#x401;" horiz-adv-x="536" 
d="M88 0v718h410v-70h-338v-225h338v-70h-338v-283h338v-70h-410zM198 886q24 0 40.5 -16.5t16.5 -39.5t-17 -40t-40 -17t-39.5 17t-16.5 40t16 39.5t40 16.5zM397 886q24 0 40.5 -16.5t16.5 -39.5t-17 -40t-40 -17t-39.5 17t-16.5 40t16 39.5t40 16.5z" />
    <glyph glyph-name="afii10051" unicode="&#x402;" horiz-adv-x="671" 
d="M178 0v648h-162v70h394v-70h-160v-231h116q125 0 187.5 -56t62.5 -172q0 -120 -67 -173q-26 -20 -52 -25.5t-68 -5.5q-53 0 -102 46l45 50q35 -30 59 -30q110 0 110 138q0 43 -9.5 72t-24.5 46t-43.5 26t-55.5 11.5t-71 2.5h-87v-347h-72z" />
    <glyph glyph-name="afii10052" unicode="&#x403;" horiz-adv-x="462" 
d="M159 648v-648h-72v718h360v-70h-288zM240 775l107 151h105l-144 -151h-68z" />
    <glyph glyph-name="afii10053" unicode="&#x404;" horiz-adv-x="813" 
d="M758 585l-57 -43q-94 124 -256 124q-115 0 -202 -70t-111 -198h336v-70h-336q10 -121 100 -200t217 -79q151 0 252 119l57 -43q-113 -142 -314 -142q-176 0 -282 109t-106 271q0 159 110.5 266t277.5 107q206 0 314 -151z" />
    <glyph glyph-name="afii10054" unicode="&#x405;" horiz-adv-x="498" 
d="M421 619l-58 -45q-34 45 -63 66.5t-69 21.5q-44 0 -70.5 -27t-26.5 -64q0 -63 64 -111q124 -92 162 -130q72 -74 72 -155q0 -78 -58 -135.5t-144 -57.5q-72 0 -124 38t-93 114l61 37q65 -119 150 -119q56 0 94.5 35.5t38.5 86.5q0 53 -63 114q-30 29 -171 141
q-28 21 -46 60t-18 79q0 73 50 120.5t124 47.5q60 0 103.5 -30.5t84.5 -86.5z" />
    <glyph glyph-name="afii10055" unicode="&#x406;" horiz-adv-x="226" 
d="M77 0v718h72v-718h-72z" />
    <glyph glyph-name="afii10056" unicode="&#x407;" horiz-adv-x="226" 
d="M77 0v718h72v-718h-72zM14 886q24 0 40 -16.5t16 -39.5t-16.5 -40t-39.5 -17t-40 17t-17 40t16.5 39.5t40.5 16.5zM213 886q24 0 40 -16.5t16 -39.5t-16.5 -40t-39.5 -17t-40 17t-17 40t16.5 39.5t40.5 16.5z" />
    <glyph glyph-name="afii10057" unicode="&#x408;" horiz-adv-x="482" 
d="M323 210v508h72v-510q0 -124 -46 -175q-45 -50 -128 -50q-89 0 -179 75l38 57q92 -66 141 -66q47 0 76 38q26 35 26 123z" />
    <glyph glyph-name="afii10058" unicode="&#x409;" horiz-adv-x="1065" 
d="M364 718h17l150 -308h183q145 0 206 -36q41 -25 65 -68t24 -95q0 -211 -248 -211h-122l-267 566l-269 -566h-79zM557 340l127 -270h35q43 0 68.5 1.5t57 9t48.5 21.5t29 40.5t12 65.5q0 54 -34.5 90t-87.5 38q-4 0 -44 2t-64 2h-147z" />
    <glyph glyph-name="afii10059" unicode="&#x40a;" horiz-adv-x="1043" 
d="M159 718v-300h366v300h72v-300h71q133 0 180 -13q140 -37 140 -194q0 -147 -120 -192q-50 -19 -178 -19h-165v348h-366v-348h-72v718h72zM597 348v-278h76q118 0 156 11q80 23 84 116v11q0 99 -84 128q-33 12 -172 12h-60z" />
    <glyph glyph-name="afii10060" unicode="&#x40b;" horiz-adv-x="679" 
d="M250 347v-347h-72v648h-162v70h394v-70h-160v-231h150q126 0 170.5 -54.5t44.5 -182.5v-180h-72v184q0 93 -26 128t-115 35h-152z" />
    <glyph glyph-name="afii10061" unicode="&#x40c;" horiz-adv-x="591" 
d="M88 0v718h72v-298l287 298h97l-315 -320l342 -398h-95l-297 348l-19 -18v-330h-72zM270 775l107 151h105l-144 -151h-68z" />
    <glyph glyph-name="uni040D" unicode="&#x40d;" horiz-adv-x="740" 
d="M652 718v-718h-75v550l-473 -550h-16v718h72v-560l476 560h16zM231 931h105l107 -151h-68z" />
    <glyph glyph-name="afii10062" unicode="&#x40e;" horiz-adv-x="646" 
d="M295 139l-262 578h81l217 -488l199 488h79l-273 -644q-39 -91 -135 -91q-36 0 -67.5 15t-47.5 29.5t-46 46.5l52 43q5 -4 18 -17t16.5 -16t13.5 -11.5t14.5 -11t13 -6.5t16 -5t16.5 -1q36 0 55.5 21t39.5 70zM439 860h62q-11 -45 -55 -74t-116 -29q-70 0 -116 27.5
t-59 75.5h65q34 -51 111 -51q39 0 63 11.5t45 39.5z" />
    <glyph glyph-name="afii10145" unicode="&#x40f;" horiz-adv-x="649" 
d="M292 -107v107h-205v718h72v-648h332v648h72v-718h-203v-107h-68z" />
    <glyph glyph-name="afii10017" unicode="&#x410;" horiz-adv-x="740" 
d="M364 718h17l335 -718h-77l-113 236h-310l-112 -236h-80zM494 306l-122 260l-124 -260h246z" />
    <glyph glyph-name="afii10018" unicode="&#x411;" horiz-adv-x="573" 
d="M284 0h-197v718h360v-70h-288v-231h33q64 0 99.5 -2.5t78.5 -15t75 -38.5q34 -27 53 -69t19 -86q0 -85 -62.5 -145.5t-170.5 -60.5zM208 347h-49v-277h87q2 0 86 7q39 3 74.5 39t35.5 89q0 55 -39 92q-31 30 -76.5 40t-118.5 10z" />
    <glyph glyph-name="afii10019" unicode="&#x412;" horiz-adv-x="574" 
d="M298 0h-210v718h153q109 0 164.5 -48t55.5 -127q0 -101 -92 -151q151 -51 151 -186q0 -86 -63.5 -146t-158.5 -60zM255 648h-95v-231h49q85 0 126 27q51 33 51 99q0 48 -34.5 76.5t-96.5 28.5zM210 347h-50v-277h88q2 0 86 7q39 3 75 40t36 88q0 35 -18.5 66t-51.5 49
q-49 27 -165 27z" />
    <glyph glyph-name="afii10020" unicode="&#x413;" horiz-adv-x="462" 
d="M159 648v-648h-72v718h360v-70h-288z" />
    <glyph glyph-name="afii10021" unicode="&#x414;" horiz-adv-x="748" 
d="M87 0v-107h-72v174h59l281 651h25l298 -651h57v-174h-72v107h-576zM368 570l-213 -503h438z" />
    <glyph glyph-name="afii10022" unicode="&#x415;" horiz-adv-x="536" 
d="M88 0v718h410v-70h-338v-225h338v-70h-338v-283h338v-70h-410z" />
    <glyph glyph-name="afii10024" unicode="&#x416;" horiz-adv-x="935" 
d="M525 353l-22 -19v-334h-72v334l-23 19l-294 -353h-95l343 398l-316 320h97l288 -303v303h72v-303l288 303h97l-316 -320l343 -398h-95z" />
    <glyph glyph-name="afii10025" unicode="&#x417;" horiz-adv-x="581" 
d="M294 347h-62v63h32q73 0 112.5 34t39.5 96q0 58 -36 94t-99 36t-130 -65l-49 43q47 51 88.5 69.5t107.5 18.5q55 0 103.5 -27t71.5 -71q18 -34 18 -96q0 -47 -26 -87.5t-80 -65.5q71 -22 106.5 -71t35.5 -117q0 -103 -65 -161t-154 -58q-93 0 -149 29.5t-111 114.5l56 32
q40 -57 79 -85t104 -28q73 0 119 40.5t46 113.5q0 67 -46.5 107.5t-111.5 40.5z" />
    <glyph glyph-name="afii10026" unicode="&#x418;" horiz-adv-x="740" 
d="M652 718v-718h-75v550l-473 -550h-16v718h72v-560l476 560h16z" />
    <glyph glyph-name="afii10027" unicode="&#x419;" horiz-adv-x="740" 
d="M652 718v-718h-75v548l-473 -548h-16v718h72v-557l476 557h16zM497 860h63q-11 -45 -55.5 -74t-115.5 -29q-70 0 -116 27.5t-59 75.5h64q34 -51 111 -51q39 0 63 11.5t45 39.5z" />
    <glyph glyph-name="afii10028" unicode="&#x41a;" horiz-adv-x="591" 
d="M88 0v718h72v-298l287 298h97l-316 -320l343 -398h-95l-297 348l-19 -18v-330h-72z" />
    <glyph glyph-name="afii10029" unicode="&#x41b;" horiz-adv-x="740" 
d="M716 0h-77l-267 566l-269 -566h-79l340 718h17z" />
    <glyph glyph-name="afii10030" unicode="&#x41c;" horiz-adv-x="919" 
d="M125 0h-70l102 718h12l292 -589l289 589h12l102 -718h-70l-70 514l-254 -514h-18l-258 518z" />
    <glyph glyph-name="afii10031" unicode="&#x41d;" horiz-adv-x="683" 
d="M87 0v718h72v-301h366v301h72v-718h-72v347h-366v-347h-72z" />
    <glyph glyph-name="afii10032" unicode="&#x41e;" horiz-adv-x="869" 
d="M429 736q163 0 273.5 -108t110.5 -269q0 -159 -109.5 -268t-268.5 -109q-163 0 -271 110t-108 264q0 160 108.5 270t264.5 110zM433 666q-122 0 -212 -88t-90 -222q0 -130 89 -217t213 -87q128 0 216.5 87.5t88.5 220.5q0 132 -90.5 219t-214.5 87z" />
    <glyph glyph-name="afii10033" unicode="&#x41f;" horiz-adv-x="683" 
d="M87 0v718h510v-718h-72v648h-366v-648h-72z" />
    <glyph glyph-name="afii10034" unicode="&#x420;" horiz-adv-x="592" 
d="M87 0v718h166q118 0 166 -18q55 -21 86 -66.5t31 -106.5q0 -51 -21.5 -92t-60.5 -65q-35 -22 -87 -29t-137 -7h-71v-334h-72zM286 648h-127v-244h119q105 0 142 30q41 34 41 93q0 61 -44 94q-36 27 -131 27z" />
    <glyph glyph-name="afii10035" unicode="&#x421;" horiz-adv-x="813" 
d="M699 168l57 -43q-113 -142 -314 -142q-176 0 -281.5 108.5t-105.5 271.5q0 160 110 266.5t277 106.5q206 0 314 -151l-57 -43q-94 124 -256 124q-130 0 -221.5 -87t-91.5 -222q0 -133 90.5 -220.5t226.5 -87.5q150 0 252 119z" />
    <glyph glyph-name="afii10036" unicode="&#x422;" horiz-adv-x="426" 
d="M178 648h-162v70h394v-70h-160v-648h-72v648z" />
    <glyph glyph-name="afii10037" unicode="&#x423;" horiz-adv-x="646" 
d="M295 139l-262 578h81l217 -488l199 488h79l-273 -644q-39 -91 -135 -91q-36 0 -67.5 15t-47.5 29.5t-46 46.5l52 43q5 -4 18 -17t16.5 -16t13.5 -11.5t14.5 -11t13 -6.5t16 -5t16.5 -1q36 0 55.5 21t39.5 70z" />
    <glyph glyph-name="afii10038" unicode="&#x424;" horiz-adv-x="871" 
d="M400 627v91h72v-91h54q174 0 240 -80q49 -58 49 -136q0 -85 -55.5 -141t-143.5 -62q-63 -3 -67 -3h-77v-205h-72v205h-78q-81 0 -124 13q-66 20 -104 71.5t-38 121.5q0 79 48 136q68 80 240 80h56zM552 557h-80v-282h75q5 0 18 -0.5t18 -0.5q76 0 116.5 38.5t40.5 97.5
q0 71 -49 109t-139 38zM400 275v282h-81q-90 0 -139 -38t-49 -109q0 -58 40.5 -97t116.5 -39q7 0 18 0.5t18 0.5h76z" />
    <glyph glyph-name="afii10039" unicode="&#x425;" horiz-adv-x="609" 
d="M263 370l-213 348h84l172 -280l173 280h83l-214 -348l228 -370h-84l-186 301l-188 -301h-84z" />
    <glyph glyph-name="afii10040" unicode="&#x426;" horiz-adv-x="708" 
d="M619 -107v107h-532v718h72v-648h332v648h72v-648h124v-177h-68z" />
    <glyph glyph-name="afii10041" unicode="&#x427;" horiz-adv-x="539" 
d="M246 409h135v309h72v-718h-72v339h-108q-155 0 -216 74q-27 33 -34.5 69t-7.5 94v142h72v-146q0 -84 33 -123.5t126 -39.5z" />
    <glyph glyph-name="afii10042" unicode="&#x428;" horiz-adv-x="1008" 
d="M159 718v-648h307v648h72v-648h312v648h72v-718h-835v718h72z" />
    <glyph glyph-name="afii10043" unicode="&#x429;" horiz-adv-x="1066" 
d="M922 718v-648h124v-177h-68v107h-891v718h72v-648h307v648h72v-648h312v648h72z" />
    <glyph glyph-name="afii10044" unicode="&#x42a;" horiz-adv-x="684" 
d="M165 0v651h-149v67h221v-308h71q63 0 123 -3q94 -6 145.5 -58t51.5 -138q0 -147 -119 -192q-50 -19 -178 -19h-166zM237 340v-270h77q117 0 155 11q79 23 84 114v13q0 54 -34 90t-87 38q-116 4 -134 4h-61z" />
    <glyph glyph-name="afii10045" unicode="&#x42b;" horiz-adv-x="793" 
d="M635 0v718h72v-718h-72zM87 0v718h72v-308h71q62 0 122 -3q94 -6 146 -58.5t52 -137.5q0 -147 -119 -192q-50 -19 -178 -19h-166zM159 340v-270h76q117 0 156 11q81 33 84 127q0 54 -34.5 90t-87.5 38q-74 4 -106 4h-88z" />
    <glyph glyph-name="afii10046" unicode="&#x42c;" horiz-adv-x="606" 
d="M87 0v718h72v-308h71q62 0 122 -3q94 -6 146 -58.5t52 -137.5q0 -147 -119 -192q-50 -19 -178 -19h-166zM159 340v-270h76q117 0 156 11q81 33 84 127q0 54 -34.5 90t-87.5 38q-116 4 -133 4h-61z" />
    <glyph glyph-name="afii10047" unicode="&#x42d;" horiz-adv-x="813" 
d="M54 125l57 43q101 -119 252 -119q83 0 152.5 35t111.5 97q35 51 51 147h-340v70h337q-5 38 -10 59.5t-22.5 53.5t-47.5 62q-95 93 -227 93q-161 0 -257 -124l-57 43q52 73 134 112t181 39q167 0 277 -107t110 -266q0 -163 -106 -271.5t-282 -108.5q-201 0 -314 142z" />
    <glyph glyph-name="afii10048" unicode="&#x42e;" horiz-adv-x="1095" 
d="M159 329v-329h-72v718h72v-319h126q9 43 13.5 62t18.5 53.5t34 63.5q52 74 133 116t172 42q163 0 273.5 -108t110.5 -269q0 -158 -109 -267.5t-269 -109.5q-163 0 -274 114q-38 39 -60.5 83t-28.5 70.5t-14 79.5h-126zM660 666q-122 0 -212 -88t-90 -222
q0 -131 89 -217.5t213 -86.5q128 0 216.5 87.5t88.5 220.5q0 132 -91 219t-214 87z" />
    <glyph glyph-name="afii10049" unicode="&#x42f;" horiz-adv-x="584" 
d="M332 718h166v-718h-72v323h-68l-231 -323h-89l231 324q-110 4 -165.5 54.5t-55.5 137.5q0 79 40 129q37 46 92 59.5t152 13.5zM426 393v255h-147q-156 0 -156 -132q0 -27 12 -54q19 -41 58 -55t113 -14h120z" />
    <glyph glyph-name="afii10065" unicode="&#x430;" horiz-adv-x="683" 
d="M538 434v97h67v-531h-67v91q-87 -105 -214 -105q-115 0 -193.5 83t-78.5 198q0 114 79.5 196t194.5 82q132 0 212 -111zM332 479q-89 0 -149.5 -62.5t-60.5 -151.5q0 -90 61 -153t148 -63q86 0 149 59.5t63 154.5q0 92 -61 154t-150 62z" />
    <glyph glyph-name="afii10066" unicode="&#x431;" horiz-adv-x="669" 
d="M116 444l-7 -75q57 176 233 176q118 0 197.5 -82.5t79.5 -198.5q0 -115 -79.5 -196t-197.5 -81q-74 0 -135.5 33.5t-98.5 94.5q-57 93 -57 248q0 81 13.5 142.5t35 100.5t56.5 65.5t69.5 38.5t83 19t88.5 7.5t95 3.5t93 8v-66q-45 -8 -119.5 -10.5t-124 -4.5t-101.5 -22
t-78 -61q-38 -60 -46 -140zM342 479q-85 0 -146 -64t-61 -152t59 -150.5t148 -62.5q88 0 147.5 62t59.5 151t-61 152.5t-146 63.5z" />
    <glyph glyph-name="afii10067" unicode="&#x432;" horiz-adv-x="468" 
d="M231 0h-154v531h151q80 0 121 -37t41 -87q0 -51 -17 -78t-53 -41q104 -36 104 -147q0 -66 -48 -103.5t-145 -37.5zM247 244h-102v-186h114q39 0 63 26t24 66t-26.5 67t-72.5 27zM189 473h-44v-166h44q69 0 90 9q41 18 41 82q0 20 -17 44.5t-34 25.5q-50 5 -80 5z" />
    <glyph glyph-name="afii10068" unicode="&#x433;" horiz-adv-x="361" 
d="M345 473h-201v-473h-68v531h269v-58z" />
    <glyph glyph-name="afii10069" unicode="&#x434;" horiz-adv-x="605" 
d="M16 58h64l206 473h35l204 -473h65v-126h-68v68h-438v-71h-68v129zM451 58l-149 368l-155 -368h304z" />
    <glyph glyph-name="afii10070" unicode="&#x435;" horiz-adv-x="649" 
d="M599 261h-478q2 -92 58.5 -152t141.5 -60q75 0 121 34t82 93l57 -30q-82 -160 -253 -160q-126 0 -201.5 82.5t-75.5 195.5t76.5 197t196.5 84q116 0 195 -77.5t80 -206.5zM128 319h396q-20 80 -73.5 120t-125.5 40q-151 0 -197 -160z" />
    <glyph glyph-name="afii10072" unicode="&#x436;" horiz-adv-x="769" 
d="M350 297v234h68v-234l254 234h83l-251 -236l270 -295h-87l-230 257l-39 -33v-224h-68v224l-40 33l-229 -257h-87l267 295l-247 236h84z" />
    <glyph glyph-name="afii10073" unicode="&#x437;" horiz-adv-x="423" 
d="M206 250h-42v58h36q39 0 65 24t26 70q0 30 -24 55t-66 25q-55 0 -114 -44l-38 48q75 59 134 59q64 0 98 -17t54.5 -48t20.5 -62q0 -53 -17 -82t-55 -44q94 -40 94 -141q0 -67 -45 -115.5t-132 -48.5q-63 0 -101.5 17.5t-73.5 52.5l43 48q51 -55 126 -55q52 0 82.5 27.5
t30.5 73.5q0 41 -29 70t-73 29z" />
    <glyph glyph-name="afii10074" unicode="&#x438;" horiz-adv-x="616" 
d="M76 531h68v-393l390 393h6v-531h-68v390l-387 -390h-9v531z" />
    <glyph glyph-name="afii10075" unicode="&#x439;" horiz-adv-x="616" 
d="M76 531h68v-395l390 395h6v-531h-68v388l-387 -388h-9v531zM431 745h62q-11 -45 -55 -74t-116 -29q-70 0 -116 27.5t-59 75.5h65q34 -51 110 -51q38 0 62.5 11.5t46.5 39.5z" />
    <glyph glyph-name="afii10076" unicode="&#x43a;" horiz-adv-x="502" 
d="M77 0v531h68v-223l245 223h96l-269 -243l290 -288h-97l-243 246l-22 -19v-227h-68z" />
    <glyph glyph-name="afii10077" unicode="&#x43b;" horiz-adv-x="553" 
d="M283 531l244 -531h-73l-180 404l-179 -404h-68l243 531h13z" />
    <glyph glyph-name="afii10078" unicode="&#x43c;" horiz-adv-x="879" 
d="M441 116l212 415h20l180 -531h-71l-131 391l-205 -391h-12l-205 391l-131 -391h-71l181 531h19z" />
    <glyph glyph-name="afii10079" unicode="&#x43d;" horiz-adv-x="598" 
d="M454 0v257h-309v-257h-68v531h68v-211h309v211h68v-531h-68z" />
    <glyph glyph-name="afii10080" unicode="&#x43e;" horiz-adv-x="655" 
d="M328 545q118 0 197.5 -82.5t79.5 -198.5q0 -115 -79.5 -196t-197.5 -81t-197.5 81t-79.5 196q0 116 79.5 198.5t197.5 82.5zM328 479q-85 0 -146 -63.5t-61 -152.5q0 -88 59 -150.5t148 -62.5q88 0 147.5 62.5t59.5 150.5t-61 152t-146 64z" />
    <glyph glyph-name="afii10081" unicode="&#x43f;" horiz-adv-x="598" 
d="M76 0v531h446v-531h-68v468h-310v-468h-68z" />
    <glyph glyph-name="afii10082" unicode="&#x440;" horiz-adv-x="682" 
d="M145 531v-97q79 111 211 111q115 0 195 -82t80 -196q0 -115 -79 -198t-194 -83q-126 0 -213 105v-285h-68v725h68zM351 479q-89 0 -150 -62t-61 -154q0 -95 62.5 -154.5t148.5 -59.5q88 0 149 64t61 152q0 87 -60 150.5t-150 63.5z" />
    <glyph glyph-name="afii10083" unicode="&#x441;" horiz-adv-x="647" 
d="M537 142l55 -35q-80 -121 -249 -121q-128 0 -210 80.5t-82 194.5q0 119 84 201.5t213 82.5q78 0 143 -32t101 -92l-55 -34q-72 95 -192 95q-98 0 -161 -64t-63 -152q0 -90 62.5 -153.5t162.5 -63.5q116 0 191 93z" />
    <glyph glyph-name="afii10084" unicode="&#x442;" horiz-adv-x="383" 
d="M17 473v58h350v-58h-141v-473h-68v473h-141z" />
    <glyph glyph-name="afii10085" unicode="&#x443;" horiz-adv-x="537" 
d="M234 40l-218 491h72l183 -409l177 409h73l-317 -725h-72z" />
    <glyph glyph-name="afii10086" unicode="&#x444;" horiz-adv-x="1082" 
d="M576 80v-274h-68v274q-69 -96 -183 -96q-119 0 -196.5 78.5t-77.5 199.5q0 124 78 202.5t194 78.5t185 -92v285h68v-285q33 43 74.5 67.5t109.5 24.5q117 0 195 -79t78 -202q0 -121 -78 -199.5t-197 -78.5q-113 0 -182 96zM331 50q37 0 79.5 20t65.5 55q17 25 25 52.5
t9 43t1 45.5q0 103 -53.5 158.5t-127.5 55.5q-90 0 -149.5 -61t-59.5 -155q0 -89 57.5 -151.5t152.5 -62.5zM752 50q95 0 153 62t58 153q0 92 -59.5 153.5t-150.5 61.5q-76 0 -128 -56t-52 -158q0 -30 0.5 -43t9 -41t25.5 -55q23 -37 64 -57t80 -20z" />
    <glyph glyph-name="afii10087" unicode="&#x445;" horiz-adv-x="480" 
d="M197 279l-182 252h82l141 -196l141 196h81l-181 -252l204 -279h-83l-162 223l-160 -223h-82z" />
    <glyph glyph-name="afii10088" unicode="&#x446;" horiz-adv-x="653" 
d="M573 -84v84h-496v531h68v-468h309v468h68v-468h115v-147h-64z" />
    <glyph glyph-name="afii10089" unicode="&#x447;" horiz-adv-x="479" 
d="M335 0v237h-141q-79 0 -119.5 41t-40.5 118v135h68v-94q0 -79 20 -108t92 -29h121v231h68v-531h-68z" />
    <glyph glyph-name="afii10090" unicode="&#x448;" horiz-adv-x="946" 
d="M871 531v-531h-794v531h68v-468h291v468h72v-468h291v468h72z" />
    <glyph glyph-name="afii10091" unicode="&#x449;" horiz-adv-x="1001" 
d="M920 -84v84h-843v531h68v-468h294v468h68v-468h292v468h72v-468h114v-147h-65z" />
    <glyph glyph-name="afii10092" unicode="&#x44a;" horiz-adv-x="519" 
d="M193 531v-210h65q82 0 113 -10q54 -16 85 -58t31 -95q0 -67 -47.5 -112.5t-138.5 -45.5h-176v468h-98v63h166zM250 263h-57v-205h78q141 0 141 101q0 58 -45 86q-29 18 -117 18z" />
    <glyph glyph-name="afii10093" unicode="&#x44b;" horiz-adv-x="671" 
d="M533 0v531h68v-531h-68zM144 531v-209h65q79 0 113 -11q54 -16 85.5 -58t31.5 -95q0 -67 -47.5 -112.5t-138.5 -45.5h-177v531h68zM204 259h-57v-201h78q139 0 139 96q0 26 -12 50t-31 36q-30 19 -117 19z" />
    <glyph glyph-name="afii10094" unicode="&#x44c;" horiz-adv-x="471" 
d="M144 531v-209h65q79 0 113 -11q54 -16 85.5 -58t31.5 -95q0 -67 -47.5 -112.5t-138.5 -45.5h-177v531h68zM204 259h-57v-201h78q139 0 139 96q0 26 -12 50t-31 36q-30 19 -117 19z" />
    <glyph glyph-name="afii10095" unicode="&#x44d;" horiz-adv-x="644" 
d="M53 107l54 35q73 -93 192 -93q102 0 164 65q43 45 59 132h-239v58h236q-15 84 -76.5 131t-143.5 47q-120 0 -192 -95l-56 35q90 123 245 123q129 0 213.5 -82.5t84.5 -201.5q0 -114 -82 -194.5t-210 -80.5q-169 0 -249 121z" />
    <glyph glyph-name="afii10096" unicode="&#x44e;" horiz-adv-x="836" 
d="M145 531v-223h89q7 30 11 45t18 43.5t36 53.5q84 95 209 95q118 0 197.5 -82.5t79.5 -198.5q0 -115 -79.5 -196t-197.5 -81q-76 0 -139 36.5t-100 100.5q-24 41 -35 117h-89v-241h-68v531h68zM508 479q-85 0 -146 -64t-61 -152t59 -150.5t148 -62.5q88 0 147.5 62
t59.5 151t-61 152.5t-146 63.5z" />
    <glyph glyph-name="afii10097" unicode="&#x44f;" horiz-adv-x="445" 
d="M301 0v238h-50l-151 -238h-74l160 245q-63 9 -98 46q-22 23 -28.5 46.5t-6.5 60.5q0 56 41 94.5t113 38.5h162v-531h-68zM301 296v177h-46q-67 0 -101.5 -16t-34.5 -69q0 -27 8 -45t18 -27t31 -14t35.5 -5.5t43.5 -0.5h46z" />
    <glyph glyph-name="uni0450" unicode="&#x450;" horiz-adv-x="650" 
d="M599 260h-478q2 -92 58.5 -151.5t141.5 -59.5q75 0 121 34t82 93l57 -30q-81 -159 -253 -159q-126 0 -201.5 82t-75.5 195t76.5 197t196.5 84q116 0 195 -78t80 -207zM128 320h396q-20 79 -73.5 119t-125.5 40q-151 0 -197 -159zM190 781h105l107 -151h-68z" />
    <glyph glyph-name="afii10071" unicode="&#x451;" horiz-adv-x="649" 
d="M599 261h-478q2 -92 58.5 -152t141.5 -60q75 0 121 34t82 93l57 -30q-82 -160 -253 -160q-126 0 -201.5 82.5t-75.5 195.5t76.5 197t196.5 84q116 0 195 -77.5t80 -206.5zM128 319h396q-20 80 -73.5 120t-125.5 40q-151 0 -197 -160zM226 741q23 0 39.5 -17t16.5 -40
t-16.5 -39.5t-39.5 -16.5t-40 16.5t-17 39.5t17 40t40 17zM425 741q23 0 40 -16.5t17 -40.5q0 -23 -17 -39.5t-40 -16.5t-39.5 16.5t-16.5 39.5t16.5 40t39.5 17z" />
    <glyph glyph-name="afii10099" unicode="&#x452;" horiz-adv-x="627" 
d="M93 736h68v-66h234v-58h-234v-176q83 109 199 109q89 0 142.5 -62t53.5 -178v-305q0 -13 0.5 -40t0.5 -40q0 -127 -91 -127q-38 0 -77 15v62q28 -14 49 -14q22 0 34 13.5t14 28.5t2 42v349q0 97 -33 145t-108 48q-86 0 -140 -71q-28 -36 -37 -78t-9 -110v-223h-68v612
h-76v58h76v66z" />
    <glyph glyph-name="afii10100" unicode="&#x453;" horiz-adv-x="361" 
d="M149 629l106 151h105l-144 -151h-67zM345 473h-201v-473h-68v531h269v-58z" />
    <glyph glyph-name="afii10101" unicode="&#x454;" horiz-adv-x="642" 
d="M357 246h-236q12 -93 74.5 -145t150.5 -52q118 0 191 93l55 -35q-80 -121 -249 -121q-128 0 -210 80.5t-82 194.5q0 119 84 201.5t213 82.5q78 0 143 -32t101 -92l-55 -34q-72 95 -192 95q-82 0 -143 -47.5t-81 -130.5h236v-58z" />
    <glyph glyph-name="afii10102" unicode="&#x455;" horiz-adv-x="388" 
d="M26 62l43 49q55 -61 111 -61q39 0 68.5 26.5t29.5 63.5q0 50 -44 74q-108 60 -134 82q-50 43 -50 108q0 62 42 101.5t104 39.5q73 0 147 -72l-44 -45q-56 54 -107 54q-33 0 -56.5 -22t-23.5 -52q0 -20 11.5 -40.5t29.5 -30.5q13 -7 42.5 -24t39 -23t31.5 -20t28.5 -21
t19.5 -20.5t17 -25t8 -27t4 -33.5q0 -64 -45 -110t-115 -46q-45 0 -87 19.5t-70 55.5z" />
    <glyph glyph-name="afii10103" unicode="&#x456;" horiz-adv-x="200" 
d="M67 0v531h68v-531h-68zM100 750q23 0 40 -16.5t17 -39.5t-17 -40t-40 -17t-39.5 17t-16.5 40q0 24 16.5 40t39.5 16z" />
    <glyph glyph-name="afii10104" unicode="&#x457;" horiz-adv-x="200" 
d="M67 0v531h68v-531h-68zM1 741q23 0 39.5 -17t16.5 -40t-16.5 -39.5t-39.5 -16.5t-40 16.5t-17 39.5t17 40t40 17zM200 741q23 0 39.5 -17t16.5 -40t-16.5 -39.5t-39.5 -16.5t-40 16.5t-17 39.5t17 40t40 17z" />
    <glyph glyph-name="afii10105" unicode="&#x458;" horiz-adv-x="203" 
d="M69 -80v611h68v-611q0 -127 -91 -127q-38 0 -77 15v62q28 -14 49 -14q51 0 51 64zM102 750q23 0 40 -16.5t17 -39.5t-17 -40t-40 -17t-39.5 17t-16.5 40t16.5 39.5t39.5 16.5z" />
    <glyph glyph-name="afii10106" unicode="&#x459;" horiz-adv-x="792" 
d="M270 531h13l97 -209h152q79 0 113 -11q54 -17 85 -58.5t31 -94.5q0 -52 -33 -96q-16 -21 -37 -34t-37 -17.5t-46 -10.5h-154l-180 404l-179 -404h-68zM527 259h-120l91 -201h49q139 0 139 96q0 26 -11.5 50t-30.5 36q-28 19 -117 19z" />
    <glyph glyph-name="afii10107" unicode="&#x45a;" horiz-adv-x="846" 
d="M522 531v-211h62q82 0 114 -10q54 -16 85 -58t31 -95q0 -67 -47.5 -112t-138.5 -45h-174v257h-309v-257h-68v531h68v-211h309v211h68zM580 257h-58v-199h78q139 0 139 95q0 26 -12 49t-31 35q-31 20 -116 20z" />
    <glyph glyph-name="afii10108" unicode="&#x45b;" horiz-adv-x="627" 
d="M93 0v612h-76v58h76v66h68v-66h234v-58h-234v-176q83 109 199 109q89 0 142.5 -62t53.5 -178v-305h-68v289q0 97 -33 145t-108 48q-86 0 -140 -71q-28 -36 -37 -78t-9 -110v-223h-68z" />
    <glyph glyph-name="afii10109" unicode="&#x45c;" horiz-adv-x="502" 
d="M77 0v531h68v-223l245 223h101l-269 -243l285 -288h-97l-243 246l-22 -19v-227h-68zM212 630l107 151h105l-145 -151h-67z" />
    <glyph glyph-name="uni045D" unicode="&#x45d;" horiz-adv-x="616" 
d="M76 531h68v-393l390 393h6v-531h-68v390l-387 -390h-9v531zM190 781h105l107 -151h-68z" />
    <glyph glyph-name="afii10110" unicode="&#x45e;" horiz-adv-x="537" 
d="M234 40l-218 491h72l183 -409l177 409h73l-317 -725h-72zM393 745h62q-11 -45 -55 -74t-116 -29q-70 0 -116 27.5t-59 75.5h65q34 -51 110 -51q39 0 63.5 11t45.5 40z" />
    <glyph glyph-name="afii10193" unicode="&#x45f;" horiz-adv-x="599" 
d="M264 -84v84h-187v531h68v-468h309v468h68v-531h-194v-84h-64z" />
    <glyph glyph-name="afii10146" unicode="&#x462;" horiz-adv-x="606" 
d="M5 520v67h82v131h72v-131h234v-67h-234v-110h71q62 0 122 -3q94 -6 146 -58.5t52 -137.5q0 -147 -119 -192q-50 -19 -178 -19h-166v520h-82zM159 340v-270h76q117 0 156 11q81 33 84 127q0 54 -34.5 90t-87.5 38q-116 4 -133 4h-61z" />
    <glyph glyph-name="afii10194" unicode="&#x463;" horiz-adv-x="471" 
d="M13 474v58h63v204h68v-204h171v-58h-171v-152h65q79 0 113 -11q54 -16 85.5 -58t31.5 -95q0 -67 -47.5 -112.5t-138.5 -45.5h-177v474h-63zM204 259h-57v-201h78q139 0 139 96q0 26 -12 50t-31 36q-30 19 -117 19z" />
    <glyph glyph-name="afii10147" unicode="&#x472;" horiz-adv-x="869" 
d="M429 736q163 0 273.5 -108t110.5 -269q0 -159 -109.5 -268t-268.5 -109q-163 0 -271 110t-108 264q0 160 108.5 270t264.5 110zM433 52q119 0 205 77t98 198h-604q11 -120 98 -197.5t203 -77.5zM433 666q-113 0 -200 -76t-100 -196h603q-13 119 -100.5 195.5t-202.5 76.5
z" />
    <glyph glyph-name="afii10195" unicode="&#x473;" horiz-adv-x="655" 
d="M328 545q118 0 197.5 -82.5t79.5 -198.5q0 -115 -79.5 -196.5t-197.5 -81.5t-197.5 81.5t-79.5 196.5q0 116 79.5 198.5t197.5 82.5zM328 52q81 0 138.5 52.5t66.5 131.5h-411q10 -79 67 -131.5t139 -52.5zM328 479q-77 0 -135.5 -53.5t-69.5 -131.5h410
q-11 78 -69.5 131.5t-135.5 53.5z" />
    <glyph glyph-name="afii10148" unicode="&#x474;" horiz-adv-x="787" 
d="M111 718l238 -555l197 453q27 62 63.5 92.5t90.5 30.5q77 0 143 -83l-49 -44q-18 20 -25.5 28t-27.5 18.5t-42 10.5q-52 0 -88 -83l-254 -586h-16l-308 718h78z" />
    <glyph glyph-name="afii10196" unicode="&#x475;" horiz-adv-x="602" 
d="M100 531l178 -386l152 329q34 71 104 71q63 0 119 -56l-38 -47q-23 24 -39.5 32t-43.5 8q-28 0 -53 -56l-195 -426h-12l-245 531h73z" />
    <glyph glyph-name="afii10050" unicode="&#x490;" horiz-adv-x="405" 
d="M159 648v-648h-72v718h232v105h72v-175h-232z" />
    <glyph glyph-name="afii10098" unicode="&#x491;" horiz-adv-x="356" 
d="M330 473h-186v-473h-68v531h186v66h68v-124z" />
    <glyph glyph-name="uni0492" unicode="&#x492;" horiz-adv-x="462" 
d="M21 356v67h66v295h360v-70h-288v-225h220v-67h-220v-356h-72v356h-66z" />
    <glyph glyph-name="uni0493" unicode="&#x493;" horiz-adv-x="361" 
d="M14 247v58h62v226h269v-58h-201v-168h163v-58h-163v-247h-68v247h-62z" />
    <glyph glyph-name="uni0496" unicode="&#x496;" horiz-adv-x="935" 
d="M525 353l-22 -19v-334h-72v334l-23 19l-294 -353h-95l343 398l-316 320h97l288 -303v303h72v-303l288 303h97l-316 -320l343 -398v-107h-68v107h-27z" />
    <glyph glyph-name="uni0497" unicode="&#x497;" horiz-adv-x="769" 
d="M350 297v234h68v-234l254 234h83l-251 -236l270 -295v-84h-64v84h-23l-230 257l-39 -33v-224h-68v224l-40 33l-229 -257h-87l267 295l-247 236h84z" />
    <glyph glyph-name="uni049A" unicode="&#x49a;" horiz-adv-x="591" 
d="M87 0v718h74v-269l286 269h97l-345 -322l372 -396v-107h-68v107h-27l-315 335v-335h-74z" />
    <glyph glyph-name="uni049B" unicode="&#x49b;" horiz-adv-x="502" 
d="M77 0v531h68v-223l245 223h96l-269 -243l290 -288v-84h-64v84h-33l-243 246l-22 -19v-227h-68z" />
    <glyph glyph-name="uni04A2" unicode="&#x4a2;" horiz-adv-x="741" 
d="M86 0v718h73v-301h365v301h72v-648h124v-177h-68v107h-128v347h-365v-347h-73z" />
    <glyph glyph-name="uni04A3" unicode="&#x4a3;" horiz-adv-x="653" 
d="M454 0v257h-309v-257h-68v531h68v-211h309v211h68v-468h115v-147h-64v84h-119z" />
    <glyph glyph-name="uni04AE" unicode="&#x4ae;" horiz-adv-x="592" 
d="M262 0v343l-231 375h83l184 -296l181 296h83l-228 -375v-343h-72z" />
    <glyph glyph-name="uni04AF" unicode="&#x4af;" horiz-adv-x="529" 
d="M232 35l-220 496h72l183 -409l177 409h73l-217 -496v-229h-68v229z" />
    <glyph glyph-name="uni04B0" unicode="&#x4b0;" horiz-adv-x="592" 
d="M126 174v57h136v112l-231 375h83l184 -296l181 296h83l-228 -375v-112h136v-57h-136v-174h-72v174h-136z" />
    <glyph glyph-name="uni04B1" unicode="&#x4b1;" horiz-adv-x="529" 
d="M96 -64v58h136v41l-220 496h72l183 -409l177 409h73l-217 -496v-41h137v-58h-137v-130h-68v130h-136z" />
    <glyph glyph-name="uni04B2" unicode="&#x4b2;" horiz-adv-x="609" 
d="M263 370l-213 348h84l172 -280l173 280h83l-214 -348l228 -370v-107h-68v107h-16l-186 301l-188 -301h-84z" />
    <glyph glyph-name="uni04B3" unicode="&#x4b3;" horiz-adv-x="480" 
d="M197 279l-182 252h82l141 -196l141 196h81l-181 -252l204 -279v-84h-64v84h-19l-162 223l-160 -223h-82z" />
    <glyph glyph-name="uni04B6" unicode="&#x4b6;" horiz-adv-x="598" 
d="M246 409h135v309h72v-648h124v-177h-68v107h-128v339h-108q-155 0 -216 74q-27 33 -34.5 69t-7.5 94v142h72v-146q0 -84 33 -123.5t126 -39.5z" />
    <glyph glyph-name="uni04B7" unicode="&#x4b7;" horiz-adv-x="532" 
d="M333 0v237h-139q-79 0 -119.5 41t-40.5 118v135h68v-94q0 -79 20 -108t92 -29h119v231h68v-468h115v-147h-64v84h-119z" />
    <glyph glyph-name="uni04BA" unicode="&#x4ba;" horiz-adv-x="539" 
d="M293 349h-135v-349h-72v718h72v-299h108q84 0 137 -14t85 -53q36 -44 36 -170v-182h-72v186q0 49 -5 77t-22 49t-48 29t-84 8z" />
    <glyph glyph-name="uni04BB" unicode="&#x4bb;" horiz-adv-x="610" 
d="M76 0v736h68v-300q83 109 199 109q89 0 142.5 -62t53.5 -178v-305h-68v289q0 97 -33 145.5t-108 48.5q-85 0 -140 -72q-28 -36 -37 -77.5t-9 -110.5v-223h-68z" />
    <glyph glyph-name="uni04C0" unicode="&#x4c0;" horiz-adv-x="226" 
d="M77 0v718h72v-718h-72z" />
    <glyph glyph-name="uni04CF" unicode="&#x4cf;" horiz-adv-x="200" 
d="M66 0v736h68v-736h-68z" />
    <glyph glyph-name="uni04D8" unicode="&#x4d8;" horiz-adv-x="849" 
d="M56 345v41h657q-6 61 -21.5 102.5t-59.5 84.5q-95 93 -227 93q-161 0 -257 -124l-57 43q52 73 134 112t181 39q167 0 277 -107t110 -266q0 -162 -105 -271t-277 -109q-69 0 -130 20t-112.5 61t-82 113.5t-30.5 167.5zM714 316h-586q3 -70 29 -123t67.5 -83.5t89 -45.5
t98.5 -15q118 0 203 76t99 191z" />
    <glyph glyph-name="uni04D9" unicode="&#x4d9;" horiz-adv-x="650" 
d="M51 272h478q-2 92 -58.5 151.5t-141.5 59.5q-75 0 -121 -34t-82 -93l-57 30q81 159 253 159q126 0 201.5 -82t75.5 -195t-76.5 -197t-196.5 -84q-116 0 -195 78t-80 207zM522 212h-396q20 -79 73.5 -119t125.5 -40q151 0 197 159z" />
    <glyph glyph-name="uni04E2" unicode="&#x4e2;" horiz-adv-x="740" 
d="M652 718v-718h-75v550l-473 -550h-16v718h72v-560l476 560h16zM218 813v60h337v-60h-337z" />
    <glyph glyph-name="uni04E3" unicode="&#x4e3;" horiz-adv-x="616" 
d="M76 531h68v-393l390 393h6v-531h-68v390l-387 -390h-9v531zM156 663v60h337v-60h-337z" />
    <glyph glyph-name="uni04E8" unicode="&#x4e8;" horiz-adv-x="869" 
d="M429 736q163 0 273.5 -108t110.5 -269q0 -159 -109.5 -268t-268.5 -109q-163 0 -271 110t-108 264q0 160 108.5 270t264.5 110zM433 52q119 0 205 77t98 198h-604q11 -120 98 -197.5t203 -77.5zM433 666q-113 0 -200 -76t-100 -196h603q-13 119 -100.5 195.5t-202.5 76.5
z" />
    <glyph glyph-name="uni04E9" unicode="&#x4e9;" horiz-adv-x="655" 
d="M328 545q118 0 197.5 -82.5t79.5 -198.5q0 -115 -79.5 -196.5t-197.5 -81.5t-197.5 81.5t-79.5 196.5q0 116 79.5 198.5t197.5 82.5zM328 52q81 0 138.5 52.5t66.5 131.5h-411q10 -79 67 -131.5t139 -52.5zM328 479q-77 0 -135.5 -53.5t-69.5 -131.5h410
q-11 78 -69.5 131.5t-135.5 53.5z" />
    <glyph glyph-name="uni04EE" unicode="&#x4ee;" horiz-adv-x="646" 
d="M295 139l-262 578h81l217 -488l199 488h79l-273 -644q-39 -91 -135 -91q-36 0 -67.5 15t-47.5 29.5t-46 46.5l52 43q5 -4 18 -17t16.5 -16t13.5 -11.5t14.5 -11t13 -6.5t16 -5t16.5 -1q36 0 55.5 21t39.5 70zM163 813v60h337v-60h-337z" />
    <glyph glyph-name="uni04EF" unicode="&#x4ef;" horiz-adv-x="537" 
d="M234 40l-218 491h72l183 -409l177 409h73l-317 -725h-72zM110 663v60h337v-60h-337z" />
    <glyph glyph-name="Wgrave" unicode="&#x1e80;" horiz-adv-x="960" 
d="M250 0l-203 718h74l146 -517l206 517h15l203 -517l149 517h73l-206 -718h-14l-212 543l-218 -543h-13zM338 931h105l107 -151h-68z" />
    <glyph glyph-name="wgrave" unicode="&#x1e81;" horiz-adv-x="831" 
d="M230 0l-226 531h71l162 -385l170 385h12l171 -385l165 385h71l-230 -531h-13l-169 380l-170 -380h-14zM261 781h105l107 -151h-68z" />
    <glyph glyph-name="Wacute" unicode="&#x1e82;" horiz-adv-x="960" 
d="M250 0l-203 718h74l146 -517l206 517h15l203 -517l149 517h73l-206 -718h-14l-212 543l-218 -543h-13zM402 780l107 151h105l-145 -151h-67z" />
    <glyph glyph-name="wacute" unicode="&#x1e83;" horiz-adv-x="831" 
d="M230 0l-226 531h71l162 -385l170 385h12l171 -385l165 385h71l-230 -531h-13l-169 380l-170 -380h-14zM336 630l107 151h105l-145 -151h-67z" />
    <glyph glyph-name="Wdieresis" unicode="&#x1e84;" horiz-adv-x="960" 
d="M250 0l-203 718h74l146 -517l206 517h15l203 -517l149 517h73l-206 -718h-14l-212 543l-218 -543h-13zM380 891q23 0 39.5 -17t16.5 -40t-16.5 -39.5t-39.5 -16.5t-40 16.5t-17 39.5t17 40t40 17zM579 891q23 0 39.5 -17t16.5 -40t-16.5 -39.5t-39.5 -16.5t-40 16.5
t-17 39.5t17 40t40 17z" />
    <glyph glyph-name="wdieresis" unicode="&#x1e85;" horiz-adv-x="831" 
d="M230 0l-226 531h71l162 -385l170 385h12l171 -385l165 385h71l-230 -531h-13l-169 380l-170 -380h-14zM317 741q23 0 39.5 -17t16.5 -40t-16.5 -39.5t-39.5 -16.5t-40 16.5t-17 39.5t17 40t40 17zM516 741q23 0 39.5 -17t16.5 -40t-16.5 -39.5t-39.5 -16.5t-40 16.5
t-17 39.5t17 40t40 17z" />
    <glyph glyph-name="Ygrave" unicode="&#x1ef2;" horiz-adv-x="592" 
d="M262 0v343l-231 375h83l184 -296l181 296h83l-228 -375v-343h-72zM139 931h105l107 -151h-68z" />
    <glyph glyph-name="ygrave" unicode="&#x1ef3;" horiz-adv-x="536" 
d="M237 40l-218 491h72l183 -409l177 409h73l-317 -725h-72zM113 781h105l107 -151h-68z" />
    <glyph glyph-name="endash" unicode="&#x2013;" horiz-adv-x="500" 
d="M-6 248v63h512v-63h-512z" />
    <glyph glyph-name="emdash" unicode="&#x2014;" horiz-adv-x="1000" 
d="M-6 248v63h1012v-63h-1012z" />
    <glyph glyph-name="quoteleft" unicode="&#x2018;" horiz-adv-x="351" 
d="M140 468v95q0 56 9.5 92.5t32.5 80.5l37 -21q-29 -58 -34 -113h43v-134h-88z" />
    <glyph glyph-name="quoteright" unicode="&#x2019;" horiz-adv-x="351" 
d="M211 736v-94q0 -55 -9 -92t-32 -82l-38 22q28 57 34 112h-43v134h88z" />
    <glyph glyph-name="quotesinglbase" unicode="&#x201a;" horiz-adv-x="354" 
d="M213 134v-94q0 -55 -9 -92t-32 -82l-38 21q28 58 34 113h-43v134h88z" />
    <glyph glyph-name="quotedblleft" unicode="&#x201c;" horiz-adv-x="502" 
d="M100 468v95q0 56 9.5 92.5t32.5 80.5l37 -21q-29 -58 -34 -113h43v-134h-88zM318 468v95q0 56 9.5 92.5t31.5 80.5l38 -21q-11 -22 -15 -31t-10.5 -32t-9.5 -50h44v-134h-88z" />
    <glyph glyph-name="quotedblright" unicode="&#x201d;" horiz-adv-x="484" 
d="M394 736v-94q0 -55 -9.5 -92t-32.5 -82l-38 22q26 54 32 92l2 20h-42v134h88zM176 736v-94q0 -55 -9 -92t-32 -82l-38 22q28 57 34 112h-43v134h88z" />
    <glyph glyph-name="quotedblbase" unicode="&#x201e;" horiz-adv-x="502" 
d="M403 134v-94q0 -55 -9.5 -92t-32.5 -82l-38 21q29 61 34 113h-42v134h88zM185 134v-94q0 -55 -9.5 -92t-31.5 -82l-38 21q28 56 34 113h-43v134h88z" />
    <glyph glyph-name="dagger" unicode="&#x2020;" horiz-adv-x="553" 
d="M253 513l-14 223h73l-12 -223l176 11v-73l-176 12l14 -616h-75l14 616l-176 -12v73z" />
    <glyph glyph-name="daggerdbl" unicode="&#x2021;" horiz-adv-x="553" 
d="M253 563l-13 173h73l-12 -173l175 12v-72l-175 12l12 -223l-12 -221l175 10v-73l-175 14l12 -175h-73l13 175l-175 -14v73l175 -10l-13 221l13 223l-175 -12v72z" />
    <glyph glyph-name="bullet" unicode="&#x2022;" horiz-adv-x="606" 
d="M303 514q62 0 106 -44t44 -106t-43.5 -106t-106.5 -44t-106.5 44t-43.5 106t44 106t106 44z" />
    <glyph glyph-name="ellipsis" unicode="&#x2026;" horiz-adv-x="1000" 
d="M501 108q24 0 42 -18t18 -43t-17.5 -43t-42.5 -18t-42.5 18t-17.5 43t17.5 43t42.5 18zM167 108q24 0 42 -18t18 -43t-17.5 -43t-42.5 -18t-42.5 18t-17.5 43t17.5 43t42.5 18zM834 108q25 0 42.5 -18t17.5 -43t-17.5 -43t-42.5 -18t-42.5 18t-17.5 43t18 43t42 18z" />
    <glyph glyph-name="perthousand" unicode="&#x2030;" horiz-adv-x="1174" 
d="M618 750h58l-523 -800h-65l476 729q-88 -21 -213 -21q-2 0 -9.5 0.5t-9.5 0.5q30 -41 30 -92q0 -66 -48 -117.5t-123 -51.5q-72 0 -119.5 49.5t-47.5 118.5q0 74 51 122t117 48q10 0 70 -11t127 -11q100 0 229 36zM193 674q-44 0 -75.5 -31.5t-31.5 -75.5q0 -50 32 -78.5
t75 -28.5q44 0 75.5 28.5t31.5 78.5q0 41 -33 74t-74 33zM416 148q0 80 50.5 124.5t118.5 44.5q69 0 119 -44.5t50 -124.5q0 -64 -52.5 -116.5t-116.5 -52.5q-70 0 -119.5 49.5t-49.5 119.5zM692 148q0 47 -36 77t-82 30q-40 0 -68 -27t-28 -80q0 -44 31.5 -75t75.5 -31
t75.5 31t31.5 75zM806 148q0 80 50.5 124.5t118.5 44.5q69 0 119 -44.5t50 -124.5q0 -64 -52.5 -116.5t-116.5 -52.5q-70 0 -119.5 49.5t-49.5 119.5zM1082 148q0 47 -36 77t-82 30q-40 0 -68 -27t-28 -80q0 -44 31.5 -75t75.5 -31t75.5 31t31.5 75z" />
    <glyph glyph-name="guilsinglleft" unicode="&#x2039;" horiz-adv-x="251" 
d="M145 531h72l-109 -266l109 -265h-72l-109 265z" />
    <glyph glyph-name="guilsinglright" unicode="&#x203a;" horiz-adv-x="251" 
d="M106 0h-72l109 266l-109 265h72l109 -265z" />
    <glyph glyph-name="fraction" unicode="&#x2044;" horiz-adv-x="166" 
d="M-116 -18h-54l451 754h54z" />
    <glyph glyph-name="Euro" unicode="&#x20ac;" horiz-adv-x="554" 
d="M41 471h55q37 123 139 194q101 71 233 71q35 0 78 -7l-18 -69q-28 6 -59 6q-98 0 -177 -52q-80 -51 -116 -143h312l-18 -67h-311q-3 -22 -3 -47q0 -8 2 -38h289l-18 -67h-256q32 -94 115 -149q81 -54 185 -54q30 0 68 8v-68q-31 -6 -73 -6q-137 0 -237 71
q-100 72 -136 198h-72l17 67h43q-2 36 -2 44q0 7 2 41h-60z" />
    <glyph glyph-name="uni20B4" unicode="&#x20b4;" horiz-adv-x="597" 
d="M532 256h-359q-26 -37 -26 -85q0 -57 40.5 -90t105.5 -33q119 0 191 101l48 -39q-44 -64 -108 -96.5t-136 -32.5q-100 0 -155 49t-55 136q0 45 20 90h-48v63h86q37 34 134 89h-220v63h312q59 47 59 116q0 32 -27.5 57t-93.5 25q-37 0 -72.5 -21.5t-59.5 -54.5l-48 38
q29 46 79.5 75.5t106.5 29.5q52 0 90 -14.5t57.5 -38.5t28 -49t8.5 -51q0 -61 -42 -112h84v-63h-142q-17 -11 -100 -56q-51 -28 -58 -33h300v-63z" />
    <glyph glyph-name="afii61289" unicode="&#x2113;" horiz-adv-x="494" 
d="M416 55q-63 -68 -131 -68q-49 0 -80 31q-35 38 -35 115v121q-3 -4 -26 -29t-35 -38q-5 6 -15.5 17.5t-15.5 17.5q30 34 92 102v235q0 83 31 126t85 43q48 0 71 -32t23 -71q0 -66 -29 -128.5t-83 -135.5q-4 -4 -16.5 -20t-17.5 -22v-188q0 -91 64 -91q43 0 90 53
q4 -7 14 -19t14 -19zM327 618q0 24 -9.5 40.5t-29.5 16.5q-54 0 -54 -116v-165q8 10 22 30q71 108 71 194z" />
    <glyph glyph-name="afii61352" unicode="&#x2116;" horiz-adv-x="1098" 
d="M161 0h-72v718h15l477 -550v550h72v-718h-17l-475 543v-543zM734 0v50h338v-50h-338zM733 310q0 70 49.5 120t120.5 50t120.5 -50t49.5 -120t-49.5 -120t-120.5 -50t-120.5 50t-49.5 120zM796 309q0 -44 31.5 -75.5t75.5 -31.5t75.5 31.5t31.5 75.5t-31.5 75.5
t-75.5 31.5t-75.5 -31.5t-31.5 -75.5z" />
    <glyph glyph-name="trademark" unicode="&#x2122;" horiz-adv-x="1000" 
d="M844 739h116v-421h-72v347l-158 -347h-48l-152 347v-347h-72v421h118l130 -292zM6 739h370v-67h-149v-354h-72v354h-149v67z" />
    <glyph glyph-name="Omega" unicode="&#x2126;" horiz-adv-x="712" 
d="M661 0h-225v57q29 25 51.5 49.5t48.5 64t40.5 92.5t14.5 114q0 121 -61 198.5t-171 77.5q-106 0 -172 -77.5t-66 -198.5q0 -189 156 -320v-57h-225v57h156q-157 123 -157 328q0 141 86.5 234t221.5 93q141 0 221.5 -89.5t80.5 -235.5q0 -109 -46.5 -193.5t-111.5 -136.5
h158v-57z" />
    <glyph glyph-name="estimated" unicode="&#x212e;" horiz-adv-x="662" 
d="M621 295h-455v-203q68 -66 162 -66q74 0 126 34t92 100q3 -2 16 -10t21 -12q-50 -74 -108.5 -112t-146.5 -38q-129 0 -208.5 88.5t-79.5 218.5q0 132 78.5 220t210.5 88q133 0 211 -87.5t81 -220.5zM492 333v165q-70 68 -164 68q-98 0 -162 -67v-166h326z" />
    <glyph glyph-name="onethird" unicode="&#x2153;" horiz-adv-x="831" 
d="M192 -18h-53l450 754h55zM74 679l36 48h91v-369h-54v321h-73zM734 280q0 20 -20.5 35t-51.5 15q-52 0 -77 -57h-55q27 105 132 105q55 0 91.5 -29t36.5 -69q0 -42 -44 -72q67 -32 67 -95q0 -49 -41.5 -85.5t-108.5 -36.5q-125 0 -147 118h53q19 -70 94 -70q43 0 69.5 21
t26.5 50q0 66 -124 71v46q99 5 99 53z" />
    <glyph glyph-name="twothirds" unicode="&#x2154;" horiz-adv-x="831" 
d="M227 -18h-53l450 754h55zM734 280q0 20 -20.5 35t-51.5 15q-52 0 -77 -57h-55q27 105 132 105q55 0 91.5 -29t36.5 -69q0 -42 -44 -72q67 -32 67 -95q0 -49 -41.5 -85.5t-108.5 -36.5q-125 0 -147 118h53q19 -70 94 -70q43 0 69.5 21t26.5 50q0 66 -124 71v46q99 5 99 53
zM21 358l175 158q43 38 60 59.5t17 46.5q0 27 -25 46.5t-61 19.5q-40 0 -64.5 -22t-28.5 -64h-52q1 61 43 97.5t104 36.5q60 0 98.5 -32.5t38.5 -80.5q0 -35 -20.5 -63.5t-65.5 -69.5l-93 -84h185v-48h-311z" />
    <glyph glyph-name="oneeighth" unicode="&#x215b;" horiz-adv-x="831" 
d="M192 -18h-53l450 754h55zM74 679l36 48h91v-369h-54v321h-73zM737 202q71 -33 71 -95q0 -48 -39 -82t-105 -34q-69 0 -107 35q-36 36 -36 78q0 63 74 98q-53 27 -53 78q0 40 36.5 69t88.5 29q53 0 87 -30q35 -30 35 -70q0 -49 -52 -76zM734 280q0 22 -18.5 36t-50.5 14
q-29 0 -49 -14t-20 -37t21.5 -39.5t48.5 -16.5q28 0 48 16.5t20 40.5zM754 107q0 30 -25 50t-62 20t-64 -20.5t-27 -52.5t25 -48.5t64 -16.5q38 0 63.5 19t25.5 49z" />
    <glyph glyph-name="threeeighths" unicode="&#x215c;" horiz-adv-x="831" 
d="M84 631h-54q26 105 132 105q52 0 90 -29t38 -70q0 -42 -44 -71q67 -31 67 -94q0 -50 -42 -87q-41 -36 -108 -36q-125 0 -147 118h53q16 -70 95 -70q43 0 69 21t26 50q0 70 -124 71v46q44 0 71.5 14.5t27.5 38.5q0 20 -20.5 35t-50.5 15q-57 0 -79 -57zM217 -18h-54
l451 754h54zM737 202q71 -33 71 -95q0 -48 -39 -82t-105 -34q-68 0 -105 34q-38 35 -38 79q0 64 73 98q-52 27 -52 78q0 40 36.5 69t88.5 29q53 0 87 -30t34 -70q0 -49 -51 -76zM734 280q0 22 -18.5 36t-50.5 14q-30 0 -49.5 -14t-19.5 -37t21.5 -39.5t48.5 -16.5
q28 0 48 16.5t20 40.5zM754 107q0 30 -25 50t-62 20t-64.5 -20.5t-27.5 -52.5t25.5 -48.5t64.5 -16.5q38 0 63.5 19t25.5 49z" />
    <glyph glyph-name="fiveeighths" unicode="&#x215d;" horiz-adv-x="831" 
d="M217 -18h-54l451 754h54zM104 727h195v-47h-153l-18 -84q23 5 43 5q62 0 100.5 -35t38.5 -87q0 -53 -42 -92q-41 -38 -111 -38q-58 0 -95 30t-41 73h55q13 -55 83 -55q39 0 67.5 24t28.5 60q0 32 -25.5 52t-68.5 20q-39 0 -98 -15zM737 202q71 -33 71 -95q0 -48 -39 -82
t-105 -34q-70 0 -107 35q-36 36 -36 78q0 64 73 98q-52 27 -52 78q0 40 36.5 69t88.5 29q51 0 86 -30q35 -29 35 -70q0 -49 -51 -76zM734 280q0 22 -18.5 36t-50.5 14q-30 0 -49.5 -14t-19.5 -37t21.5 -39.5t48.5 -16.5q28 0 48 16.5t20 40.5zM754 107q0 30 -25 50t-62 20
t-64.5 -20.5t-27.5 -52.5t25.5 -48.5t64.5 -16.5q38 0 63.5 19t25.5 49z" />
    <glyph glyph-name="seveneighths" unicode="&#x215e;" horiz-adv-x="831" 
d="M180 -18h-54l451 754h54zM40 680v47h282l-232 -378l-44 20l189 311h-195zM737 202q71 -33 71 -95q0 -48 -39 -82t-105 -34q-69 0 -107 35q-36 36 -36 78q0 63 74 98q-53 27 -53 78q0 40 36.5 69t88.5 29q51 0 86 -30q36 -28 36 -70q0 -49 -52 -76zM734 280q0 22 -18.5 36
t-50.5 14q-29 0 -49 -14t-20 -37t21.5 -39.5t48.5 -16.5q28 0 48 16.5t20 40.5zM754 107q0 30 -25.5 50t-61.5 20q-37 0 -64.5 -20.5t-27.5 -52.5t25.5 -48.5t64.5 -16.5q38 0 63.5 19t25.5 49z" />
    <glyph glyph-name="partialdiff" unicode="&#x2202;" horiz-adv-x="577" 
d="M527 490q0 -90 -26 -194q-15 -58 -38.5 -109.5t-57.5 -97t-81 -72.5t-101 -27q-78 0 -125.5 51t-47.5 135q0 140 81.5 231.5t184.5 91.5q50 0 85.5 -22t52.5 -54h2q4 42 4 73q0 86 -37 131t-105 45q-51 0 -97 -27q-3 8 -9 24.5t-9 24.5q51 32 123 32q92 0 146.5 -61
t54.5 -175zM445 354q-11 41 -43 66.5t-82 25.5q-81 0 -142 -79.5t-61 -192.5q0 -59 30 -94.5t78 -35.5q75 0 134 84t86 226z" />
    <glyph glyph-name="Delta" unicode="&#x2206;" horiz-adv-x="610" 
d="M587 0h-565v35q112 303 244 665h80q40 -111 120.5 -332.5t120.5 -332.5v-35zM507 58q-31 86 -93 258.5t-93 258.5q-4 13 -9 31t-7 24h-3q-4 -20 -15 -54q-31 -87 -93.5 -259t-93.5 -259h407z" />
    <glyph glyph-name="product" unicode="&#x220f;" horiz-adv-x="721" 
d="M633 -230h-68v871h-409v-871h-68v930h545v-930z" />
    <glyph glyph-name="summation" unicode="&#x2211;" horiz-adv-x="632" 
d="M604 -230h-576v30q51 66 340 439q-41 55 -149 200.5t-167 224.5v36h527v-57h-436q200 -268 299 -403q-53 -69 -159.5 -206.5t-159.5 -206.5h481v-57z" />
    <glyph glyph-name="minus" unicode="&#x2212;" horiz-adv-x="606" 
d="M56 326v67h494v-67h-494z" />
    <glyph glyph-name="uni2215" unicode="&#x2215;" horiz-adv-x="166" 
d="M-116 -18h-54l451 754h54z" />
    <glyph glyph-name="uni2219" unicode="&#x2219;" horiz-adv-x="277" 
d="M138 421q24 0 42 -18.5t18 -43.5t-17.5 -42.5t-42.5 -17.5t-42.5 17.5t-17.5 42.5t17.5 43.5t42.5 18.5z" />
    <glyph glyph-name="radical" unicode="&#x221a;" horiz-adv-x="515" 
d="M494 728q-180 -674 -198 -740h-56q-94 232 -142 348q-29 -16 -55 -32q-4 7 -11.5 21t-11.5 21q51 29 110 65q23 -56 68.5 -166.5t68.5 -166.5q29 108 86.5 325t86.5 325h54z" />
    <glyph glyph-name="infinity" unicode="&#x221e;" horiz-adv-x="785" 
d="M733 294q0 -68 -43.5 -115t-114.5 -47q-57 0 -104 32t-78 82h-2q-77 -114 -179 -114q-73 0 -117 44.5t-44 113.5q0 71 43.5 116t114.5 45q109 0 182 -113h2q75 113 178 113q71 0 116.5 -43t45.5 -114zM673 293q0 46 -26 76t-77 30q-81 0 -150 -107q63 -107 149 -107
q52 0 78 31t26 77zM364 292q-29 48 -69.5 77.5t-81.5 29.5q-50 0 -76.5 -31t-26.5 -78q0 -46 29.5 -76t73.5 -30q82 0 151 108z" />
    <glyph glyph-name="integral" unicode="&#x222b;" horiz-adv-x="492" 
d="M411 684q-20 9 -46 9q-86 0 -86 -102v-657q0 -75 -39 -117.5t-108 -42.5q-41 0 -67 11q3 9 7 26.5t7 26.5q22 -9 47 -9q86 0 86 102v658q0 74 39 117t109 43q42 0 66 -13q-2 -8 -7 -26t-8 -26z" />
    <glyph glyph-name="approxequal" unicode="&#x2248;" horiz-adv-x="606" 
d="M531 420q-55 -83 -130 -83q-54 0 -105 32t-88 32q-50 0 -87 -65l-45 50q55 83 131 83q51 0 103 -31q53 -33 89 -33q49 0 87 65zM531 203q-55 -83 -130 -83q-54 0 -105 32t-88 32q-50 0 -87 -65l-45 51q55 82 131 82q51 0 103 -31q53 -33 89 -33q49 0 87 65z" />
    <glyph glyph-name="notequal" unicode="&#x2260;" horiz-adv-x="606" 
d="M513 152h-242l-58 -126h-73l59 126h-105v68h137l69 150h-206v68h238l61 131h72l-61 -131h109v-68h-141l-70 -150h211v-68z" />
    <glyph glyph-name="lessequal" unicode="&#x2264;" horiz-adv-x="606" 
d="M513 0h-419v68h419v-68zM513 135l-419 194v50l419 194v-74l-321 -144v-2l321 -145v-73z" />
    <glyph glyph-name="greaterequal" unicode="&#x2265;" horiz-adv-x="606" 
d="M512 0h-418v68h418v-68zM513 329l-419 -194v74l321 144v2l-321 145v73l419 -193v-51z" />
    <glyph glyph-name="lozenge" unicode="&#x25ca;" horiz-adv-x="561" 
d="M505 350q-28 -48 -206 -350h-37q-108 185 -206 349q138 234 206 351h37q178 -302 206 -350zM445 350q-90 150 -164 278q-110 -186 -165 -278q28 -47 82 -139t82 -139q28 46 82.5 139t82.5 139z" />
    <glyph glyph-name="zero.denominator" 
d="M12 185q0 49 8 76q13 55 52 86t93 31q89 0 132 -78q23 -43 23 -115t-23 -115q-43 -79 -132 -79q-78 0 -119 59h1q-35 46 -35 135zM69 184q0 -78 23 -108q26 -36 73 -36q45 0 72 36t27 108t-26.5 109.5t-72.5 37.5q-45 0 -73 -39q-23 -30 -23 -108z" />
    <glyph glyph-name="one.denominator" 
d="M74 321l35 48h92v-369h-54v321h-73z" />
    <glyph glyph-name="two.denominator" 
d="M3 0l175 158q43 38 60 59.5t17 46.5q0 27 -25 46.5t-61 19.5q-40 0 -64.5 -22t-28.5 -64h-52q1 61 43 97.5t104 36.5q60 0 98.5 -32.5t38.5 -80.5q0 -35 -20.5 -63.5t-65.5 -69.5l-93 -84h185v-48h-311z" />
    <glyph glyph-name="three.denominator" 
d="M234 280q0 20 -20.5 35t-51.5 15q-52 0 -77 -57h-55q27 105 132 105q55 0 91.5 -29t36.5 -69q0 -42 -44 -72q67 -32 67 -95q0 -49 -41.5 -85.5t-108.5 -36.5q-125 0 -147 118h53q19 -70 94 -70q43 0 69.5 21t26.5 50q0 66 -124 71v46q99 5 99 53z" />
    <glyph glyph-name="four.denominator" 
d="M10 83l265 305v-257h51v-48h-51v-83h-54v83h-211zM116 131h105v120z" />
    <glyph glyph-name="five.denominator" 
d="M104 369h195v-47h-153l-18 -84q23 5 43 5q62 0 100.5 -35t38.5 -87q0 -53 -42 -92q-41 -38 -111 -38q-58 0 -95 30t-41 73h55q13 -55 83 -55q39 0 67.5 24t28.5 60q0 32 -25.5 52t-68.5 20q-39 0 -98 -15z" />
    <glyph glyph-name="six.denominator" 
d="M76 217l136 167l49 -26l-107 -136q5 1 22 1q57 0 94 -33.5t37 -80.5q0 -52 -42.5 -85t-100.5 -33q-60 0 -99 34.5t-39 81.5q0 49 50 110zM166 177q-34 0 -58.5 -20t-24.5 -48t24.5 -47.5t58.5 -19.5t58.5 19.5t24.5 47.5q0 29 -24 48.5t-59 19.5z" />
    <glyph glyph-name="seven.denominator" 
d="M40 322v47h282l-231 -378l-45 20l189 311h-195z" />
    <glyph glyph-name="eight.denominator" 
d="M239 202q71 -33 71 -95q0 -48 -39 -82t-105 -34q-69 0 -107 35q-36 36 -36 78q0 63 74 98q-53 27 -53 78q0 40 37 69t89 29t86 -30q35 -30 35 -70q0 -49 -52 -76zM236 280q0 22 -18.5 36t-50.5 14q-29 0 -49 -14t-20 -37t21.5 -39.5t48.5 -16.5q28 0 48 16.5t20 40.5z
M256 107q0 30 -25 50t-62 20t-64 -20.5t-27 -52.5t25 -48.5t64 -16.5q38 0 63.5 19t25.5 49z" />
    <glyph glyph-name="nine.denominator" 
d="M256 151l-135 -166l-50 26l108 136q-14 -2 -23 -2q-57 0 -93.5 33.5t-36.5 81.5q0 52 41.5 85t99.5 33q61 0 100 -34.5t39 -81.5q0 -48 -50 -111zM166 193q34 0 58.5 19.5t24.5 47.5t-24 48t-59 20t-59 -20t-24 -48t24.5 -47.5t58.5 -19.5z" />
    <glyph glyph-name="zero.numerator" 
d="M10 541q0 48 8 77q13 55 52.5 86.5t94.5 31.5q90 0 133 -79q23 -43 23 -116t-23 -116q-20 -38 -55 -59t-78 -21q-79 0 -121 59h1q-35 47 -35 137zM68 540q0 -79 23 -109q26 -37 74 -37q45 0 72.5 37t27.5 109q0 73 -27 110.5t-73 37.5t-74 -39q-23 -30 -23 -109z" />
    <glyph glyph-name="one.numerator" 
d="M74 679l35 48h92v-369h-54v321h-73z" />
    <glyph glyph-name="two.numerator" 
d="M3 358l175 158q43 38 60 59.5t17 46.5q0 27 -25 46.5t-61 19.5q-40 0 -64.5 -22t-28.5 -64h-52q1 61 43 97.5t104 36.5q60 0 98.5 -32.5t38.5 -80.5q0 -35 -20.5 -63.5t-65.5 -69.5l-93 -84h185v-48h-311z" />
    <glyph glyph-name="three.numerator" 
d="M234 638q0 20 -20.5 35t-51.5 15q-52 0 -77 -57h-55q27 105 132 105q55 0 91.5 -29t36.5 -69q0 -42 -44 -72q67 -32 67 -95q0 -49 -41.5 -85.5t-108.5 -36.5q-125 0 -147 118h53q19 -70 94 -70q43 0 69.5 21t26.5 50q0 66 -124 71v46q99 5 99 53z" />
    <glyph glyph-name="four.numerator" 
d="M10 442l265 305v-257h51v-48h-51v-83h-54v83h-211zM116 490h105v120z" />
    <glyph glyph-name="five.numerator" 
d="M104 727h195v-47h-153l-18 -84q23 5 43 5q62 0 100.5 -35t38.5 -87q0 -53 -42 -92q-41 -38 -111 -38q-58 0 -95 30t-41 73h55q13 -55 83 -55q39 0 67.5 24t28.5 60q0 32 -25.5 52t-68.5 20q-39 0 -98 -15z" />
    <glyph glyph-name="six.numerator" 
d="M76 575l136 167l49 -26l-107 -136q5 1 22 1q57 0 94 -33.5t37 -80.5q0 -52 -42.5 -85t-100.5 -33q-60 0 -99 34.5t-39 81.5q0 49 50 110zM166 535q-34 0 -58.5 -20t-24.5 -48t24.5 -47.5t58.5 -19.5t58.5 19.5t24.5 47.5q0 29 -24 48.5t-59 19.5z" />
    <glyph glyph-name="seven.numerator" 
d="M40 680v47h282l-231 -378l-45 20l189 311h-195z" />
    <glyph glyph-name="eight.numerator" 
d="M239 560q71 -33 71 -95q0 -48 -39 -82t-105 -34q-69 0 -107 35q-36 36 -36 78q0 63 74 98q-53 27 -53 78q0 40 36.5 69t88.5 29q53 0 87 -30q35 -30 35 -70q0 -49 -52 -76zM236 638q0 22 -18.5 36t-50.5 14q-29 0 -49 -14t-20 -37t21.5 -39.5t48.5 -16.5q28 0 48 16.5
t20 40.5zM256 465q0 30 -25 50t-62 20t-64 -20.5t-27 -52.5t25 -48.5t64 -16.5q38 0 63.5 19t25.5 49z" />
    <glyph glyph-name="nine.numerator" 
d="M256 509l-135 -166l-50 26l108 136q-14 -2 -23 -2q-57 0 -93.5 33.5t-36.5 81.5q0 52 41.5 85t99.5 33q61 0 100 -34.5t39 -81.5q0 -48 -50 -111zM166 551q34 0 58.5 19.5t24.5 47.5t-24 48t-59 20t-59 -20t-24 -48t24.5 -47.5t58.5 -19.5z" />
    <glyph glyph-name="afii10066.ital" horiz-adv-x="669" 
d="M93 596q0 40 15 66t42 40.5t74.5 22.5t100.5 11t133 5q66 2 102 3q5 0 25 4v-66q-42 -9 -156 -10t-179 -8q-87 -10 -87 -65q0 -32 19 -49t53 -17q13 0 51.5 4.5t64.5 4.5q109 0 188 -81.5t79 -196.5t-79 -196t-197 -81q-82 0 -148 42.5t-98.5 104t-32.5 126.5
q0 77 29 128t90 105q-89 30 -89 103zM340 479q-86 0 -146.5 -63t-60.5 -153q0 -88 59 -150.5t148 -62.5q88 0 148 62t60 151q0 90 -60.5 153t-147.5 63z" />
    <glyph glyph-name="i.dot" horiz-adv-x="200" 
d="M67 0v531h68v-531h-68zM100 750q23 0 40 -16.5t17 -39.5t-17 -40t-40 -17t-39.5 17t-16.5 40q0 24 16.5 40t39.5 16z" />
    </font>
</defs>
</svg>
