<?xml version="1.0" encoding="utf-8"?>
<!-- Generator: Adobe Illustrator 15.0.0, SVG Export Plug-In . SVG Version: 6.00 Build 0)  -->
<!DOCTYPE svg PUBLIC "-//W3C//DTD SVG 1.1//EN" "http://www.w3.org/Graphics/SVG/1.1/DTD/svg11.dtd">
<svg version="1.1" id="Layer_1" xmlns="http://www.w3.org/2000/svg" xmlns:xlink="http://www.w3.org/1999/xlink" x="0px" y="0px"
	 width="265.568px" height="66.667px" viewBox="0 0 265.568 66.667" enable-background="new 0 0 265.568 66.667"
	 xml:space="preserve">
<rect x="10.256" y="15.751" fill="none" width="256.776" height="70.696"/>
<g enable-background="new    ">
	<path fill="#FFFFFF" d="M26.48,15.318c3.552,0,6.448,1.36,8.688,4.08v-0.541c0-0.163,0-0.344,0-0.54
		c-0.064-0.196-0.096-0.312-0.096-0.345c-0.064-0.721-0.096-1.048-0.096-0.983c0-1.113,0.496-1.671,1.489-1.671
		c1.055,0,1.583,0.672,1.583,2.017c0,0.256-0.032,1.024-0.096,2.304c-0.192,1.601-0.288,2.704-0.288,3.312
		c0,0.864,0.055,1.745,0.164,2.641l0.22,1.824v0.479c0,1.44-0.576,2.16-1.728,2.16c-1.248,0-1.856-0.682-1.824-2.047v-1.714
		c0.063-2.284-0.654-4.142-2.154-5.569s-3.463-2.142-5.889-2.142c-3.16,0-5.633,1.216-7.42,3.647
		c-1.787,2.433-2.68,5.792-2.68,10.08c0,4.384,0.919,7.8,2.76,10.248c1.84,2.449,4.408,3.672,7.704,3.672
		c1.792,0,3.4-0.432,4.824-1.295c1.424-0.865,2.424-2,3-3.408c0.384-0.928,0.576-2.176,0.576-3.744c0-1.471,0.607-2.209,1.824-2.209
		c1.312,0,1.968,0.738,1.968,2.209c0,3.424-1.184,6.225-3.552,8.4c-2.369,2.176-5.424,3.264-9.168,3.264
		c-4.32,0-7.769-1.52-10.344-4.561c-2.576-3.039-3.864-7.088-3.864-12.144c0-5.215,1.32-9.423,3.96-12.624
		C18.68,16.919,22.16,15.318,26.48,15.318z"/>
	<path fill="#FFFFFF" d="M47.984,22.759c0-2.368-0.816-3.552-2.448-3.552c-0.449,0-0.785,0.032-1.008,0.096
		c-0.512,0.096-0.944,0.144-1.296,0.144c-0.416,0-0.768-0.151-1.056-0.456c-0.288-0.304-0.432-0.679-0.432-1.128
		c0-1.119,0.704-1.68,2.112-1.68c0.192,0,0.416,0.017,0.672,0.048l2.544,0.336c0.96,0.129,1.951,0.192,2.976,0.192
		c0.992,0,2.08-0.08,3.264-0.24l2.16-0.288c0.255-0.031,0.48-0.048,0.672-0.048c1.408,0,2.112,0.561,2.112,1.68
		c0,0.449-0.144,0.824-0.432,1.128c-0.288,0.305-0.641,0.456-1.056,0.456c-0.32,0-0.752-0.048-1.296-0.144
		c-0.225-0.063-0.561-0.096-1.008-0.096c-1.632,0-2.448,1.184-2.448,3.552v19.249c0,2.398,0.816,3.6,2.448,3.6
		c0.256,0,0.592-0.031,1.008-0.096c0.607-0.096,1.04-0.145,1.296-0.145c0.992,0,1.488,0.512,1.488,1.535
		c0,1.152-0.704,1.729-2.112,1.729c-0.064,0-0.176,0-0.336,0c-0.128-0.031-0.24-0.047-0.336-0.047l-2.496-0.385
		c-0.833-0.127-1.712-0.191-2.64-0.191c-1.344,0-2.544,0.08-3.6,0.24l-2.208,0.336c-0.064,0-0.176,0.016-0.336,0.047
		c-0.16,0-0.288,0-0.384,0c-1.376,0-2.064-0.576-2.064-1.729c0-1.023,0.496-1.535,1.488-1.535c0.16,0,0.592,0.031,1.296,0.096
		c0.352,0.096,0.688,0.145,1.008,0.145c1.632,0,2.448-1.201,2.448-3.6V22.759z"/>
	<path fill="#FFFFFF" d="M75.391,15.318c3.552,0,6.448,1.36,8.688,4.08v-0.541c0-0.163,0-0.344,0-0.54
		c-0.064-0.196-0.096-0.312-0.096-0.345c-0.064-0.721-0.096-1.048-0.096-0.983c0-1.113,0.496-1.671,1.489-1.671
		c1.055,0,1.583,0.672,1.583,2.017c0,0.256-0.032,1.024-0.096,2.304c-0.192,1.601-0.288,2.704-0.288,3.312
		c0,0.864,0.055,1.745,0.164,2.641l0.22,1.824v0.479c0,1.44-0.576,2.16-1.728,2.16c-1.248,0-1.856-0.682-1.824-2.047v-1.714
		c0.063-2.284-0.654-4.142-2.154-5.569s-3.463-2.142-5.889-2.142c-3.16,0-5.633,1.216-7.42,3.647
		c-1.787,2.433-2.68,5.792-2.68,10.08c0,4.384,0.919,7.8,2.76,10.248c1.84,2.449,4.408,3.672,7.704,3.672
		c1.792,0,3.4-0.432,4.824-1.295c1.424-0.865,2.424-2,3-3.408c0.384-0.928,0.576-2.176,0.576-3.744c0-1.471,0.607-2.209,1.824-2.209
		c1.312,0,1.968,0.738,1.968,2.209c0,3.424-1.184,6.225-3.552,8.4c-2.369,2.176-5.424,3.264-9.168,3.264
		c-4.32,0-7.769-1.52-10.344-4.561c-2.576-3.039-3.864-7.088-3.864-12.144c0-5.215,1.32-9.423,3.96-12.624
		C67.591,16.919,71.071,15.318,75.391,15.318z"/>
	<path fill="#FFFFFF" d="M100.975,41.357c0,1.877,0.192,2.99,0.576,3.342c0.288,0.287,0.664,0.461,1.128,0.525
		c0.463,0.062,1.512,0.094,3.144,0.094h4.224c2.208,0,3.679-0.291,4.416-0.875c0.735-0.584,1.104-1.76,1.104-3.527
		c0-0.473-0.017-1.025-0.048-1.656c-0.064-1.23-0.096-1.973-0.096-2.227c0-1.387,0.559-2.082,1.68-2.082
		c1.344,0,2.016,0.641,2.016,1.92c0,0.385-0.017,0.689-0.048,0.912l-0.336,2.447c-0.096,0.705-0.144,1.441-0.144,2.209
		c0,0.447,0.04,1.111,0.12,1.992c0.08,0.881,0.12,1.543,0.12,1.992c0,1.439-0.816,2.16-2.448,2.16c-0.32,0-1.056-0.057-2.208-0.168
		c-0.768-0.057-1.952-0.113-3.552-0.168h-3.6h-7.68c-0.768,0-2.048,0.064-3.84,0.191c-0.256,0-0.696,0.023-1.32,0.072
		c-0.624,0.047-1.112,0.072-1.464,0.072c-1.344,0-2.016-0.576-2.016-1.729c0-1.023,0.496-1.537,1.488-1.537
		c0.255,0,0.64,0.049,1.152,0.145c0.511,0.096,0.896,0.145,1.152,0.145c1.632,0,2.448-1.201,2.448-3.6V22.759
		c0-2.368-0.816-3.552-2.448-3.552c-0.448,0-0.785,0.032-1.008,0.096c-0.512,0.096-0.944,0.144-1.296,0.144
		c-0.417,0-0.768-0.151-1.056-0.456c-0.288-0.304-0.432-0.679-0.432-1.128c0-1.119,0.688-1.68,2.064-1.68
		c0.192,0,0.432,0.017,0.72,0.048l2.544,0.288c1.408,0.16,2.448,0.24,3.12,0.24c0.832,0,1.855-0.08,3.072-0.24l2.208-0.288
		c0.256-0.031,0.463-0.048,0.624-0.048c1.44,0,2.16,0.561,2.16,1.68c0,0.449-0.144,0.824-0.432,1.128
		c-0.288,0.305-0.641,0.456-1.056,0.456c-0.32,0-0.752-0.048-1.296-0.144c-0.224-0.063-0.56-0.096-1.008-0.096
		c-1.632,0-2.448,1.177-2.448,3.532V41.357z"/>
	<path fill="#FFFFFF" d="M146.67,42.966l-1.728-4.703c-0.192-0.512-0.393-0.832-0.601-0.961c-0.208-0.127-0.632-0.191-1.272-0.191
		h-8.543c-0.641,0-1.08,0.111-1.32,0.336s-0.552,0.832-0.936,1.824l-1.392,3.695c-0.128,0.354-0.192,0.689-0.192,1.008
		c0,1.025,0.624,1.537,1.872,1.537c0.319,0,0.775-0.031,1.368-0.096c0.592-0.064,1.032-0.098,1.32-0.098
		c1.312,0,1.968,0.561,1.968,1.682c0,1.055-0.72,1.584-2.16,1.584c-0.256,0-0.607-0.033-1.056-0.098l-2.4-0.297
		c-0.449-0.059-1.185-0.086-2.208-0.086c-1.121,0-1.904,0.027-2.352,0.08l-2.016,0.24c-0.896,0.105-1.553,0.16-1.968,0.16
		c-1.248,0-1.872-0.529-1.872-1.584c0-1.121,0.607-1.682,1.824-1.682c0.256,0,0.448,0.064,0.576,0.193h0.624
		c0.864,0,1.52-0.338,1.968-1.012c0.192-0.256,0.512-1.012,0.96-2.264l8.928-24.222c0.512-1.349,1.52-2.023,3.024-2.023
		c1.472,0,2.448,0.673,2.929,2.017l8.592,23.807c0.543,1.506,1.039,2.496,1.487,2.977s1.088,0.721,1.921,0.721
		c0.255,0,0.447-0.021,0.575-0.064l1.345-0.129c1.215,0,1.823,0.529,1.823,1.584c0,1.121-0.608,1.682-1.823,1.682
		c-0.354,0-0.816-0.037-1.393-0.107c-2.016-0.248-3.521-0.373-4.512-0.373c-1.185,0-3.104,0.127-5.76,0.383
		c-0.672,0.064-1.186,0.098-1.537,0.098c-1.279,0-1.92-0.545-1.92-1.633s0.704-1.633,2.112-1.633c0.288,0,0.712,0.033,1.272,0.098
		c0.559,0.064,0.984,0.096,1.271,0.096c1.057,0,1.584-0.432,1.584-1.297C147.053,44.087,146.926,43.671,146.67,42.966z
		 M143.214,33.175l-4.32-13.248l-4.416,13.248c-0.064,0.191-0.096,0.305-0.096,0.336c0,0.288,0.24,0.432,0.721,0.432h7.631
		c0.385,0,0.576-0.127,0.576-0.384C143.309,33.495,143.278,33.366,143.214,33.175z"/>
	<path fill="#FFFFFF" d="M163.518,23.989l6.768,20.417l6.432-20.063c0.48-1.536,0.721-2.624,0.721-3.264
		c0-1.216-0.641-1.824-1.92-1.824c-0.225,0-0.576,0.04-1.057,0.12s-0.832,0.119-1.057,0.119c-1.248,0-1.871-0.559-1.871-1.68
		c0-1.087,0.607-1.632,1.824-1.632c0.672,0,1.688,0.096,3.047,0.288c1.361,0.192,2.393,0.288,3.098,0.288
		c1.15,0,2.574-0.145,4.271-0.433c0.543-0.096,1.055-0.144,1.535-0.144c1.184,0,1.777,0.561,1.777,1.68
		c0,1.089-0.594,1.632-1.777,1.632c-0.031,0-0.096-0.016-0.191-0.048l-1.104-0.096h-0.24c-0.545,0-0.984,0.264-1.32,0.792
		s-0.809,1.673-1.416,3.432l-7.873,23.089c-0.543,1.566-1.551,2.352-3.023,2.352c-1.535,0-2.576-0.783-3.119-2.35l-8.592-24.104
		c-0.417-1.183-0.753-1.933-1.009-2.252c-0.448-0.543-1.151-0.815-2.112-0.815c-0.191,0-0.496,0-0.912,0s-0.719,0-0.912,0
		c-1.248,0-1.871-0.543-1.871-1.632c0-1.119,0.64-1.68,1.92-1.68c0.384,0,0.816,0.045,1.296,0.134
		c1.792,0.327,3.376,0.49,4.752,0.49c0.8,0,1.983-0.104,3.552-0.312c1.568-0.207,2.736-0.312,3.504-0.312
		c1.184,0,1.775,0.528,1.775,1.584c0,1.152-0.607,1.728-1.822,1.728c-0.064,0-0.209,0-0.434,0c-0.191,0-0.352,0-0.479,0
		c-0.193,0-0.465,0-0.816,0c-1.408,0-2.111,0.446-2.111,1.339c0,0.447,0.078,0.925,0.238,1.436L163.518,23.989z"/>
	<path fill="#FFFFFF" d="M193.95,22.759c0-2.368-0.816-3.552-2.449-3.552c-0.447,0-0.783,0.032-1.008,0.096
		c-0.512,0.096-0.943,0.144-1.295,0.144c-0.418,0-0.77-0.151-1.057-0.456c-0.289-0.304-0.432-0.679-0.432-1.128
		c0-1.119,0.703-1.68,2.111-1.68c0.191,0,0.416,0.017,0.672,0.048l2.545,0.336c0.959,0.129,1.951,0.192,2.975,0.192
		c0.992,0,2.08-0.08,3.266-0.24l2.158-0.288c0.256-0.031,0.48-0.048,0.672-0.048c1.408,0,2.113,0.561,2.113,1.68
		c0,0.449-0.145,0.824-0.432,1.128c-0.289,0.305-0.641,0.456-1.057,0.456c-0.32,0-0.752-0.048-1.297-0.144
		c-0.223-0.063-0.559-0.096-1.008-0.096c-1.631,0-2.447,1.184-2.447,3.552v19.249c0,2.398,0.816,3.6,2.447,3.6
		c0.256,0,0.592-0.031,1.008-0.096c0.607-0.096,1.041-0.145,1.297-0.145c0.992,0,1.488,0.512,1.488,1.535
		c0,1.152-0.705,1.729-2.113,1.729c-0.064,0-0.176,0-0.336,0c-0.127-0.031-0.238-0.047-0.336-0.047l-2.496-0.385
		c-0.832-0.127-1.711-0.191-2.639-0.191c-1.344,0-2.545,0.08-3.6,0.24l-2.209,0.336c-0.064,0-0.176,0.016-0.336,0.047
		c-0.16,0-0.287,0-0.385,0c-1.375,0-2.062-0.576-2.062-1.729c0-1.023,0.496-1.535,1.488-1.535c0.158,0,0.592,0.031,1.295,0.096
		c0.352,0.096,0.688,0.145,1.008,0.145c1.633,0,2.449-1.201,2.449-3.6V22.759z"/>
	<path fill="#FFFFFF" d="M230.237,42.966l-1.729-4.703c-0.191-0.512-0.393-0.832-0.6-0.961c-0.209-0.127-0.633-0.191-1.271-0.191
		h-8.545c-0.641,0-1.08,0.111-1.32,0.336c-0.238,0.225-0.551,0.832-0.936,1.824l-1.393,3.695c-0.127,0.354-0.191,0.689-0.191,1.008
		c0,1.025,0.625,1.537,1.873,1.537c0.318,0,0.775-0.031,1.367-0.096s1.031-0.098,1.32-0.098c1.312,0,1.969,0.561,1.969,1.682
		c0,1.055-0.721,1.584-2.16,1.584c-0.258,0-0.609-0.033-1.057-0.098l-2.4-0.297c-0.447-0.059-1.184-0.086-2.207-0.086
		c-1.121,0-1.904,0.027-2.354,0.08l-2.016,0.24c-0.896,0.105-1.553,0.16-1.967,0.16c-1.248,0-1.873-0.529-1.873-1.584
		c0-1.121,0.607-1.682,1.824-1.682c0.256,0,0.447,0.064,0.576,0.193h0.623c0.865,0,1.52-0.338,1.969-1.012
		c0.191-0.256,0.512-1.012,0.961-2.264l8.928-24.222c0.512-1.349,1.52-2.023,3.023-2.023c1.471,0,2.447,0.673,2.928,2.017
		l8.592,23.807c0.545,1.506,1.039,2.496,1.488,2.977c0.447,0.48,1.088,0.721,1.92,0.721c0.256,0,0.447-0.021,0.576-0.064
		l1.344-0.129c1.217,0,1.824,0.529,1.824,1.584c0,1.121-0.607,1.682-1.824,1.682c-0.352,0-0.816-0.037-1.393-0.107
		c-2.016-0.248-3.52-0.373-4.512-0.373c-1.184,0-3.104,0.127-5.76,0.383c-0.672,0.064-1.184,0.098-1.535,0.098
		c-1.281,0-1.92-0.545-1.92-1.633s0.703-1.633,2.111-1.633c0.289,0,0.711,0.033,1.271,0.098s0.984,0.096,1.273,0.096
		c1.055,0,1.584-0.432,1.584-1.297C230.622,44.087,230.493,43.671,230.237,42.966z M226.782,33.175l-4.32-13.248l-4.416,13.248
		c-0.064,0.191-0.096,0.305-0.096,0.336c0,0.288,0.238,0.432,0.719,0.432h7.633c0.383,0,0.576-0.127,0.576-0.384
		C226.878,33.495,226.844,33.366,226.782,33.175z"/>
</g>
</svg>
