<?xml version="1.0" encoding="utf-8"?>
<!-- Generator: Adobe Illustrator 15.0.0, SVG Export Plug-In . SVG Version: 6.00 Build 0)  -->
<!DOCTYPE svg PUBLIC "-//W3C//DTD SVG 1.1//EN" "http://www.w3.org/Graphics/SVG/1.1/DTD/svg11.dtd">
<svg version="1.1" id="Layer_1" xmlns="http://www.w3.org/2000/svg" xmlns:xlink="http://www.w3.org/1999/xlink" x="0px" y="0px"
	 width="265.568px" height="66.667px" viewBox="0 0 265.568 66.667" enable-background="new 0 0 265.568 66.667"
	 xml:space="preserve">
<rect x="10.256" y="15.751" fill="none" width="256.776" height="70.696"/>
<g enable-background="new    ">
	<path fill="#FFFFFF" d="M12.56,33.511c0-2.047,0.36-4.08,1.08-6.096c0.72-2.016,1.76-3.832,3.12-5.448
		c1.36-1.615,3.04-2.928,5.04-3.936c2-1.008,4.28-1.513,6.84-1.513c3.04,0,5.616,0.696,7.728,2.089
		c2.112,1.392,3.68,3.176,4.704,5.352l-0.912,0.288c-0.672-1.248-1.448-2.304-2.328-3.168c-0.881-0.864-1.841-1.561-2.88-2.088
		c-1.04-0.528-2.112-0.912-3.216-1.152s-2.201-0.359-3.288-0.359c-2.368,0-4.48,0.472-6.336,1.415
		c-1.856,0.944-3.424,2.185-4.704,3.721c-1.28,1.536-2.249,3.272-2.904,5.208c-0.656,1.937-0.984,3.88-0.984,5.832
		c0,2.176,0.391,4.256,1.176,6.239c0.784,1.986,1.855,3.738,3.216,5.258c1.36,1.52,2.952,2.729,4.776,3.623
		c1.824,0.896,3.792,1.344,5.904,1.344c1.12,0,2.272-0.145,3.456-0.432c1.184-0.287,2.328-0.721,3.432-1.297
		c1.104-0.574,2.127-1.318,3.072-2.23c0.943-0.912,1.752-1.992,2.424-3.24l0.912,0.24c-0.576,1.279-1.36,2.416-2.352,3.408
		c-0.992,0.992-2.096,1.822-3.312,2.496c-1.216,0.672-2.504,1.176-3.864,1.512C31,50.912,29.679,51.08,28.4,51.08
		c-2.304,0-4.433-0.512-6.384-1.537c-1.952-1.023-3.624-2.359-5.016-4.008c-1.392-1.646-2.48-3.52-3.264-5.615
		C12.951,37.824,12.56,35.687,12.56,33.511z"/>
	<path fill="#FFFFFF" d="M48.031,15.751h0.96v31.344c0,0.928,0.288,1.664,0.864,2.207c0.576,0.545,1.344,0.816,2.304,0.816
		c0.352,0,0.775-0.039,1.272-0.119c0.496-0.08,0.952-0.184,1.368-0.312l0.336,0.768c-0.448,0.16-1,0.297-1.656,0.408
		c-0.656,0.111-1.208,0.168-1.656,0.168c-1.12,0-2.032-0.359-2.736-1.08c-0.704-0.719-1.056-1.672-1.056-2.855V15.751z"/>
	<path fill="#FFFFFF" d="M69.199,51.271c-1.632,0-3.168-0.344-4.608-1.031c-1.44-0.689-2.696-1.617-3.768-2.785
		c-1.072-1.168-1.92-2.535-2.544-4.104s-0.936-3.217-0.936-4.943c0-1.76,0.312-3.416,0.936-4.968
		c0.624-1.552,1.479-2.92,2.568-4.104c1.087-1.184,2.352-2.119,3.792-2.808s2.959-1.032,4.56-1.032c1.6,0,3.12,0.344,4.56,1.032
		s2.695,1.624,3.768,2.808c1.072,1.185,1.927,2.553,2.568,4.104c0.64,1.552,0.96,3.208,0.96,4.968c0,1.727-0.312,3.375-0.936,4.943
		s-1.472,2.936-2.544,4.104c-1.072,1.168-2.328,2.096-3.768,2.785C72.367,50.927,70.831,51.271,69.199,51.271z M58.303,38.503
		c0,1.6,0.288,3.119,0.864,4.561c0.576,1.439,1.351,2.695,2.328,3.768c0.976,1.072,2.12,1.92,3.432,2.543
		c1.312,0.625,2.72,0.936,4.224,0.936c1.471,0,2.872-0.318,4.2-0.959c1.328-0.641,2.496-1.504,3.504-2.592
		c1.008-1.088,1.8-2.352,2.376-3.793c0.576-1.439,0.864-2.975,0.864-4.607c0-1.6-0.288-3.119-0.864-4.56
		c-0.576-1.439-1.361-2.703-2.352-3.792c-0.992-1.087-2.153-1.951-3.48-2.592c-1.329-0.64-2.729-0.96-4.2-0.96
		c-1.472,0-2.873,0.32-4.2,0.96c-1.328,0.641-2.488,1.512-3.48,2.616c-0.992,1.104-1.776,2.384-2.352,3.839
		C58.591,35.328,58.303,36.871,58.303,38.503z"/>
	<path fill="#FFFFFF" d="M85.471,38.214c0-1.791,0.304-3.463,0.912-5.015c0.607-1.552,1.456-2.896,2.544-4.032
		c1.087-1.136,2.359-2.031,3.816-2.688c1.456-0.656,3.032-0.984,4.728-0.984c2.112,0,3.992,0.488,5.64,1.464
		c1.647,0.977,2.887,2.345,3.72,4.104l-0.96,0.336c-0.833-1.536-2.008-2.744-3.528-3.624c-1.521-0.88-3.192-1.32-5.016-1.32
		c-1.536,0-2.96,0.305-4.272,0.912c-1.312,0.608-2.464,1.439-3.456,2.496c-0.992,1.056-1.769,2.304-2.328,3.744
		c-0.56,1.439-0.84,2.976-0.84,4.607c0,1.633,0.288,3.186,0.864,4.656c0.576,1.473,1.368,2.76,2.376,3.865
		c1.008,1.104,2.167,1.975,3.48,2.615c1.312,0.641,2.719,0.959,4.224,0.959c0.96,0,1.928-0.143,2.904-0.432
		c0.976-0.287,1.872-0.672,2.688-1.152c0.816-0.479,1.512-1.039,2.088-1.68c0.576-0.639,0.96-1.295,1.152-1.967l0.96,0.287
		c-0.288,0.832-0.744,1.607-1.368,2.328s-1.368,1.344-2.232,1.873c-0.864,0.527-1.817,0.943-2.856,1.248
		c-1.041,0.303-2.105,0.455-3.192,0.455c-1.632,0-3.185-0.344-4.656-1.031c-1.472-0.689-2.752-1.625-3.84-2.809
		s-1.952-2.568-2.592-4.152C85.79,41.695,85.471,40.007,85.471,38.214z"/>
	<path fill="#FFFFFF" d="M131.455,50.791l-10.608-14.256l-6.768,6.145v8.111h-0.96v-35.04h0.96v25.631l16.992-15.408h1.296
		l-10.8,9.888l11.04,14.928H131.455z"/>
	<path fill="#FFFFFF" d="M144.751,51.271c-3.872,0-7.04-1.344-9.504-4.031l0.721-0.625c1.279,1.248,2.615,2.178,4.008,2.785
		c1.392,0.607,2.982,0.91,4.775,0.91c2.464,0,4.465-0.527,6-1.584c1.536-1.055,2.305-2.543,2.305-4.463
		c0-0.896-0.192-1.641-0.576-2.232c-0.385-0.592-0.944-1.104-1.68-1.535c-0.737-0.432-1.648-0.801-2.736-1.105
		c-1.088-0.303-2.32-0.615-3.696-0.936c-1.345-0.318-2.513-0.615-3.504-0.887c-0.992-0.271-1.816-0.617-2.472-1.033
		c-0.656-0.416-1.152-0.936-1.488-1.561c-0.336-0.623-0.504-1.431-0.504-2.423c0-1.248,0.24-2.312,0.72-3.191s1.12-1.608,1.92-2.185
		s1.728-1,2.784-1.271s2.176-0.408,3.359-0.408c2.017,0,3.736,0.344,5.16,1.032s2.408,1.544,2.953,2.567l-0.865,0.385
		c-0.607-0.992-1.6-1.744-2.976-2.257c-1.376-0.511-2.864-0.768-4.464-0.768c-1.024,0-2,0.112-2.928,0.336
		c-0.929,0.225-1.744,0.576-2.448,1.056c-0.704,0.48-1.257,1.097-1.656,1.849c-0.4,0.752-0.6,1.655-0.6,2.712
		c0,0.832,0.136,1.512,0.407,2.04s0.697,0.969,1.272,1.32c0.576,0.352,1.312,0.656,2.208,0.912c0.896,0.256,1.951,0.527,3.168,0.816
		c1.472,0.352,2.809,0.688,4.008,1.008c1.2,0.32,2.209,0.719,3.024,1.199s1.447,1.064,1.896,1.752
		c0.448,0.689,0.672,1.576,0.672,2.664s-0.224,2.072-0.672,2.953c-0.448,0.879-1.072,1.631-1.871,2.256
		c-0.801,0.623-1.776,1.104-2.929,1.439C147.391,51.103,146.126,51.271,144.751,51.271z"/>
	<path fill="#FFFFFF" d="M179.454,50.791h-0.959V36.919c0-6.976-2.305-10.464-6.912-10.464c-1.152,0-2.289,0.225-3.408,0.672
		c-1.121,0.448-2.152,1.056-3.096,1.824c-0.945,0.768-1.77,1.672-2.473,2.712s-1.217,2.168-1.535,3.383v15.744h-0.961v-35.04h0.961
		v16.56c0.512-1.023,1.143-1.959,1.895-2.808c0.752-0.848,1.584-1.567,2.496-2.16c0.912-0.592,1.889-1.048,2.928-1.368
		c1.041-0.319,2.09-0.479,3.145-0.479c2.592,0,4.561,0.96,5.904,2.88s2.016,4.769,2.016,8.544V50.791z"/>
	<path fill="#FFFFFF" d="M197.262,51.271c-1.633,0-3.168-0.344-4.609-1.031c-1.439-0.689-2.695-1.617-3.768-2.785
		s-1.92-2.535-2.545-4.104c-0.623-1.568-0.936-3.217-0.936-4.943c0-1.76,0.312-3.416,0.936-4.968c0.625-1.552,1.48-2.92,2.568-4.104
		c1.088-1.184,2.354-2.119,3.793-2.808s2.959-1.032,4.561-1.032c1.6,0,3.119,0.344,4.559,1.032c1.441,0.688,2.695,1.624,3.768,2.808
		c1.072,1.185,1.928,2.553,2.568,4.104c0.641,1.552,0.961,3.208,0.961,4.968c0,1.727-0.312,3.375-0.936,4.943
		c-0.625,1.568-1.473,2.936-2.545,4.104s-2.328,2.096-3.768,2.785C200.43,50.927,198.893,51.271,197.262,51.271z M186.366,38.503
		c0,1.6,0.287,3.119,0.863,4.561c0.576,1.439,1.352,2.695,2.328,3.768s2.119,1.92,3.432,2.543c1.312,0.625,2.721,0.936,4.225,0.936
		c1.471,0,2.871-0.318,4.199-0.959s2.496-1.504,3.504-2.592s1.801-2.352,2.377-3.793c0.576-1.439,0.863-2.975,0.863-4.607
		c0-1.6-0.287-3.119-0.863-4.56c-0.576-1.439-1.361-2.703-2.352-3.792c-0.992-1.087-2.152-1.951-3.48-2.592
		c-1.328-0.64-2.729-0.96-4.199-0.96c-1.473,0-2.873,0.32-4.201,0.96c-1.328,0.641-2.488,1.512-3.48,2.616
		c-0.992,1.104-1.775,2.384-2.352,3.839C186.653,35.328,186.366,36.871,186.366,38.503z"/>
	<path fill="#FFFFFF" d="M226.493,51.271c-1.119,0-2.176-0.168-3.168-0.504s-1.92-0.783-2.783-1.344
		c-0.865-0.561-1.648-1.217-2.352-1.969c-0.705-0.752-1.328-1.543-1.873-2.375v15.936h-0.959V25.879h0.959v5.28
		c0.512-0.832,1.137-1.592,1.873-2.28c0.734-0.688,1.527-1.288,2.375-1.8s1.736-0.904,2.664-1.176s1.873-0.408,2.832-0.408
		c1.76,0,3.375,0.376,4.848,1.128s2.736,1.736,3.793,2.952c1.055,1.217,1.879,2.592,2.471,4.128
		c0.592,1.537,0.889,3.105,0.889,4.705c0,1.695-0.281,3.32-0.84,4.871c-0.561,1.553-1.344,2.92-2.352,4.104
		c-1.008,1.186-2.225,2.129-3.648,2.832C229.798,50.919,228.221,51.271,226.493,51.271z M226.493,50.31
		c1.633,0,3.096-0.342,4.393-1.031c1.297-0.688,2.408-1.592,3.336-2.711c0.928-1.121,1.639-2.393,2.137-3.816
		c0.494-1.424,0.744-2.873,0.744-4.344c0-1.568-0.289-3.072-0.865-4.514c-0.576-1.439-1.359-2.711-2.352-3.815
		c-0.992-1.104-2.16-1.983-3.504-2.64s-2.783-0.984-4.32-0.984c-0.959,0-2,0.208-3.119,0.624c-1.121,0.416-2.16,0.977-3.121,1.68
		c-0.959,0.704-1.768,1.521-2.424,2.448c-0.656,0.929-1.016,1.889-1.08,2.88v8.977c0.447,1.023,1.023,1.975,1.729,2.855
		c0.703,0.881,1.496,1.641,2.375,2.279c0.881,0.641,1.832,1.152,2.857,1.537C224.302,50.119,225.374,50.31,226.493,50.31z"/>
</g>
</svg>
