<?xml version="1.0" encoding="utf-8"?>
<!-- Generator: Adobe Illustrator 15.0.0, SVG Export Plug-In . SVG Version: 6.00 Build 0)  -->
<!DOCTYPE svg PUBLIC "-//W3C//DTD SVG 1.1//EN" "http://www.w3.org/Graphics/SVG/1.1/DTD/svg11.dtd">
<svg version="1.1" id="Layer_1" xmlns="http://www.w3.org/2000/svg" xmlns:xlink="http://www.w3.org/1999/xlink" x="0px" y="0px"
	 width="265.568px" height="66.667px" viewBox="0 0 265.568 66.667" enable-background="new 0 0 265.568 66.667"
	 xml:space="preserve">
<rect x="-2.564" y="7.326" fill="none" width="277.654" height="159.707"/>
<g enable-background="new    ">
	<path fill="#FFFFFF" d="M5.068,7.321h4.752V59.31H5.068V7.321z"/>
	<path fill="#FFFFFF" d="M24.148,44.765c2.016,7.92,6.625,11.377,14.833,11.377c6.48,0,10.369-4.105,10.369-10.369
		c0-13.97-28.155-8.498-28.155-25.707c0-7.705,5.329-13.466,14.978-13.466c8.208,0,14.257,4.465,16.633,12.457l-4.104,1.225
		c-1.872-5.761-5.904-9.793-12.529-9.793c-6.048,0-10.225,3.456-10.225,9.577c0,3.528,1.008,6.048,10.585,9.648
		c14.617,5.472,17.57,9.074,17.57,16.562c0,8.855-7.417,13.752-15.842,13.752c-9.937,0-15.625-4.391-18.505-13.896L24.148,44.765z"
		/>
	<path fill="#FFFFFF" d="M65.116,7.321h4.752V59.31h-4.752V7.321z"/>
	<path fill="#FFFFFF" d="M84.7,7.321h14.689c16.129,0,22.61,12.097,22.61,25.994c0,13.897-6.481,25.995-22.61,25.995H84.7V7.321z
		 M89.452,55.421h10.081c11.521,0,17.714-8.064,17.714-22.106c0-14.041-6.193-22.106-17.714-22.106H89.452V55.421z"/>
	<path fill="#FFFFFF" d="M170.022,33.315c0,15.336-7.488,26.713-20.521,26.713s-20.521-11.377-20.521-26.713
		c0-15.338,7.488-26.715,20.521-26.715S170.022,17.978,170.022,33.315z M165.27,33.315c0-14.617-6.192-22.826-15.77-22.826
		c-9.576,0-15.77,8.209-15.77,22.826c0,14.618,6.193,22.827,15.77,22.827C159.078,56.142,165.27,47.933,165.27,33.315z"/>
	<path fill="#FFFFFF" d="M216.246,59.31h-5.184l-12.098-23.762H185.5V59.31h-4.753V7.321h17.57c10.225,0,15.985,5.616,15.985,14.113
		c0,6.84-3.385,11.377-10.801,13.249L216.246,59.31z M185.5,31.659h12.817c6.912,0,11.232-3.816,11.232-10.225
		c0-6.409-3.744-10.226-11.232-10.226H185.5V31.659z"/>
	<path fill="#FFFFFF" d="M228.77,59.31V7.321h29.667v3.888h-24.914v19.154h17.93v3.888h-17.93v21.17h26.282v3.889H228.77z"/>
</g>
</svg>
